# Blender 4.4.1
# www.blender.org
mtllib Maxwell.mtl
o dingus
v -6.102098 1.846512 -9.206342
v -5.516801 -0.284384 -4.416022
v -8.147017 3.197160 -5.389286
v -6.358355 0.487925 -7.346616
v -6.619020 0.450053 -4.776690
v -5.442834 13.272044 -7.934357
v -6.357293 12.842471 -4.371717
v -3.601670 14.901601 -4.463278
v -6.216426 13.127431 -6.134451
v -4.039148 14.674986 -6.797629
v 2.894615 1.830199 -9.919257
v 5.338909 2.017105 -6.888461
v 4.355361 2.006113 -8.960586
v 3.772366 0.960767 -7.573871
v 4.611130 0.795891 -6.203433
v 3.540270 15.800255 -2.474421
v 4.060666 15.515532 -4.907066
v -4.001578 2.832483 12.627647
v -5.137730 1.919174 8.664015
v -4.047266 -0.410055 9.630380
v -4.888100 2.657656 11.424532
v -4.722101 0.484002 11.715958
v -5.015864 -0.147207 9.301455
v -3.826324 0.288866 12.556185
v -3.686148 14.618994 5.925418
v -4.650688 11.397676 7.293368
v -4.602784 13.468970 8.074592
v 6.789606 1.864871 8.831772
v 4.879265 -0.240608 8.809824
v 5.680845 2.549716 11.630548
v 5.369599 0.892087 10.998028
v 6.305596 0.170015 8.482961
v 2.964979 14.006618 6.632282
v 2.512525 16.414595 10.873178
v 3.748706 16.414812 11.582764
v 4.023229 12.791329 9.193941
v 3.915242 13.101560 6.747964
v 6.487222 1.890830 -2.376314
v 7.216609 1.777957 3.173496
v 5.444680 -0.374698 3.335680
v 6.034204 0.411444 -2.306423
v 6.724322 2.226754 -1.327517
v 6.888088 0.220157 2.812768
v 6.293179 12.552517 3.991469
v 5.452311 14.398199 -2.825148
v 5.167511 13.722065 4.282906
v 4.677917 15.103304 -2.377358
v 4.044594 14.305067 3.991735
v -5.767822 1.685565 5.186049
v -6.301217 0.377281 -0.520106
v -3.930704 -0.767045 5.117168
v -5.702695 0.234842 2.164980
v -4.352612 -0.522248 2.169559
v -5.245841 -0.421639 5.379398
v -3.778486 14.049439 4.149189
v -3.593262 13.675599 0.452988
v -5.170787 11.208001 4.396950
v -4.579695 12.886025 4.462143
v -4.860544 13.609658 6.540380
v -4.770827 12.642533 0.641758
v -6.438840 7.637371 -10.341210
v -7.300002 2.487432 -7.873552
v 3.902329 4.559477 -12.792255
v 4.177516 8.867044 -12.123379
v 6.217040 4.326053 -7.949733
v 4.137248 6.312032 -12.893078
v 5.545840 6.471486 -11.541451
v 5.833628 9.346478 -10.309443
v 6.577879 5.931208 -8.976089
v 6.931278 4.541979 9.365826
v 6.002439 8.572536 8.283152
v 5.346109 10.809356 12.704243
v 6.233061 4.943496 12.221035
v 6.246860 9.732582 11.249666
v 3.893275 9.941264 13.729779
v 4.049089 8.084821 13.306788
v -3.902637 7.330299 11.624559
v -5.607056 5.844433 8.164925
v -3.966423 9.137579 9.632534
v -4.137364 10.702329 8.783520
v -5.794609 8.172176 7.590043
v -6.650592 4.890387 5.291957
v -6.215570 9.116490 6.065459
v -8.401974 7.739645 0.255368
v -7.765349 6.194208 3.889543
v -7.781394 7.154075 3.993774
v -7.395955 8.604578 3.689915
v 6.773109 4.709586 3.723733
v 6.610062 4.757022 -2.453944
v 7.086966 9.153259 -1.500828
v 6.832425 8.661003 3.843915
v 6.442031 6.899478 3.973903
v 4.446196 16.880535 13.037213
v -4.304408 17.556913 4.651115
v -5.113465 12.409153 14.734067
v -4.643187 9.965922 14.020006
v -1.109048 0.037948 -6.726852
v -0.805645 1.624908 -11.155666
v 1.413884 16.372696 -3.703993
v 1.913674 15.942902 -6.583614
v 2.524415 0.867547 12.486626
v 1.458521 0.888402 12.479707
v 2.048428 14.375642 4.485281
v 1.632036 15.887243 -0.002187
v 0.171114 14.685708 4.762677
v 2.199996 15.185400 2.579662
v 4.618276 -0.118565 -1.877451
v -0.732658 -0.305579 -2.547361
v 4.963121 -0.099178 -0.041721
v -0.439871 6.696306 12.187910
v 1.485846 7.504061 13.210305
v 1.397281 3.701294 -13.312689
v 1.684088 6.260742 -13.909653
v -0.469225 3.751022 -13.413916
v -0.759255 8.484622 -13.447880
v 4.503576 15.677113 11.895409
v 0.469311 13.248653 16.070545
v -0.618342 9.316499 14.405940
v -4.556287 1.820042 -10.380635
v -2.081957 1.759429 -11.345009
v -4.359883 0.254821 -8.914482
v -2.133201 0.460788 -9.542881
v -0.086239 14.835403 -8.994259
v -0.248406 16.257790 -4.189149
v 0.108231 15.951814 -6.700880
v 1.408697 -0.214558 9.636385
v -1.972250 0.330749 12.860096
v 0.546425 0.151495 11.405485
v -1.151045 14.986954 4.868718
v -2.877692 14.900188 5.426926
v -0.140849 16.399799 8.893236
v -0.352481 15.646894 -0.130995
v -2.417136 14.584337 0.225252
v -2.944429 14.366343 3.877365
v 0.116157 14.814257 3.437553
v 0.735756 -0.415831 4.009111
v -3.944088 -0.336712 -6.047085
v -2.757855 4.209507 12.376213
v -0.017028 8.720056 13.420664
v -3.371688 8.449577 11.321198
v -1.594840 3.803629 -13.143686
v -4.376159 4.666608 -11.987875
v -4.676631 8.055630 -11.861780
v -0.816629 6.403793 -13.961878
v -0.413439 17.316265 9.917770
v -3.519687 12.532719 16.070061
v -2.874778 9.333361 13.649388
v 5.318592 12.921728 -8.059258
v 5.553660 10.228946 7.497348
v -5.164703 10.897864 7.596555
v -6.141314 12.786304 8.943644
v -8.027269 9.237373 0.412566
v 7.022861 10.727497 3.770887
v 1.778707 12.444866 -11.405703
v -0.108551 12.368171 -11.789274
v -1.516475 12.043193 -11.813011
v -7.504982 11.142028 -3.930117
v 3.637702 14.517427 -8.111788
v 4.815897 12.151757 9.666633
v 4.986244 11.063821 7.114732
v -4.957557 12.551563 8.197583
v -5.258168 10.879972 6.499778
v 6.486515 12.680977 -0.148540
v 2.597176 16.171486 13.377939
v 0.079966 16.032963 14.818147
v -0.591985 13.675602 -10.740993
v -3.577422 13.870228 -8.769856
v -6.927958 11.777400 -6.819583
v 6.148043 12.999865 -4.676792
v -7.010286 10.587821 0.465434
v 1.848238 13.922964 -10.024894
v -6.290945 4.501599 -10.217616
v -7.631415 5.946433 -8.129512
v -8.529312 6.953278 -4.689849
v 5.265962 4.821986 -11.486662
v 4.125918 5.992359 13.289976
v 6.310266 7.136484 12.266460
v 6.621932 6.299128 10.048414
v -5.158152 7.096509 9.323094
v -7.994089 4.671787 -0.656044
v 6.396640 6.792012 1.271034
v 6.787175 6.552542 -2.969003
v 1.673579 4.872964 -13.897211
v -0.719776 5.022581 -13.992823
v -4.808736 16.304850 8.123356
v -7.786965 9.189975 -7.644908
v -6.309335 9.875854 -9.694892
v 6.876230 9.013706 -7.861272
v 5.383497 11.782983 12.234769
v 0.461921 14.186337 15.880015
v 1.882854 8.782408 -13.107546
v -8.073875 9.652770 -3.853148
v 3.959849 12.675610 -10.154180
v 5.950327 10.944508 10.547428
v 5.725357 9.450522 7.902100
v -4.159579 11.279918 8.506290
v -5.942986 11.958656 8.790646
v -5.678298 10.340871 4.884797
v 6.924646 11.276632 -1.847636
v -5.967968 13.060213 11.910777
v -2.424692 13.727447 15.062708
v -4.520358 10.797869 -10.920640
v 4.505701 17.043304 11.798096
v -2.097659 16.824471 8.947968
v -4.177686 14.038006 7.192330
v 6.203227 18.447092 12.552386
v -2.964877 17.206951 5.749856
v 3.083446 12.632712 14.138821
v -6.347910 11.771269 10.800415
v -5.553214 10.491940 11.264436
v -4.193380 9.701504 12.510568
v -5.920296 12.046530 12.446363
v -0.293953 17.673815 11.561598
v 4.469207 15.281277 12.445880
v 0.960470 11.610361 15.858482
v -1.070513 12.782522 16.347797
v -5.534996 11.188377 9.038361
v -3.223639 16.398342 5.312006
v 1.851584 9.374884 14.151359
v 5.006138 16.371807 12.052926
v 1.634602 11.623363 15.421638
v 2.612352 11.090310 14.344479
v 1.090957 10.112134 14.637321
v 2.209234 17.327293 12.155527
v -1.432578 16.040510 14.713881
v -2.849577 16.728159 12.624073
v -3.985107 10.263616 15.087711
v -3.028569 10.616260 15.806898
v -1.766607 9.181991 14.466735
v -1.900247 16.696201 13.312785
v -1.445164 16.009346 6.895576
v -1.086195 11.197596 15.981004
v 1.950962 15.034249 14.403703
v -5.381713 13.871838 11.429567
v -4.241347 13.672180 13.792212
v -3.872298 14.600620 14.818648
v -2.765694 15.429232 14.504575
v -3.449986 16.133509 13.939201
v -4.563371 15.318928 12.598709
v 4.664065 13.839046 11.752705
v -4.495601 16.097862 11.414647
v -4.245180 16.809132 5.897204
v -5.214279 14.072952 8.703555
v -4.968858 16.013197 9.972788
v -4.901958 15.107744 11.535463
v -4.869876 14.951889 10.157901
v -0.518720 13.458278 16.074116
v -6.168529 11.730934 9.269615
v 4.450574 12.577049 13.046891
v -6.446280 12.536486 10.497582
v 3.203347 13.480124 14.007939
v -4.844475 11.705276 8.300317
v -3.630965 9.547395 11.606989
v -2.421641 17.025290 10.197931
v -4.692270 12.807552 15.743778
v -3.071327 13.959677 14.918612
v -2.754653 15.338251 5.951519
v -4.231719 15.227930 6.720204
v 2.172686 17.620125 12.881415
v 1.221818 17.027374 13.550937
v 0.713248 17.694223 12.540388
v 0.359252 17.659660 11.470852
v 0.554019 17.452669 10.832189
v 3.543731 15.486795 10.420528
v 3.938753 17.458168 11.951757
v -4.788775 14.617651 8.071258
v -4.946311 14.931551 9.120073
v -2.249623 16.900888 6.989755
v -4.953078 15.907263 7.546680
v 4.672014 16.338867 12.607912
v -0.280379 14.705189 15.603012
v 4.247190 13.812674 12.992344
v -6.141699 13.226576 9.194435
v -4.200209 13.914263 14.545238
v 2.893631 14.943953 13.796805
v 0.225951 15.063123 15.620991
v -0.687080 16.812357 9.048193
v 1.482729 12.551336 15.573112
v 3.364232 11.514830 13.931412
v -5.263241 10.577641 10.150187
v -3.894363 9.823805 13.957776
v -5.253061 12.794630 13.267462
v -0.392271 17.168148 12.732008
v -5.623786 10.643017 12.595858
v 4.112616 14.845959 11.030996
v 0.568625 16.546822 13.988577
v 4.134622 2.597672 12.737421
v 2.114554 4.324609 13.050700
v 1.133832 5.650496 13.282967
v -0.375076 4.389077 12.250593
v 0.148833 3.003223 12.981770
v 0.835019 3.945313 12.373028
v -0.421619 2.626848 12.184748
v -0.196989 2.889175 11.990051
v 4.191732 0.672241 11.766019
v -0.010066 1.288011 12.035992
v -0.243648 2.615752 12.748722
v 1.533299 3.195747 13.253474
vn -0.9610 -0.2498 0.1186
vn -0.9589 -0.2727 -0.0781
vn -0.7501 -0.6528 0.1061
vn 0.1964 0.9329 -0.3018
vn 0.4746 0.7593 -0.4452
vn 0.2316 0.7543 -0.6144
vn 0.3662 -0.8695 -0.3315
vn 0.1652 -0.9816 -0.0961
vn 0.1068 -0.9813 -0.1601
vn -0.1711 0.2076 0.9631
vn -0.0262 0.1132 0.9932
vn -0.1113 0.3967 0.9112
vn 0.7752 0.6308 -0.0329
vn 0.8989 0.4376 0.0215
vn 0.8806 0.4487 -0.1523
vn -0.6073 -0.7430 -0.2812
vn -0.8806 -0.3149 -0.3540
vn -0.6486 -0.4685 -0.5998
vn -0.6319 0.6411 -0.4355
vn -0.7298 0.6776 -0.0912
vn -0.4431 0.8719 -0.2082
vn 0.6103 -0.6737 -0.4168
vn 0.3394 -0.8009 -0.4933
vn 0.5376 0.8276 -0.1614
vn 0.6049 0.7934 0.0682
vn 0.0318 0.4453 -0.8948
vn -0.3263 0.8570 -0.3989
vn -0.6560 0.6421 -0.3967
vn -0.9388 0.3256 0.1122
vn -0.7971 0.0797 -0.5986
vn -0.9648 0.1132 -0.2376
vn 0.2232 -0.0763 0.9718
vn -0.2887 -0.1009 0.9521
vn 0.2863 -0.3000 0.9100
vn 0.7492 0.5466 -0.3740
vn 0.3391 0.4567 -0.8225
vn 0.8740 0.2838 -0.3944
vn 0.8339 0.5180 0.1903
vn 0.7599 0.6301 0.1598
vn 0.8810 0.4240 -0.2100
vn 0.9978 -0.0621 -0.0227
vn 0.7596 -0.6484 -0.0503
vn 0.9873 -0.0999 -0.1236
vn 0.1681 -0.9840 -0.0588
vn 0.1862 -0.9821 -0.0280
vn 0.8162 0.5104 0.2709
vn 0.3387 0.9060 0.2539
vn 0.3696 0.9264 0.0718
vn -0.9553 -0.2266 0.1900
vn -0.7468 -0.6584 0.0935
vn -0.7297 -0.6812 0.0601
vn -0.9062 0.4218 0.0308
vn -0.7055 0.6945 0.1411
vn -0.8175 0.5554 0.1525
vn -0.6418 0.7508 -0.1560
vn -0.8992 0.4233 -0.1106
vn -0.8911 0.4232 0.1641
vn -0.7689 0.0781 -0.6345
vn -0.9239 -0.0512 -0.3792
vn -0.9196 0.2203 -0.3254
vn -0.7452 -0.1762 -0.6432
vn 0.8292 0.0405 0.5575
vn 0.2339 -0.1518 0.9603
vn -0.8637 0.4205 0.2778
vn -0.9468 0.1151 0.3007
vn -0.8790 0.3689 0.3023
vn -0.9934 0.0544 0.1007
vn -0.9287 0.0474 0.3679
vn -0.8272 -0.5028 0.2507
vn -0.5885 -0.7330 0.3412
vn -0.3860 0.7503 -0.5366
vn -0.4350 0.8931 0.1147
vn -0.4796 0.8747 0.0703
vn -0.6188 0.7823 0.0706
vn -0.1524 -0.9748 0.1626
vn -0.1180 -0.9930 -0.0019
vn 0.0323 -0.9994 -0.0096
vn -0.2013 -0.9789 -0.0342
vn 0.0471 -0.9979 -0.0435
vn 0.0759 0.9971 0.0074
vn -0.2236 0.9747 0.0073
vn -0.2385 0.9570 0.1654
vn 0.0708 0.9787 0.1926
vn -0.8558 0.4551 -0.2460
vn -0.6034 0.2273 0.7643
vn -0.0947 -0.6219 0.7773
vn 0.1557 -0.6150 0.7730
vn -0.7155 0.6910 0.1031
vn -0.7404 -0.6716 -0.0262
vn 0.2298 0.9714 -0.0601
vn -0.0583 0.9861 0.1559
vn -0.0133 0.9504 -0.3107
vn 0.9920 0.1238 -0.0257
vn -0.8922 0.3217 0.3171
vn -0.9592 -0.2829 -0.0002
vn -0.8787 -0.4774 0.0066
vn -0.8289 -0.3184 -0.4599
vn -0.5590 -0.6156 -0.5556
vn -0.6543 -0.2576 -0.7110
vn 0.9987 -0.0491 0.0107
vn 0.9769 0.2103 -0.0375
vn 0.9598 0.2048 0.1918
vn -0.8648 0.1919 0.4640
vn 0.2146 -0.2424 -0.9461
vn 0.5041 -0.4349 -0.7462
vn 0.1851 -0.6366 -0.7487
vn -0.9353 0.1278 0.3299
vn -0.7928 0.5001 0.3484
vn 0.0141 0.1166 0.9931
vn -0.5474 0.3059 0.7790
vn -0.4702 0.0914 0.8778
vn 0.1380 0.8715 -0.4706
vn 0.3295 0.8582 -0.3936
vn -0.0660 0.9669 0.2466
vn 0.5859 0.0963 0.8047
vn 0.3454 -0.3158 0.8837
vn 0.5727 -0.2706 0.7738
vn 0.1021 -0.8050 -0.5844
vn -0.0607 -0.5770 -0.8145
vn -0.3391 -0.0752 0.9377
vn -0.1426 -0.1396 0.9799
vn 0.3675 0.8219 -0.4351
vn -0.3711 0.9189 -0.1339
vn -0.5491 0.1546 -0.8213
vn -0.1460 0.3133 -0.9384
vn -0.2117 0.1153 -0.9705
vn -0.2979 0.9493 -0.1006
vn -0.1584 0.9865 0.0408
vn 0.1287 0.9105 -0.3929
vn -0.2307 -0.9602 0.1572
vn -0.1285 -0.8733 0.4699
vn -0.1947 -0.5124 0.8364
vn 0.0540 -0.9835 0.1724
vn -0.5233 0.4303 -0.7355
vn -0.7382 0.3368 -0.5845
vn 0.9579 0.2870 -0.0125
vn 0.9363 0.3463 -0.0580
vn 0.7917 0.5355 -0.2940
vn -0.9485 0.3165 -0.0142
vn -0.8724 0.3617 0.3286
vn -0.9320 0.3076 0.1915
vn -0.9306 0.3538 0.0942
vn 0.9727 0.1253 -0.1952
vn 0.9032 0.4092 0.1293
vn 0.9843 0.1658 0.0601
vn 0.2646 0.5353 -0.8021
vn 0.5332 0.5455 -0.6466
vn 0.2366 0.3420 -0.9094
vn 0.7771 0.5171 -0.3588
vn -0.1887 0.6648 0.7227
vn 0.1687 0.7245 0.6683
vn 0.1325 0.7291 0.6715
vn -0.4748 0.7057 0.5259
vn -0.1600 0.9072 0.3891
vn -0.3304 0.9236 0.1945
vn -0.8581 0.5111 0.0496
vn -0.8998 0.4212 0.1134
vn -0.6507 -0.0352 0.7586
vn 0.9938 0.0900 0.0656
vn 0.9974 -0.0712 0.0101
vn 0.9999 0.0084 0.0123
vn -0.9965 0.0188 -0.0821
vn 0.7535 -0.3916 -0.5281
vn 0.9597 -0.1524 -0.2360
vn 0.9257 -0.3264 -0.1910
vn -0.2033 -0.1904 -0.9604
vn -0.2984 -0.4851 -0.8220
vn -0.5184 0.5089 -0.6873
vn 0.2701 -0.3174 -0.9090
vn -0.8787 0.4086 -0.2468
vn 0.3509 0.7982 -0.4896
vn -0.8459 0.5171 0.1306
vn -0.6466 0.7617 0.0416
vn -0.9647 0.0736 -0.2528
vn -0.2877 0.4985 -0.8178
vn 0.0268 0.5258 -0.8502
vn 0.8180 0.2644 -0.5109
vn -0.8163 0.0860 -0.5712
vn -0.8655 -0.3900 -0.3143
vn -0.7748 -0.2182 -0.5934
vn 0.2964 -0.1196 0.9476
vn 0.0632 0.6214 0.7809
vn 0.3379 0.1688 0.9259
vn 0.6068 -0.3721 0.7024
vn 0.8476 -0.3511 -0.3979
vn 0.8013 0.5948 0.0643
vn 0.8594 -0.0258 0.5107
vn 0.8214 -0.0495 -0.5682
vn -0.9161 -0.0995 -0.3884
vn -0.9939 0.1085 -0.0201
vn -0.0786 0.9801 -0.1823
vn 0.4235 0.8774 -0.2253
vn -0.9434 0.3317 0.0043
vn -0.1339 0.5431 -0.8289
vn 0.1948 0.1749 -0.9651
vn 0.0397 0.9548 0.2947
vn 0.6112 0.1426 0.7785
vn 0.7681 0.2020 0.6076
vn 0.5425 0.3150 0.7788
vn 0.0183 0.4238 0.9056
vn -0.2126 0.5114 0.8326
vn -0.2228 0.3763 0.8993
vn -0.4676 0.4487 0.7616
vn -0.6390 0.2425 0.7300
vn 0.2857 0.2945 0.9120
vn 0.2994 0.1163 0.9470
vn 0.7327 0.2149 0.6458
vn 0.6150 0.0547 0.7866
vn 0.7717 0.1707 0.6127
vn -0.7160 0.6831 0.1437
vn -0.9055 0.4116 0.1035
vn 0.5275 0.4548 0.7175
vn 0.1474 0.4605 0.8753
vn -0.1841 0.8713 0.4550
vn 0.1854 0.9704 -0.1549
vn 0.2266 0.8601 -0.4571
vn 0.4382 -0.0926 0.8941
vn 0.5479 -0.0151 0.8364
vn 0.4735 -0.2878 0.8324
vn 0.5482 0.8085 -0.2142
vn -0.2151 -0.9330 0.2884
vn -0.4493 -0.6564 0.6060
vn -0.9620 -0.2619 0.0775
vn -0.9848 0.1626 0.0605
vn 0.0733 -0.4141 0.9073
vn 0.1267 -0.7029 0.6999
vn 0.2509 -0.5605 0.7892
vn -0.8229 0.3304 -0.4623
vn 0.3734 0.7854 -0.4937
vn -0.2972 0.2887 0.9101
vn -0.3440 0.4328 0.8332
vn -0.4762 0.1346 0.8690
vn 0.1116 -0.2479 0.9623
vn 0.1156 -0.8434 0.5247
vn -0.7927 -0.0346 0.6086
vn -0.0423 -0.0429 0.9982
vn -0.0703 -0.0663 0.9953
vn 0.1211 -0.5296 0.8395
vn -0.3435 -0.5745 0.7429
vn 0.2994 -0.7103 0.6371
vn -0.9187 -0.2388 0.3147
vn -0.9803 -0.0927 0.1744
vn -0.9405 -0.1281 0.3146
vn 0.9953 -0.0920 -0.0304
vn 0.9445 -0.2610 -0.1994
vn 0.8354 -0.4734 -0.2793
vn 0.4529 0.8829 -0.1244
vn 0.1772 0.9759 0.1274
vn -0.4357 -0.5617 -0.7033
vn -0.2339 -0.8689 -0.4363
vn 0.1358 -0.4110 0.9015
vn 0.1982 -0.9609 0.1932
vn 0.9581 -0.1838 0.2198
vn 0.9908 0.0056 0.1352
vn -0.7774 0.5964 0.2002
vn -0.3279 -0.9439 -0.0396
vn 0.5436 -0.7911 -0.2803
vn -0.7992 -0.4412 0.4082
vn -0.9191 0.0257 0.3931
vn -0.7645 -0.6245 0.1596
vn 0.6199 -0.5857 0.5222
vn 0.7076 -0.6730 0.2154
vn 0.7264 -0.2858 0.6251
vn 0.6592 -0.7239 -0.2038
vn 0.6273 0.7155 0.3075
vn 0.5514 0.0660 -0.8316
vn 0.8151 0.0140 -0.5791
vn 0.5154 0.3272 -0.7920
vn 0.9931 0.1155 0.0223
vn 0.9576 0.1728 0.2304
vn -0.9308 -0.0637 0.3599
vn -0.5544 -0.8029 0.2193
vn -0.6507 -0.7200 -0.2413
vn -0.8892 0.1767 0.4220
vn -0.9498 -0.1728 0.2609
vn 0.9941 -0.0517 0.0952
vn 0.9943 -0.1062 0.0080
vn -0.0524 -0.9903 -0.1290
vn -0.5395 -0.2227 -0.8120
vn -0.0727 0.8704 -0.4870
vn -0.1304 0.9518 -0.2778
vn 0.1325 0.9553 0.2643
vn -0.1950 -0.6488 0.7355
vn -0.1516 -0.2005 0.9679
vn 0.2178 0.1158 -0.9691
vn -0.1897 -0.6794 -0.7088
vn 0.0216 -0.9046 -0.4258
vn 0.7701 -0.1196 0.6266
vn 0.8817 0.3032 0.3616
vn -0.9133 0.3765 0.1555
vn -0.3995 -0.9167 -0.0004
vn -0.6559 -0.7497 -0.0878
vn -0.1260 0.7397 -0.6610
vn -0.6890 0.1399 -0.7112
vn -0.2593 0.3254 0.9093
vn -0.8469 0.4392 0.2997
vn -0.8405 0.4860 0.2396
vn -0.8772 0.3981 -0.2683
vt 0.180208 0.373804
vt 0.081519 0.396238
vt 0.226265 0.277088
vt 0.316689 0.912741
vt 0.328264 0.892394
vt 0.242703 0.877365
vt 0.354460 0.503502
vt 0.488199 0.414262
vt 0.258813 0.407401
vt 0.787285 0.448482
vt 0.872040 0.491653
vt 0.881196 0.533521
vt 0.490403 0.859735
vt 0.581207 0.786553
vt 0.465627 0.835953
vt 0.104607 0.370018
vt 0.064319 0.418868
vt 0.073128 0.431854
vt 0.078727 0.777942
vt 0.091790 0.743487
vt 0.142689 0.822652
vt 0.344255 0.544694
vt 0.292159 0.535896
vt 0.405212 0.900943
vt 0.480576 0.872813
vt 0.488425 0.723423
vt 0.469764 0.710488
vt 0.458582 0.683677
vt 0.469329 0.529754
vt 0.490061 0.595665
vt 0.478868 0.636539
vt 0.880650 0.374462
vt 0.806203 0.320882
vt 0.850692 0.274389
vt 0.805326 0.743188
vt 0.851818 0.770685
vt 0.845042 0.718300
vt 0.735303 0.640770
vt 0.699736 0.704154
vt 0.774035 0.664808
vt 0.291997 0.427853
vt 0.258361 0.339850
vt 0.264713 0.456289
vt 0.840584 0.438974
vt 0.874994 0.378578
vt 0.844958 0.373314
vt 0.682760 0.736499
vt 0.622861 0.777245
vt 0.450656 0.886861
vt 0.385618 0.220643
vt 0.317456 0.229943
vt 0.407275 0.162577
vt 0.372884 0.558145
vt 0.288302 0.664398
vt 0.386778 0.506733
vt 0.406592 0.682357
vt 0.391333 0.626327
vt 0.439048 0.621627
vt 0.023129 0.609072
vt 0.035379 0.518546
vt 0.026120 0.615177
vt 0.041307 0.516638
vt 0.629040 0.257260
vt 0.569012 0.346699
vt 0.619235 0.359166
vt 0.305218 0.443021
vt 0.286887 0.383186
vt 0.386535 0.443777
vt 0.173923 0.457684
vt 0.581045 0.454061
vt 0.596526 0.401464
vt 0.672536 0.364795
vt 0.118945 0.820951
vt 0.347252 0.764771
vt 0.213827 0.808596
vt 0.318363 0.716935
vt 0.625054 0.266936
vt 0.642893 0.363438
vt 0.744659 0.372142
vt 0.645139 0.420912
vt 0.558819 0.386807
vt 0.371156 0.340499
vt 0.362228 0.899704
vt 0.304224 0.888657
vt 0.398544 0.827247
vt 0.450070 0.854336
vt 0.057309 0.699001
vt 0.765151 0.222583
vt 0.776008 0.186177
vt 0.800897 0.202815
vt 0.139465 0.696719
vt 0.145787 0.327097
vt 0.542505 0.744386
vt 0.443867 0.819437
vt 0.510434 0.743627
vt 0.341226 0.564992
vt 0.458969 0.498775
vt 0.527106 0.488695
vt 0.518684 0.514801
vt 0.490297 0.523233
vt 0.492678 0.481990
vt 0.473372 0.508563
vt 0.400673 0.723596
vt 0.413338 0.773378
vt 0.319728 0.616468
vt 0.442045 0.392108
vt 0.185460 0.645647
vt 0.265147 0.647208
vt 0.191483 0.606028
vt 0.694790 0.440524
vt 0.634591 0.478693
vt 0.668331 0.222609
vt 0.615106 0.315512
vt 0.638292 0.151077
vt 0.833027 0.782642
vt 0.742134 0.783103
vt 0.801297 0.773240
vt 0.915409 0.534385
vt 0.903267 0.482610
vt 0.911442 0.504183
vt 0.178402 0.511163
vt 0.143107 0.591015
vt 0.734921 0.349161
vt 0.732107 0.268460
vt 0.650096 0.756788
vt 0.428917 0.710556
vt 0.350830 0.231724
vt 0.046603 0.657142
vt 0.124857 0.730540
vt 0.119525 0.668797
vt 0.631512 0.741262
vt 0.728527 0.771825
vt 0.682709 0.779204
vt 0.709516 0.378134
vt 0.745075 0.363900
vt 0.781346 0.383033
vt 0.744236 0.250930
vt 0.058471 0.734402
vt 0.029223 0.674125
vt 0.677048 0.678476
vt 0.870888 0.678571
vt 0.856082 0.603865
vt 0.807051 0.645192
vt 0.088180 0.584014
vt 0.643099 0.606191
vt 0.685098 0.521468
vt 0.710837 0.518650
vt 0.354430 0.843912
vt 0.281605 0.780083
vt 0.677288 0.626852
vt 0.620206 0.626333
vt 0.216968 0.842118
vt 0.299926 0.855677
vt 0.190268 0.748030
vt 0.347967 0.865708
vt 0.814037 0.646075
vt 0.863101 0.666537
vt 0.846060 0.701272
vt 0.718815 0.633543
vt 0.758952 0.687270
vt 0.692740 0.690944
vt 0.101871 0.636884
vt 0.427195 0.520128
vt 0.622984 0.376367
vt 0.408916 0.601874
vt 0.326453 0.653409
vt 0.362988 0.639956
vt 0.070658 0.499972
vt 0.321488 0.653896
vt 0.163517 0.741559
vt 0.131192 0.677510
vt 0.124837 0.629413
vt 0.118854 0.578907
vt 0.400512 0.809168
vt 0.455075 0.766542
vt 0.446248 0.759960
vt 0.553435 0.748782
vt 0.538450 0.667144
vt 0.485397 0.709873
vt 0.464390 0.697275
vt 0.123944 0.807102
vt 0.159379 0.828144
vt 0.669450 0.606567
vt 0.339716 0.774512
vt 0.379577 0.851270
vt 0.471440 0.534494
vt 0.480310 0.490541
vt 0.463703 0.690447
vt 0.922637 0.780624
vt 0.850875 0.736473
vt 0.884290 0.723598
vt 0.911178 0.766316
vt 0.910278 0.786240
vt 0.960748 0.866499
vt 0.897282 0.725571
vt 0.883791 0.747439
vt 0.484996 0.639555
vt 0.515664 0.638616
vt 0.600973 0.753142
vt 0.534984 0.773744
vt 0.558430 0.625835
vt 0.875278 0.807617
vt 0.888115 0.804014
vt 0.862441 0.783525
vt 0.910957 0.616339
vt 0.902279 0.654373
vt 0.899515 0.667662
vt 0.759696 0.532105
vt 0.791026 0.528500
vt 0.767589 0.603202
vt 0.739666 0.549735
vt 0.739348 0.440891
vt 0.902968 0.585899
vt 0.908857 0.540682
vt 0.906417 0.609581
vt 0.908967 0.573053
vt 0.911107 0.563497
vt 0.601246 0.656915
vt 0.575467 0.608940
vt 0.900660 0.639970
vt 0.892850 0.616149
vt 0.780792 0.734237
vt 0.758156 0.785186
vt 0.641569 0.764418
vt 0.884679 0.482618
vt 0.904831 0.543265
vt 0.895578 0.510433
vt 0.475596 0.796618
vt 0.695397 0.374149
vt 0.731111 0.368037
vt 0.502570 0.441645
vt 0.505058 0.496341
vt 0.852500 0.435531
vt 0.808995 0.399873
vt 0.866625 0.455293
vt 0.517949 0.463176
vt 0.491795 0.602902
vt 0.778344 0.760899
vt 0.724352 0.213200
vt 0.723922 0.229663
vt 0.764624 0.273169
vt 0.726790 0.182145
vt 0.720820 0.169142
vt 0.744550 0.206835
vt 0.804957 0.243777
vt 0.813787 0.294875
vt 0.554119 0.101030
vt 0.697294 0.104088
vt 0.637744 0.075250
vt 0.819400 0.233069
vt 0.358072 0.306095
vt 0.492967 0.176764
vt 0.464710 0.305242
vt 0.273813 0.607012
vt 0.208823 0.486184
vt 0.117183 0.575332
vt 0.670482 0.727117
vt 0.587621 0.755886
vt 0.094764 0.463106
vt 0.130929 0.404778
vt 0.837004 0.408836
vt 0.845353 0.373874
vt 0.822779 0.259505
vt 0.325061 0.408683
vt 0.391446 0.528971
vt 0.217728 0.566947
vt 0.188225 0.318102
vt 0.343831 0.543410
vt 0.106586 0.519609
vt 0.588575 0.081467
vt 0.577182 0.152793
vt 0.513429 0.103571
vt 0.361688 0.241884
vt 0.317678 0.272659
vt 0.335099 0.343296
vt 0.849778 0.274050
vt 0.819055 0.232820
vt 0.859553 0.302027
vt 0.193092 0.328276
vt 0.143860 0.389966
vt 0.173480 0.420023
vt 0.664278 0.766158
vt 0.437780 0.177873
vt 0.260218 0.696625
vt 0.318194 0.700575
vt 0.271035 0.761404
vt 0.317473 0.701729
vt 0.515502 0.636999
vt 0.605404 0.586456
vt 0.519477 0.522845
vt 0.569910 0.350180
vt 0.547001 0.416580
vt 0.570047 0.421468
vt 0.588183 0.413583
vt 0.556631 0.420693
vt 0.627841 0.394525
vt 0.521417 0.425073
vt 0.506589 0.321981
vt 0.292129 0.346719
vt 0.440824 0.676187
vt 0.314063 0.667398
vt 0.196744 0.356383
vt 0.060007 0.560225
vt 0.211528 0.882576
vt 0.258342 0.900491
vt 0.801694 0.202766
vt 0.775319 0.186988
vt 0.540810 0.807052
vt 0.741366 0.380580
vt 0.817278 0.387409
vt 0.182367 0.683691
vt 0.143239 0.499238
vt 0.177210 0.443609
vt 0.072246 0.499140
vt 0.679608 0.112119
vt 0.601124 0.104183
vt 0.534633 0.184334
vt 0.689274 0.150056
vt 0.388015 0.444120
vt 0.874626 0.377046
vt 0.883204 0.557712
vt 0.900039 0.605617
vt 0.183260 0.510891
vt 0.640434 0.387010
vt 0.556237 0.419921
vt 0.721677 0.169953
vt 0.887857 0.443143
vt 0.840230 0.438542
vt 0.660724 0.187141
vt 0.738086 0.378041
vt 0.165038 0.855507
vt 0.590115 0.732158
vt 0.484809 0.555732
vt 0.735566 0.637600
vt 0.787475 0.594208
vt 0.518806 0.780214
vt 0.530616 0.292908
vt 0.425716 0.848020
vt 0.274777 0.781850
vt 0.329221 0.783729
vt 0.870629 0.592910
vt 0.566220 0.501348
vt 0.573137 0.546657
vt 0.479902 0.562833
vt 0.741214 0.381249
s 1
usemtl dingus.001
f 180/1/1 3/2/2 50/3/3
f 100/4/4 158/5/5 171/6/6
f 14/7/7 107/8/8 97/9/9
f 146/10/10 216/11/11 247/12/12
f 45/13/13 163/14/14 169/15/15
f 4/16/16 62/17/17 1/18/18
f 6/19/19 9/20/20 10/21/21
f 13/22/22 14/7/7 11/23/23
f 45/13/13 17/24/24 47/25/25
f 257/26/26 130/27/27 25/28/28
f 26/29/29 27/30/30 205/31/31
f 176/32/32 289/33/33 287/34/34
f 264/35/35 35/36/36 285/37/37
f 160/38/38 37/39/39 36/40/40
f 39/41/41 43/42/42 42/43/43
f 109/44/44 43/45/42 40/46/45
f 45/13/13 47/25/25 44/47/46
f 48/48/47 47/25/25 16/49/48
f 49/50/49 52/51/50 54/52/51
f 57/53/52 60/54/53 198/55/54
f 55/56/55 58/57/56 59/58/57
f 61/59/58 173/60/59 186/61/60
f 172/62/61 173/60/59 61/59/58
f 176/63/32 177/64/62 76/65/63
f 87/66/64 86/67/65 83/68/66
f 84/69/67 86/67/65 87/66/64
f 212/70/68 284/71/69 96/72/70
f 10/21/21 167/73/71 6/19/19
f 133/74/72 8/75/73 56/76/74
f 20/77/75 51/78/76 136/79/77
f 51/78/76 53/80/78 136/79/77
f 107/8/8 109/81/44 108/82/79
f 99/83/80 124/84/81 132/85/82 104/86/83
f 9/20/20 6/19/19 168/87/84
f 291/88/85 102/89/86 101/90/87
f 7/91/88 198/55/54 60/54/53
f 5/92/89 50/3/3 3/2/2
f 105/93/90 135/94/91 129/95/92
f 39/41/41 42/43/43 88/96/93
f 150/97/94 80/98/95 196/99/96
f 252/100/97 217/101/98 197/102/99
f 87/66/64 83/68/66 198/55/54
f 90/103/100 199/104/101 153/105/102
f 83/68/66 81/106/103 150/97/94
f 183/107/104 63/108/105 112/109/106
f 212/70/68 95/110/107 282/111/108
f 138/112/109 77/113/110 18/114/111
f 224/115/112 263/116/113 261/117/114
f 278/118/115 215/119/116 221/120/117
f 132/85/82 135/94/91 104/86/83
f 98/121/118 114/122/119 112/109/106
f 110/123/120 290/124/121 289/33/33
f 108/82/79 97/9/9 107/8/8
f 129/95/92 131/125/122 105/93/90
f 138/112/109 290/124/121 110/123/120
f 134/126/123 129/95/92 135/94/91
f 53/127/78 108/82/79 109/81/44
f 138/112/109 110/123/120 77/113/110
f 143/128/124 115/129/125 144/130/126
f 254/131/127 213/132/128 145/133/129
f 147/134/130 229/135/131 228/136/132
f 130/27/27 129/95/92 134/126/123
f 136/79/77 126/137/133 20/77/75
f 6/19/19 202/138/134 187/139/135
f 44/47/46 153/140/102 163/14/14
f 240/141/136 194/142/137 159/143/138
f 192/144/139 168/87/84 186/61/60
f 239/145/140 235/146/141 274/147/142
f 169/15/15 199/148/101 188/149/143
f 153/140/102 149/150/144 195/151/145
f 154/152/146 193/153/147 191/154/148
f 148/155/149 158/5/5 17/24/24
f 159/143/138 160/38/38 36/40/40
f 163/14/14 45/13/13 44/47/46
f 225/156/150 165/157/151 286/158/152
f 238/159/153 230/160/154 226/161/155
f 157/162/156 168/87/84 192/144/139
f 150/97/94 162/163/157 198/55/54
f 77/113/110 110/123/120 140/164/158
f 178/165/159 181/166/160 92/167/161
f 174/168/162 180/1/1 84/69/67
f 175/169/163 69/170/164 65/171/165
f 184/172/166 114/122/119 141/173/167
f 94/174/168 218/175/169 242/176/170
f 231/177/171 130/27/27 257/26/26
f 244/178/172 185/179/173 269/180/174
f 150/97/94 198/55/54 83/68/66
f 186/61/60 187/139/135 61/59/58
f 115/129/125 156/181/175 155/182/176
f 194/183/137 195/151/145 149/150/144
f 68/184/177 193/153/147 148/185/149
f 151/186/178 197/102/99 248/187/179
f 25/28/28 258/188/180 257/26/26
f 93/189/181 260/190/182 164/191/183
f 270/192/184 220/193/185 206/194/186
f 214/195/187 116/196/188 220/193/185
f 130/27/27 231/177/171 129/95/92
f 266/197/189 267/198/190 269/180/174
f 267/198/190 244/178/172 269/180/174
f 204/199/191 185/179/173 244/178/172
f 204/199/191 268/200/192 185/179/173
f 267/198/190 246/201/193 244/178/172
f 205/31/31 258/188/180 25/28/28
f 224/115/112 265/202/194 203/203/195
f 35/36/36 224/115/112 203/203/195
f 270/192/184 214/195/187 220/193/185
f 93/189/181 270/192/184 206/194/186
f 164/191/183 214/195/187 270/192/184
f 116/196/188 203/203/195 220/193/185
f 116/196/188 214/195/187 240/141/136
f 285/37/37 116/196/188 240/141/136
f 224/115/112 261/117/114 259/204/196
f 259/204/196 261/117/114 260/190/182
f 260/190/182 93/189/181 259/204/196
f 231/177/171 257/26/26 268/200/192
f 258/188/180 218/175/169 257/26/26
f 251/205/197 272/206/198 275/207/199
f 256/208/200 201/209/201 237/210/202
f 236/211/203 256/208/200 237/210/202
f 274/147/142 95/110/107 255/212/204
f 190/213/205 117/214/206 278/118/115
f 249/215/207 208/216/208 72/217/209
f 239/145/140 241/218/210 245/219/211
f 242/176/170 269/180/174 185/179/173
f 242/176/170 258/188/180 269/180/174
f 242/176/170 218/175/169 258/188/180
f 233/220/212 286/158/152 276/221/213
f 238/159/153 239/145/140 236/211/203
f 225/156/150 286/158/152 283/222/214
f 260/190/182 275/207/199 164/191/183
f 260/190/182 286/158/152 275/207/199
f 237/210/202 225/156/150 238/159/153
f 241/218/210 244/178/172 246/201/193
f 276/221/213 165/157/151 225/156/150
f 236/211/203 255/212/204 256/208/200
f 228/136/132 146/10/10 255/212/204
f 254/131/127 145/133/129 204/199/191
f 247/12/12 117/214/206 190/213/205
f 262/223/215 263/116/113 145/133/129
f 277/224/216 263/116/113 131/125/122
f 261/117/114 286/158/152 260/190/182
f 261/117/114 263/116/113 262/223/215
f 75/225/217 279/226/218 222/227/219
f 224/115/112 259/204/196 265/202/194
f 206/194/186 203/203/195 265/202/194
f 207/228/220 218/175/169 94/174/168
f 207/228/220 268/200/192 218/175/169
f 268/200/192 257/26/26 218/175/169
f 96/72/70 281/229/221 227/230/222
f 248/187/179 209/231/223 250/232/224
f 278/118/115 208/216/208 190/213/205
f 232/233/225 216/11/11 146/10/10
f 216/11/11 215/119/116 117/214/206
f 232/233/225 118/234/226 223/235/227
f 95/110/107 96/72/70 255/212/204
f 204/199/191 244/178/172 254/131/127
f 262/223/215 213/132/128 261/117/114
f 226/161/155 241/218/210 238/159/153
f 212/70/68 96/72/70 95/110/107
f 284/71/69 212/70/68 209/236/223
f 222/227/219 279/226/218 221/120/117
f 266/197/189 27/30/30 243/237/228
f 268/200/192 242/176/170 185/179/173
f 268/200/192 207/228/220 242/176/170
f 207/228/220 94/174/168 242/176/170
f 265/202/194 259/204/196 206/194/186
f 220/193/185 203/203/195 206/194/186
f 93/189/181 206/194/186 259/204/196
f 34/238/229 131/125/122 224/115/112
f 204/199/191 231/177/171 268/200/192
f 293/239/230 294/240/231 138/112/109
f 294/240/231 290/124/121 138/112/109
f 292/241/232 290/124/121 294/240/231
f 296/242/233 128/243/234 297/244/235
f 291/88/85 298/245/236 288/246/237
f 20/247/75 127/248/238 24/249/239
f 298/245/236 295/250/240 287/34/34
f 11/23/23 98/121/118 112/109/106 63/108/105
f 145/133/129 263/116/113 277/224/216
f 82/251/241 49/50/49 19/252/242 78/253/243
f 89/254/244 38/255/245 12/256/246 65/171/165
f 33/257/247 48/48/47 103/258/248
f 1/18/18 119/259/249 121/260/250 4/16/16
f 219/261/251 75/225/217 222/227/219
f 136/79/77 40/262/45 29/263/252 126/137/133
f 28/264/253 39/41/41 88/96/93 70/265/254
f 16/49/48 99/83/80 104/86/83
f 7/91/88 157/162/156 170/266/255 198/55/54
f 4/16/16 5/92/89 3/2/2 62/17/17
f 2/267/256 5/92/89 4/16/16
f 9/20/20 7/91/88 8/75/73 10/21/21
f 14/7/7 13/268/22 12/256/246 15/269/257
f 22/270/258 24/249/239 18/114/111 21/271/259
f 16/49/48 47/25/25 17/24/24
f 22/270/258 21/271/259 19/252/242 23/272/260
f 22/270/258 23/272/260 20/247/75 24/249/239
f 31/273/261 32/274/262 28/264/253 30/275/263
f 31/276/261 295/277/240 29/263/252 32/278/262
f 36/40/40 37/39/39 264/35/35 285/37/37
f 109/279/44 107/280/8 41/281/264 43/42/42
f 43/42/42 41/281/264 38/255/245 42/43/43
f 52/51/50 50/3/3 2/267/256 53/127/78
f 46/282/265 47/25/25 48/48/47
f 44/47/46 47/25/25 46/282/265
f 53/127/78 51/283/76 54/52/51 52/51/50
f 58/57/56 57/53/52 162/163/157 59/58/57
f 57/53/52 58/57/56 60/54/53
f 55/56/55 56/76/74 60/54/53 58/57/56
f 175/169/163 63/108/105 66/284/266 67/285/267
f 186/61/60 173/60/59 174/168/162
f 67/285/267 66/284/266 64/286/268 68/184/177
f 68/184/177 188/149/143 69/170/164 67/287/267
f 178/165/159 71/288/269 74/289/270 177/290/62
f 175/169/163 67/287/267 69/170/164
f 177/291/62 74/292/270 72/293/209 75/294/217
f 79/295/271 140/164/158 253/296/272 280/297/273
f 76/65/63 177/64/62 75/294/217
f 140/164/158 79/295/271 77/113/110
f 80/98/95 79/295/271 280/297/273 217/101/98
f 79/295/271 80/98/95 150/97/94 81/106/103
f 81/106/103 179/298/274 77/113/110 79/295/271
f 84/69/67 180/1/1 85/299/275 86/67/65
f 181/166/160 90/103/100 91/300/276 92/167/161
f 90/103/100 181/166/160 182/301/277
f 4/16/16 121/260/250 137/302/278 2/267/256
f 266/197/189 205/31/31 27/30/30
f 119/259/249 1/18/18 172/62/61 142/303/279
f 18/114/111 24/249/239 127/248/238 138/112/109
f 100/4/4 123/304/280 125/305/281
f 100/4/4 125/305/281 99/83/80
f 101/306/87 102/307/86 126/137/133
f 134/126/123 133/74/72 56/76/74 55/56/55
f 135/94/91 105/93/90 103/258/248 106/308/282
f 139/309/283 110/123/120 111/310/284 219/261/251
f 104/86/83 135/94/91 106/308/282
f 289/33/33 111/310/284 110/123/120
f 144/130/126 115/129/125 191/154/148 113/311/285
f 113/311/285 183/107/104 184/172/166 144/130/126
f 168/87/84 157/162/156 7/91/88 9/20/20
f 254/131/127 244/178/172 241/218/210
f 120/312/286 98/121/118 122/313/287
f 17/24/24 100/4/4 99/83/80 16/49/48
f 13/268/22 175/169/163 65/171/165 12/256/246
f 100/4/4 17/24/24 158/5/5
f 11/23/23 63/108/105 175/169/163 13/22/22
f 15/269/257 41/281/264 107/280/8 14/314/7
f 38/255/245 41/281/264 15/269/257 12/256/246
f 37/39/39 46/282/265 48/48/47 33/257/247
f 160/38/38 44/47/46 46/282/265 37/39/39
f 295/315/240 31/316/261 30/317/263 287/318/34
f 70/265/254 73/319/288 30/275/263 28/264/253
f 101/306/87 126/137/133 29/263/252 295/277/240
f 55/56/55 25/28/28 130/27/27 134/126/123
f 21/271/259 179/298/274 78/253/243 19/252/242
f 77/113/110 179/298/274 21/271/259 18/114/111
f 23/272/260 54/52/51 51/283/76 20/247/75
f 19/252/242 49/50/49 54/52/51 23/272/260
f 7/91/88 60/54/53 56/76/74 8/75/73
f 32/278/262 29/263/252 40/262/45 43/320/42
f 39/41/41 28/264/253 32/274/262 43/42/42
f 25/28/28 55/56/55 59/58/57 205/31/31
f 2/267/256 50/3/3 5/92/89
f 26/29/29 205/31/31 59/58/57 162/163/157
f 52/51/50 85/299/275 180/1/1 50/3/3
f 53/127/78 2/267/256 137/302/278
f 49/50/49 82/251/241 85/299/275 52/51/50
f 72/217/209 74/321/270 194/142/137 189/322/289
f 42/43/43 38/255/245 89/254/244
f 62/17/17 172/62/61 1/18/18
f 68/184/177 64/286/268 193/153/147
f 71/288/269 195/151/145 194/183/137 74/289/270
f 182/301/277 69/170/164 188/149/143 90/103/100
f 152/323/290 84/69/67 87/66/64
f 153/105/102 91/300/276 90/103/100
f 65/171/165 69/170/164 182/301/277 89/254/244
f 78/253/243 179/298/274 85/299/275 82/251/241
f 83/68/66 86/67/65 81/106/103
f 92/167/161 91/300/276 71/288/269 178/165/159
f 174/168/162 3/2/2 180/1/1
f 253/296/272 147/134/130 211/324/291
f 70/265/254 88/96/93 181/166/160 178/165/159
f 66/284/266 113/311/285 191/154/148 64/286/268
f 248/187/179 217/101/98 280/297/273 210/325/292
f 11/23/23 14/7/7 122/313/287 98/121/118
f 97/9/9 122/313/287 14/7/7
f 48/48/47 16/49/48 104/86/83 106/308/282
f 124/84/81 99/83/80 125/305/281
f 126/137/133 102/307/86 128/326/234
f 34/238/229 33/257/247 131/125/122
f 219/261/251 111/310/284 76/327/63 75/225/217
f 106/308/282 103/258/248 48/48/47
f 40/262/45 136/79/77 109/328/44
f 223/235/227 222/227/219 221/120/117 215/119/116
f 102/89/86 291/88/85 297/244/235 128/243/234
f 247/12/12 216/11/11 117/214/206
f 33/257/247 103/258/248 105/93/90 131/125/122
f 296/242/233 293/239/230 138/112/109 127/248/238 128/243/234
f 141/173/167 114/122/119 98/121/118 120/312/286
f 97/9/9 137/302/278 121/260/250 122/313/287
f 122/313/287 121/260/250 119/259/249 120/312/286
f 123/304/280 167/73/71 10/21/21 125/305/281
f 125/305/281 10/21/21 8/75/73 124/84/81
f 128/326/234 127/329/238 20/77/75 126/137/133
f 129/95/92 231/177/171 277/224/216 131/125/122
f 135/94/91 132/85/82 133/74/72 134/126/123
f 110/123/120 139/309/283 253/296/272 140/164/158
f 136/79/77 53/80/78 109/328/44
f 53/127/78 137/302/278 108/82/79
f 144/130/126 184/172/166 142/303/279 143/128/124
f 120/312/286 119/259/249 142/303/279 141/173/167
f 226/161/155 230/160/154 213/132/128
f 253/296/272 139/330/283 229/135/131
f 132/85/82 124/84/81 8/75/73 133/74/72
f 137/302/278 97/9/9 108/82/79
f 166/331/293 171/6/6 154/152/146 155/182/176
f 167/73/71 123/304/280 166/331/293
f 87/66/64 198/55/54 170/266/255 152/323/290
f 155/182/176 156/181/175 166/331/293
f 153/140/102 199/332/101 163/14/14
f 161/333/294 26/29/29 150/97/94 252/100/97
f 160/334/38 159/335/138 194/183/137 149/150/144
f 187/139/135 186/61/60 168/87/84 6/19/19
f 148/185/149 193/153/147 158/5/5
f 17/24/24 45/13/13 169/15/15 148/155/149
f 240/141/136 159/143/138 36/40/40 285/37/37
f 33/257/247 34/238/229 264/35/35 37/39/39
f 27/30/30 26/29/29 161/333/294
f 57/53/52 198/55/54 162/163/157
f 123/304/280 100/4/4 171/6/6 166/331/293
f 156/181/175 202/138/134 167/73/71 166/331/293
f 192/144/139 152/323/290 170/266/255 157/162/156
f 6/19/19 167/73/71 202/138/134
f 160/334/38 149/150/144 153/140/102 44/47/46
f 169/15/15 163/14/14 199/336/101
f 193/153/147 154/152/146 171/6/6 158/5/5
f 276/221/213 286/158/152 165/157/151
f 176/32/32 76/327/63 111/310/284 289/33/33
f 150/97/94 26/29/29 162/163/157
f 142/303/279 184/172/166 141/173/167
f 63/108/105 183/107/104 113/311/285 66/284/266
f 179/298/274 81/106/103 86/67/65 85/299/275
f 142/303/279 172/62/61 61/59/58 143/128/124
f 184/172/166 183/107/104 112/109/106 114/122/119
f 42/43/43 89/254/244 182/301/277 181/166/160
f 73/319/288 70/265/254 178/165/159 177/290/62
f 88/96/93 42/43/43 181/166/160
f 173/60/59 62/17/17 3/2/2 174/168/162
f 176/63/32 73/337/288 177/64/62
f 195/151/145 71/288/269 91/300/276 153/105/102
f 172/62/61 62/17/17 173/60/59
f 191/154/148 193/153/147 64/286/268
f 192/144/139 174/168/162 84/69/67 152/323/290
f 188/149/143 199/104/101 90/103/100
f 143/128/124 61/59/58 187/139/135 202/138/134
f 274/147/142 235/146/141 95/110/107
f 174/168/162 192/144/139 186/61/60
f 156/181/175 115/129/125 143/128/124 202/138/134
f 155/182/176 154/152/146 191/154/148 115/129/125
f 148/155/149 169/338/15 188/339/143 68/340/177
f 271/341/295 247/12/12 190/213/205
f 250/232/224 200/342/296 234/343/297
f 251/205/197 249/215/207 272/206/198
f 252/100/97 150/97/94 196/99/96
f 240/141/136 189/322/289 194/142/137
f 266/197/189 269/180/174 258/188/180 205/31/31
f 201/209/201 247/12/12 271/341/295
f 116/196/188 35/36/36 203/203/195
f 267/198/190 266/197/189 243/237/228
f 267/198/190 243/237/228 246/201/193
f 35/36/36 264/35/35 34/238/229 224/115/112
f 243/237/228 273/344/298 245/219/211 246/201/193
f 93/189/181 164/191/183 270/192/184
f 233/220/212 251/205/197 275/207/199
f 190/213/205 251/205/197 233/220/212
f 151/186/178 248/187/179 250/232/224
f 200/342/296 235/146/141 234/343/297
f 271/341/295 190/213/205 276/221/213
f 236/211/203 274/147/142 255/212/204
f 189/322/289 249/215/207 72/217/209
f 245/219/211 241/218/210 246/201/193
f 234/343/297 239/145/140 245/219/211
f 234/343/297 235/146/141 239/145/140
f 273/344/298 250/232/224 234/343/297 245/219/211
f 240/141/136 214/195/187 272/206/198
f 250/232/224 273/344/298 151/186/178
f 151/186/178 243/237/228 27/30/30 161/333/294
f 243/237/228 151/186/178 273/344/298
f 249/215/207 189/322/289 240/141/136 272/206/198
f 238/159/153 225/156/150 230/160/154
f 197/102/99 151/186/178 161/333/294 252/100/97
f 233/220/212 276/221/213 190/213/205
f 237/210/202 271/341/295 225/156/150
f 201/209/201 271/341/295 237/210/202
f 236/211/203 239/145/140 274/147/142
f 214/195/187 164/191/183 275/207/199 272/206/198
f 286/158/152 233/220/212 275/207/199
f 146/10/10 201/209/201 256/208/200 255/212/204
f 271/341/295 276/221/213 225/156/150
f 236/211/203 237/210/202 238/159/153
f 277/224/216 231/177/171 204/199/191 145/133/129
f 147/134/130 228/136/132 227/230/222 281/229/221
f 147/134/130 253/296/272 229/135/131
f 118/234/226 139/345/283 219/261/251 223/235/227
f 227/230/222 228/136/132 255/212/204
f 226/161/155 213/132/128 254/131/127
f 213/132/128 262/223/215 145/133/129
f 280/297/273 253/296/272 211/324/291 210/325/292
f 208/216/208 278/118/115 221/120/117
f 278/118/115 117/214/206 215/119/116
f 279/226/218 75/225/217 72/217/209
f 282/111/108 235/146/141 200/342/296 212/70/68
f 228/136/132 229/135/131 232/233/225
f 118/234/226 232/233/225 229/135/131
f 281/229/221 211/324/291 147/134/130
f 96/72/70 211/324/291 281/229/221
f 282/111/108 95/110/107 235/146/141
f 212/70/68 200/342/296 250/232/224 209/236/223
f 283/222/214 213/132/128 230/160/154 225/156/150
f 208/216/208 249/215/207 251/205/197
f 190/213/205 208/216/208 251/205/197
f 80/98/95 217/101/98 252/100/97 196/99/96
f 228/136/132 232/233/225 146/10/10
f 284/71/69 210/325/292 211/324/291 96/72/70
f 216/11/11 232/233/225 215/119/116
f 215/119/116 232/233/225 223/235/227
f 255/212/204 96/72/70 227/230/222
f 286/158/152 261/117/114 283/222/214
f 261/117/114 213/132/128 283/222/214
f 238/159/153 241/218/210 239/145/140
f 226/161/155 254/131/127 241/218/210
f 118/234/226 229/135/131 139/330/283
f 209/231/223 248/187/179 210/325/292 284/71/69
f 292/241/232 288/246/237 289/33/33 290/124/121
f 72/217/209 208/216/208 279/226/218
f 221/120/117 279/226/218 208/216/208
f 116/196/188 285/37/37 35/36/36
f 201/209/201 146/10/10 247/12/12
f 223/235/227 219/261/251 222/227/219
f 224/115/112 131/125/122 263/116/113
f 197/102/99 217/101/98 248/187/179
f 292/241/232 294/240/231 293/239/230 291/88/85
f 288/246/237 292/241/232 291/88/85
f 287/34/34 289/33/33 288/246/237
f 287/318/34 30/317/263 73/337/288 176/63/32
f 293/239/230 297/244/235 291/88/85
f 293/239/230 296/242/233 297/244/235
f 298/245/236 291/88/85 101/90/87
f 298/245/236 287/34/34 288/246/237
f 101/90/87 295/250/240 298/245/236
