# Blender 4.4.1
# www.blender.org
mtllib NokiaPhones.mtl
o Cube.006
v -0.629217 7.918479 -14.553679
v -0.683440 7.751812 -13.899049
v -0.224624 5.318655 -15.182077
v -0.533605 5.565459 -15.144834
v -0.278847 5.151987 -14.527448
v -0.587828 5.398791 -14.490204
v -0.650988 9.790823 -13.377232
v -0.596765 9.957491 -14.031861
v -0.416665 11.655046 -12.883194
v -0.362442 11.821714 -13.537824
v 0.070348 12.331610 -12.670603
v -0.216270 12.183054 -12.732164
v 0.124571 12.498278 -13.325233
v -0.162047 12.349721 -13.386794
v -0.619869 7.663989 -13.570350
v -0.498053 5.331386 -14.245150
v -0.289073 5.193203 -14.335707
v -0.588931 9.705853 -13.059307
v -0.376816 11.594456 -12.655708
v 0.057640 12.226841 -12.578955
v -0.192688 12.122326 -12.590965
v 0.707940 5.165593 -14.071409
v -0.421724 5.626770 -15.348774
v -0.208099 5.447141 -15.308552
v -0.548884 7.974419 -14.784352
v -0.482570 10.011303 -14.260271
v -0.258791 11.874946 -13.762126
v 0.138013 12.433792 -13.586977
v -0.179424 12.265431 -13.656135
v 2.429731 7.726297 -14.349235
v 2.375508 7.559630 -13.694605
v 1.791238 5.192007 -15.047348
v 2.120879 5.398688 -14.967422
v 1.737015 5.025339 -14.392718
v 2.066656 5.232020 -14.312793
v 2.528496 9.591068 -13.164732
v 2.582719 9.757736 -13.819362
v 2.464885 11.474010 -12.690606
v 2.519108 11.640677 -13.345236
v 2.042122 12.207731 -12.538820
v 2.313607 12.024111 -12.563081
v 2.096345 12.374398 -13.193450
v 2.367830 12.190779 -13.217710
v 2.258484 7.483153 -13.377976
v 1.937497 5.178370 -14.082371
v 1.726790 5.066554 -14.200977
v 2.414745 9.517143 -12.858558
v 2.387998 11.420753 -12.470923
v 2.029415 12.102962 -12.447172
v 2.264135 11.967973 -12.426764
v 0.726272 5.026946 -14.476028
v 0.780496 5.193614 -15.130659
v 1.061055 12.375473 -12.577375
v 1.115278 12.542141 -13.232005
v 0.809617 7.543787 -13.357177
v 0.715781 5.062324 -14.285796
v 0.905766 9.589550 -12.872726
v 1.003280 11.591486 -12.449883
v 1.048348 12.270704 -12.485726
v 1.040544 12.150952 -12.481529
v 2.045537 5.471762 -15.183874
v 1.807763 5.320492 -15.173822
v 0.797020 5.322099 -15.257133
v 2.388285 7.789888 -14.588048
v 2.507411 9.823454 -14.060437
v 2.453553 11.704539 -13.580848
v 2.109788 12.309914 -13.455194
v 2.410116 12.102741 -13.483064
v 1.129269 12.317869 -13.652162
v 0.929381 7.911911 -14.803078
v 0.818192 5.504477 -15.402464
v 1.022102 9.947136 -14.277232
v 1.111882 11.925303 -13.761028
v 1.133333 12.491834 -13.549437
v -9.126984 5.306203 -2.173331
v -8.451395 5.271236 -2.213551
v -9.333517 3.099213 -3.723879
v -9.306145 3.182447 -3.336464
v -8.657929 3.064247 -3.764099
v -8.630558 3.147482 -3.376683
v -8.299450 7.165390 -1.308007
v -8.975039 7.200356 -1.267788
v -8.166405 8.992685 -0.661785
v -8.841992 9.027651 -0.621566
v -8.129656 9.843445 -0.784139
v -8.132566 9.572783 -0.597746
v -8.805243 9.878411 -0.743919
v -8.808154 9.607748 -0.557528
v -8.121417 5.290915 -2.316142
v -8.388865 3.179533 -3.491629
v -8.476351 3.134811 -3.739246
v -7.980348 7.184658 -1.407753
v -7.937612 9.004603 -0.729023
v -8.020329 9.765458 -0.822905
v -7.986404 9.559565 -0.649154
v -8.322333 3.613396 -4.640293
v -9.528674 3.244220 -3.403791
v -9.481473 3.192389 -3.676931
v -9.371274 5.343633 -2.214721
v -9.220461 7.251630 -1.340216
v -9.082136 9.074520 -0.684986
v -9.051624 9.774702 -0.781193
v -9.055138 9.471405 -0.576514
v -9.229180 6.556705 -4.977202
v -8.553593 6.521739 -5.017420
v -9.400866 3.923301 -5.571645
v -9.394830 4.267606 -5.769597
v -8.725278 3.888334 -5.611863
v -8.719242 4.232639 -5.809817
v -8.405675 8.465169 -4.222363
v -9.081263 8.500135 -4.182145
v -8.262676 10.170668 -3.303051
v -8.938264 10.205634 -3.262831
v -8.195532 10.649510 -2.591492
v -8.217089 10.607000 -2.916664
v -8.871119 10.684476 -2.551273
v -8.892676 10.641967 -2.876444
v -8.217582 6.467591 -4.954477
v -8.470236 4.175190 -5.724084
v -8.543700 3.958899 -5.587010
v -8.080700 8.412565 -4.160962
v -8.029984 10.134864 -3.263285
v -8.086205 10.571523 -2.630258
v -8.068486 10.563918 -2.901109
v -8.696150 3.418103 -4.713767
v -9.371738 3.453070 -4.673548
v -8.154799 10.346228 -1.643612
v -8.830387 10.381194 -1.603392
v -8.048768 5.873004 -3.642497
v -8.515002 3.483167 -4.691351
v -7.941558 7.794007 -2.789654
v -7.887149 9.664885 -1.957240
v -8.045473 10.268240 -1.682378
v -8.019651 10.161491 -1.730928
v -9.611103 4.252840 -5.665314
v -9.548823 4.016477 -5.524696
v -9.519694 3.546246 -4.626599
v -9.469404 6.544353 -4.906967
v -9.320355 8.473939 -4.080871
v -9.172754 10.183331 -3.171155
v -9.117499 10.580767 -2.588547
v -9.141651 10.530013 -2.950119
v -9.204017 10.106329 -1.712362
v -9.540959 5.950235 -3.553664
v -9.696000 3.684493 -4.558516
v -9.391028 7.869027 -2.703363
v -9.240272 9.734918 -1.876686
v -9.134238 10.280458 -1.637245
v -5.699904 15.177498 -5.116894
v -5.278649 14.661745 -4.991191
v -7.777335 13.702091 -4.208537
v -7.511482 13.955922 -4.058005
v -7.356079 13.186337 -4.082833
v -7.090227 13.440169 -3.932302
v -3.738076 15.671820 -6.009669
v -4.159331 16.187572 -6.135373
v -2.381482 16.509254 -7.119924
v -2.802737 17.025009 -7.245627
v -1.991122 16.644157 -7.874599
v -2.031251 16.690088 -7.551661
v -2.412378 17.159910 -8.000302
v -2.452507 17.205841 -7.677364
v -5.098230 14.366716 -5.005492
v -6.970236 13.203384 -3.979098
v -7.183549 13.093263 -4.094591
v -3.563767 15.386236 -6.023988
v -2.255198 16.306721 -7.126285
v -1.976598 16.519501 -7.813062
v -1.965583 16.549374 -7.543398
v -7.313758 12.537801 -4.954333
v -7.667493 14.088020 -4.184805
v -7.806164 13.863751 -4.284773
v -5.869314 15.334917 -5.213394
v -4.338948 16.329685 -6.260470
v -2.976214 17.167938 -7.361234
v -2.652385 17.281670 -7.979815
v -2.699741 17.330616 -7.620292
v -6.621899 13.794786 -7.700289
v -6.200643 13.279034 -7.574585
v -8.384934 12.790876 -5.911006
v -8.311567 12.756037 -6.299814
v -7.963678 12.275124 -5.785303
v -7.890312 12.240284 -6.174110
v -4.696401 14.234623 -8.694862
v -5.117656 14.750376 -8.820565
v -3.250006 15.206732 -9.553498
v -3.671262 15.722485 -9.679202
v -2.585433 15.752872 -9.539835
v -2.793779 15.546528 -9.688236
v -3.006688 16.268623 -9.665539
v -3.215034 16.062281 -9.813939
v -5.965791 13.065638 -7.436367
v -7.704332 12.102463 -6.036010
v -7.791148 12.182049 -5.797061
v -4.469101 14.028508 -8.560703
v -3.088537 15.056964 -9.461271
v -2.570909 15.628214 -9.478299
v -2.706091 15.438837 -9.618277
v -7.706046 12.700926 -4.901639
v -8.127301 13.216679 -5.027342
v -2.209134 16.249607 -8.762810
v -2.630389 16.765362 -8.888513
v -5.456730 13.624010 -6.198465
v -7.537881 12.605033 -4.910331
v -3.960960 14.639454 -7.275792
v -2.537319 15.665103 -8.332838
v -2.194610 16.124950 -8.701271
v -2.256694 16.045200 -8.636430
v -8.411147 12.972763 -6.268497
v -8.413763 12.952538 -5.987244
v -8.156130 13.378340 -5.103580
v -6.754603 14.007252 -7.693941
v -5.240155 14.978148 -8.785620
v -3.793739 15.941898 -9.651908
v -3.246696 16.390383 -9.645051
v -3.480251 16.160088 -9.807255
v -3.081573 16.883028 -8.790468
v -6.387171 14.763168 -6.476111
v -8.170294 13.586476 -5.209926
v -4.864763 15.746000 -7.545488
v -3.381044 16.698093 -8.584608
v -2.906232 16.930992 -8.878718
v 5.287733 15.645197 -0.772355
v 5.003537 15.030063 -0.782520
v 4.441568 15.994062 1.773222
v 4.762344 15.848901 1.589378
v 4.157373 15.378930 1.763056
v 4.478148 15.233768 1.579213
v 5.356345 14.901291 -2.853716
v 5.640541 15.516423 -2.843552
v 5.497041 14.868305 -4.791093
v 5.781237 15.483438 -4.780927
v 5.190882 15.022791 -5.580089
v 5.417785 14.914462 -5.368455
v 5.475079 15.637923 -5.569924
v 5.701981 15.529594 -5.358290
v 4.782152 14.764654 -0.801079
v 4.276372 15.056184 1.559095
v 4.095998 15.214968 1.674076
v 5.141724 14.644856 -2.871753
v 5.347420 14.682637 -4.803324
v 5.131317 14.922009 -5.503721
v 5.319045 14.795202 -5.354019
v 3.123787 15.467180 1.437759
v 4.772629 16.088051 1.565532
v 4.519861 16.130243 1.683208
v 5.334816 15.891256 -0.777846
v 5.657133 15.776655 -2.854124
v 5.804889 15.734924 -4.790052
v 5.556863 15.860264 -5.440600
v 5.807446 15.740556 -5.202331
v 2.533374 16.925316 -1.231361
v 2.249178 16.310183 -1.241527
v 2.626431 16.837669 1.470734
v 2.372176 16.959759 1.191063
v 2.342235 16.222536 1.460568
v 2.087980 16.344625 1.180897
v 2.493451 16.231853 -3.330812
v 2.777647 16.846987 -3.320646
v 2.902415 16.074186 -5.223482
v 3.186611 16.689320 -5.213316
v 3.415443 15.847946 -5.875962
v 3.139815 15.973175 -5.748074
v 3.699639 16.463079 -5.865796
v 3.424011 16.588306 -5.737908
v 2.190405 15.969198 -1.232989
v 2.083336 16.075422 1.193631
v 2.280861 16.058575 1.371587
v 2.437132 15.901847 -3.322467
v 2.857906 15.839666 -5.218195
v 3.355877 15.747166 -5.799593
v 3.106854 15.823343 -5.722675
v 3.240751 15.803873 1.674896
v 3.524946 16.419006 1.685061
v 4.318684 15.429986 -5.836169
v 4.602879 16.045118 -5.826004
v 3.435491 15.256999 -1.018851
v 3.178520 15.640209 1.591879
v 3.752003 15.192347 -3.098448
v 4.080805 15.174865 -5.120240
v 4.259117 15.329205 -5.759800
v 4.228469 15.303890 -5.646490
v 2.551040 17.120560 1.195308
v 2.704723 16.973850 1.380720
v 3.603239 16.555187 1.595047
v 2.690110 17.120415 -1.218580
v 2.964873 17.027914 -3.302783
v 3.362621 16.869995 -5.197050
v 3.781424 16.685421 -5.736473
v 3.475754 16.824236 -5.590902
v 4.704831 16.380281 -5.503053
v 4.063204 16.615662 -0.996398
v 3.701640 16.717924 1.458429
v 4.361744 16.512112 -3.076639
v 4.650016 16.406904 -5.099879
v 4.708839 16.319788 -5.695815
v -0.974229 17.939484 13.583418
v -0.817114 17.287355 13.486965
v -2.772086 17.226591 15.474756
v -2.386763 17.321732 15.459169
v -2.614970 16.574463 15.378302
v -2.229648 16.669603 15.362715
v 0.315444 17.810966 11.791657
v 0.158329 18.463093 11.888113
v 1.188562 18.268917 10.117664
v 1.031447 18.921045 10.214119
v 1.186541 18.394314 9.266556
v 1.329531 18.385017 9.562321
v 1.029426 19.046442 9.363009
v 1.172416 19.037146 9.658773
v -0.814531 16.955294 13.389367
v -2.263339 16.419886 15.267004
v -2.529255 16.426636 15.281515
v 0.317465 17.489759 11.696952
v 1.193836 18.039316 10.052365
v 1.172631 18.263958 9.315046
v 1.322365 18.231409 9.539217
v -3.279721 16.152962 14.628403
v -2.508786 17.526661 15.427837
v -2.759987 17.398762 15.420095
v -1.081047 18.166161 13.584249
v 0.023440 18.685783 11.870175
v 0.906120 19.140162 10.201103
v 0.908792 19.244297 9.501394
v 1.064980 19.233009 9.832109
v -3.510127 17.579323 11.887718
v -3.353012 16.927195 11.791265
v -4.443255 16.989243 14.357281
v -4.587356 17.009192 13.987680
v -4.286140 16.337116 14.260826
v -4.430241 16.357065 13.891226
v -2.320380 17.436611 10.029141
v -2.477495 18.088741 10.125595
v -1.200271 17.929644 8.520304
v -1.357386 18.581772 8.616758
v -0.448079 18.162159 8.173521
v -0.767762 18.087151 8.159906
v -0.605194 18.814285 8.269976
v -0.924877 18.739277 8.256359
v -3.200713 16.616396 11.793778
v -4.282434 16.133121 13.916880
v -4.200425 16.189287 14.164041
v -2.172613 17.136106 10.031893
v -1.098222 17.713787 8.519717
v -0.461989 18.031803 8.222011
v -0.714366 17.942142 8.177299
v -3.483386 16.440126 14.871987
v -3.640500 17.092255 14.968441
v 0.425511 18.305088 8.630170
v 0.268396 18.957214 8.726624
v -1.979545 16.669306 12.574336
v -3.400774 16.290817 14.780157
v -0.906884 17.227055 10.851721
v 0.124751 17.817633 9.183487
v 0.411601 18.174732 8.678658
v 0.360279 18.113628 8.768389
v -4.554170 17.236164 14.060133
v -4.431157 17.161415 14.302618
v -3.628401 17.264425 14.913780
v -3.515988 17.820335 11.956059
v -2.455284 18.333740 10.212708
v -1.342440 18.820808 8.697540
v -0.725829 19.012138 8.408360
v -1.081774 18.928118 8.396621
v 0.021506 19.216896 9.040689
v -2.326570 18.109680 12.787375
v -3.599182 17.478928 14.824522
v -1.243974 18.626194 11.058661
v -0.189932 19.123768 9.376672
v 0.134396 19.210543 8.873214
v 7.711692 6.737867 -5.271571
v 7.035532 6.772342 -5.241949
v 7.543465 4.179404 -6.133912
v 7.554866 4.541986 -6.295692
v 6.867305 4.213880 -6.104290
v 6.878705 4.576461 -6.266070
v 7.173378 8.624172 -4.250668
v 7.849538 8.589696 -4.280289
v 7.302864 10.226718 -3.160076
v 7.979024 10.192243 -3.189698
v 7.356647 10.630476 -2.402316
v 7.341802 10.621315 -2.730499
v 8.032807 10.596001 -2.431937
v 8.017962 10.586839 -2.760120
v 6.703398 6.744194 -5.148715
v 6.634533 4.534258 -6.159986
v 6.697555 4.298440 -6.053279
v 6.852179 8.596661 -4.159998
v 7.072666 10.209313 -3.099131
v 7.236391 10.567949 -2.436461
v 7.191682 10.591251 -2.703277
v 6.533890 3.875940 -5.126264
v 7.777458 4.495430 -6.217253
v 7.704363 4.252379 -6.094359
v 7.954927 6.695065 -5.229168
v 8.093201 8.529966 -4.208399
v 8.217613 10.137837 -3.126429
v 8.261948 10.473766 -2.505440
v 8.245248 10.460114 -2.870719
v 7.750420 5.208656 -2.607757
v 7.074260 5.243132 -2.578135
v 7.568987 3.171647 -4.378445
v 7.588472 3.214972 -3.984096
v 6.892827 3.206122 -4.348823
v 6.912313 3.249448 -3.954474
v 7.213633 7.034703 -1.481886
v 7.889794 7.000227 -1.511508
v 7.339347 8.786191 -0.650745
v 8.015508 8.751715 -0.680366
v 7.381611 9.644758 -0.685241
v 7.373832 9.356594 -0.527413
v 8.057772 9.610283 -0.714862
v 8.049993 9.322119 -0.557036
v 6.739840 5.305266 -2.642168
v 6.665369 3.316692 -4.039043
v 6.723077 3.290683 -4.297812
v 6.890208 7.095081 -1.544316
v 7.107670 8.827145 -0.691457
v 7.261354 9.582232 -0.719387
v 7.222787 9.363051 -0.563808
v 6.875863 3.654758 -5.258209
v 7.552023 3.620282 -5.287830
v 7.376336 10.232319 -1.489517
v 8.052497 10.197844 -1.519139
v 6.600785 6.030890 -3.890148
v 6.705715 3.734096 -5.210190
v 6.782152 7.850411 -2.848256
v 7.008444 9.617466 -1.837136
v 7.256078 10.169793 -1.523663
v 7.214440 10.071854 -1.579281
v 7.808694 3.262012 -4.068696
v 7.729885 3.244622 -4.338892
v 7.712920 3.693256 -5.248278
v 7.992114 5.226733 -2.671403
v 8.131056 7.035233 -1.604643
v 8.251955 8.781898 -0.764446
v 8.286911 9.488049 -0.788365
v 8.278033 9.165565 -0.615677
v 8.382361 9.901754 -1.693910
v 8.094241 5.954743 -3.955574
v 7.908721 3.805842 -5.186493
v 8.232851 7.776444 -2.911810
v 8.362713 9.548416 -1.896465
v 8.339154 10.072677 -1.595161
v 6.948497 9.518176 4.621603
v 6.336205 9.351508 4.383739
v 7.436153 6.918354 5.187969
v 7.488174 7.165156 4.881131
v 6.823862 6.751685 4.950104
v 6.875882 6.998488 4.643266
v 5.826650 11.390520 4.266690
v 6.438941 11.557188 4.504555
v 5.286412 13.254744 4.351096
v 5.898704 13.421412 4.588961
v 4.944290 13.931308 4.757701
v 5.084699 13.782750 4.500359
v 5.556582 14.097975 4.995567
v 5.696990 13.949418 4.738225
v 6.002983 9.263685 4.351363
v 6.615423 6.931084 4.659764
v 6.642915 6.792899 4.885857
v 5.504190 11.305551 4.235923
v 5.056975 13.194152 4.324713
v 4.860022 13.826538 4.719495
v 4.942616 13.722023 4.482879
v 6.106408 6.765291 5.766793
v 7.651953 7.226467 5.046311
v 7.552731 7.046839 5.239724
v 7.146866 9.574117 4.764125
v 6.625526 11.611000 4.678905
v 6.084344 13.474643 4.752030
v 5.803736 14.033490 5.082774
v 5.960179 13.865129 4.798038
v 5.883920 9.325994 7.496605
v 5.271629 9.159327 7.258740
v 6.734593 6.791705 7.082610
v 6.564360 6.998385 7.375989
v 6.122301 6.625037 6.844744
v 5.952068 6.831718 7.138124
v 4.720125 11.190765 7.254982
v 5.332417 11.357433 7.492846
v 4.283575 13.073708 7.059367
v 4.895866 13.240375 7.297234
v 4.258073 13.807428 6.610907
v 4.204250 13.623808 6.878106
v 4.870364 13.974096 6.848771
v 4.816543 13.790477 7.115971
v 5.001258 9.082850 7.056630
v 5.767802 6.778068 6.948857
v 5.941354 6.666251 6.780499
v 4.458851 11.116841 7.058978
v 4.094765 13.020451 6.923267
v 4.173805 13.702660 6.572700
v 4.087593 13.567670 6.791966
v 6.489170 6.626643 5.899257
v 7.101462 6.793311 6.137121
v 4.573601 13.975170 5.681164
v 5.185893 14.141838 5.919029
v 5.392701 9.143483 5.661489
v 6.309744 6.662022 5.835182
v 4.900889 11.189247 5.616128
v 4.467760 13.191183 5.589567
v 4.489334 13.870401 5.642958
v 4.487525 13.750650 5.634284
v 6.793296 7.071459 7.365209
v 6.851170 6.920190 7.134367
v 7.218039 6.921797 6.188877
v 6.124672 9.389585 7.524673
v 5.584952 11.423151 7.489088
v 5.140393 13.304237 7.301273
v 5.117519 13.909611 6.935979
v 5.058968 13.702438 7.231861
v 5.584785 13.917565 6.051741
v 6.745088 9.511608 6.186867
v 7.351376 7.104175 6.250442
v 6.214559 11.546833 6.126466
v 5.694108 13.525000 6.065981
v 5.485134 14.091532 6.026471
v -6.710851 10.687098 3.298801
v -6.080404 10.497149 3.138442
v -6.140122 13.220600 2.541645
v -6.282520 12.890411 2.372925
v -5.509675 13.030653 2.381284
v -5.652072 12.700464 2.212566
v -6.413981 8.626083 4.043291
v -7.044428 8.816031 4.203650
v -6.652237 6.983242 5.052556
v -7.282684 7.173190 5.212915
v -6.607646 6.520257 5.776276
v -6.676019 6.562360 5.457588
v -7.238093 6.710205 5.936635
v -7.306467 6.752308 5.617949
v -5.739261 10.438690 3.137257
v -5.386265 12.674112 2.248713
v -5.359040 12.904664 2.379374
v -6.083868 8.569773 4.042644
v -6.417263 6.941097 5.048112
v -6.488609 6.557301 5.713067
v -6.521360 6.554379 5.443529
v -4.862511 13.172956 3.243163
v -6.458604 12.977170 2.511974
v -6.298311 13.182057 2.620816
v -6.916423 10.778922 3.408805
v -7.238600 8.921043 4.342851
v -7.475664 7.272861 5.342192
v -7.440615 6.888617 5.935125
v -7.515696 6.938784 5.580526
v -5.681068 11.878357 5.936289
v -5.050621 11.688410 5.775930
v -5.461490 14.005647 4.279761
v -5.388898 13.924159 4.661676
v -4.831043 13.815700 4.119401
v -4.758451 13.734212 4.501316
v -5.343620 9.864285 6.784708
v -5.974067 10.054233 6.945067
v -5.682174 8.105417 7.537086
v -6.312622 8.295364 7.697446
v -5.943856 7.288135 7.476378
v -5.824346 7.547582 7.638901
v -6.574302 7.478082 7.636739
v -6.454793 7.737529 7.799261
v -4.770275 11.559620 5.619032
v -4.566346 13.622599 4.348694
v -4.680407 13.689711 4.117492
v -5.072690 9.739509 6.632475
v -5.486500 8.017811 7.431992
v -5.824819 7.325178 7.413171
v -5.694281 7.511151 7.561852
v -5.160858 13.479204 3.221328
v -5.791306 13.669151 3.381688
v -6.292037 6.808146 6.676068
v -6.922484 6.998094 6.836428
v -5.142104 10.965211 4.349487
v -5.009325 13.358514 3.216675
v -5.495257 9.129627 5.316442
v -5.885251 7.358423 6.268702
v -6.173000 6.845191 6.612860
v -6.124107 6.936717 6.552430
v -5.628011 13.938007 4.639297
v -5.619678 13.967104 4.358932
v -5.949494 13.630610 3.460859
v -5.927637 11.922757 5.941292
v -6.232036 10.085445 6.920874
v -6.562564 8.329142 7.680831
v -6.776824 7.656494 7.635229
v -6.643937 7.947241 7.813279
v -7.201942 7.378852 6.773563
v -6.534591 11.384753 4.703680
v -6.144393 13.559175 3.569220
v -6.847879 9.537158 5.660494
v -7.147961 7.738866 6.589884
v -7.178637 7.192666 6.848559
vn -0.9952 -0.0641 0.0739
vn -0.9975 -0.0305 0.0631
vn -0.9716 0.0469 -0.2319
vn -0.9702 0.0171 -0.2417
vn -0.9716 0.2123 0.1047
vn -0.9964 0.0528 0.0657
vn -0.9813 0.0180 0.1918
vn -0.9581 0.1741 0.2275
vn -0.9674 -0.1069 0.2296
vn -0.9760 -0.0690 0.2064
vn -0.4092 -0.7387 -0.5355
vn -0.3719 -0.9256 -0.0701
vn -0.6142 -0.7814 -0.1106
vn -0.5855 -0.7082 -0.3947
vn -0.9531 0.2613 -0.1530
vn -0.9360 0.3460 -0.0642
vn -0.9251 0.3329 -0.1826
vn -0.9188 0.2759 -0.2823
vn -0.0606 -0.9977 -0.0315
vn -0.1066 -0.9614 -0.2536
vn -0.0441 -0.9673 -0.2499
vn -0.0502 -0.6973 -0.7150
vn -0.3289 -0.6846 -0.6505
vn -0.9675 0.1265 -0.2192
vn -0.9128 0.1645 -0.3738
vn -0.2717 0.8524 0.4468
vn -0.4606 0.8122 0.3579
vn -0.4184 0.7310 0.5391
vn -0.2832 0.7138 0.6406
vn -0.9378 0.3217 0.1309
vn -0.2518 0.9678 0.0032
vn -0.4522 0.8901 -0.0563
vn -0.0818 -0.2860 0.9547
vn -0.0807 -0.2604 0.9621
vn -0.1593 -0.2536 0.9541
vn -0.1691 -0.2794 0.9452
vn -0.0621 0.0704 0.9956
vn -0.0929 0.0723 0.9931
vn -0.1154 0.0068 0.9933
vn -0.0646 0.0328 0.9974
vn -0.9246 0.2850 0.2529
vn -0.4058 -0.9064 0.1172
vn -0.5862 -0.8081 0.0583
vn -0.0992 0.6619 0.7430
vn -0.1334 -0.9731 0.1879
vn -0.1325 -0.1165 0.9843
vn -0.0726 -0.1007 0.9923
vn -0.1454 -0.2125 0.9663
vn -0.0787 -0.2170 0.9730
vn -0.1653 -0.8270 0.5373
vn -0.0888 -0.8343 0.5440
vn -0.0656 0.9683 0.2411
vn -0.0529 0.9983 0.0261
vn -0.9219 0.0842 -0.3783
vn 0.0280 -0.4846 -0.8743
vn -0.0535 -0.4779 -0.8768
vn 0.0801 0.2483 -0.9654
vn -0.0025 0.2526 -0.9676
vn -0.0060 0.2600 -0.9656
vn 0.0805 0.2564 -0.9632
vn 0.0797 0.2392 -0.9677
vn -0.0052 0.2439 -0.9698
vn -0.0078 0.3061 -0.9520
vn 0.0848 0.3610 -0.9287
vn -0.0057 0.4529 -0.8915
vn 0.0876 0.4491 -0.8892
vn -0.0097 0.2377 -0.9713
vn 0.0794 0.2330 -0.9692
vn -0.9185 0.0528 -0.3920
vn -0.0374 0.9798 -0.1962
vn -0.2415 0.9438 -0.2258
vn -0.5182 -0.6390 -0.5684
vn -0.4088 0.8796 -0.2434
vn 0.9608 -0.1870 0.2046
vn 0.9882 -0.1059 -0.1108
vn 0.9920 -0.0765 -0.1006
vn 0.9687 -0.1541 0.1946
vn 0.9679 0.0904 0.2343
vn 0.9337 0.0553 0.3539
vn 0.9417 -0.1028 0.3204
vn 0.9777 -0.0712 0.1977
vn 0.9238 -0.1884 0.3333
vn 0.9075 -0.2247 0.3549
vn 0.3813 -0.7884 -0.4827
vn 0.5398 -0.7789 -0.3194
vn 0.5212 -0.8527 -0.0347
vn 0.2596 -0.9653 -0.0279
vn 0.9900 0.1392 -0.0231
vn 0.9753 0.1569 -0.1557
vn 0.9754 0.2135 -0.0556
vn 0.9720 0.2261 0.0633
vn 0.0187 -0.9693 -0.2452
vn 0.0572 -0.7041 -0.7078
vn 0.3243 -0.7256 -0.6069
vn 0.9961 0.0031 -0.0879
vn 0.9676 0.0464 -0.2481
vn 0.3142 0.8155 0.4860
vn 0.2825 0.6782 0.6784
vn 0.4310 0.6776 0.5959
vn 0.5067 0.7515 0.4226
vn 0.9448 0.2034 0.2567
vn 0.5630 0.8264 0.0115
vn 0.3677 0.9289 0.0446
vn 0.0062 -0.2904 0.9569
vn -0.0015 -0.2635 0.9646
vn -0.0173 0.0006 0.9998
vn -0.0313 0.0684 0.9972
vn 0.9111 0.1697 0.3755
vn 0.4680 -0.8743 0.1288
vn 0.2705 -0.9489 0.1624
vn 0.0816 0.6506 0.7550
vn -0.0150 -0.9805 0.1958
vn -0.0147 -0.1239 0.9922
vn -0.0116 -0.2209 0.9752
vn -0.0117 -0.8367 0.5476
vn 0.1730 0.9841 0.0412
vn 0.1532 0.9545 0.2557
vn 0.9671 -0.0345 -0.2520
vn 0.1093 -0.4881 -0.8659
vn 0.1663 0.2491 -0.9541
vn 0.1622 0.2422 -0.9566
vn 0.1640 0.2333 -0.9585
vn 0.1720 0.2948 -0.9399
vn 0.1802 0.4413 -0.8791
vn 0.1679 0.2265 -0.9594
vn 0.9617 -0.0653 -0.2663
vn 0.3850 0.9044 -0.1839
vn 0.1848 0.9659 -0.1814
vn 0.5053 -0.7033 -0.5000
vn 0.5438 0.8197 -0.1797
vn 0.1927 -0.4881 0.8512
vn 0.1766 -0.4622 0.8690
vn -0.1284 -0.4438 0.8869
vn -0.1330 -0.4710 0.8720
vn 0.1721 -0.2309 0.9576
vn 0.1645 -0.3887 0.9065
vn 0.2923 -0.3863 0.8748
vn 0.2974 -0.2328 0.9259
vn 0.3495 -0.4809 0.8041
vn 0.3211 -0.4566 0.8297
vn -0.3505 -0.9361 0.0301
vn 0.1334 -0.9863 -0.0974
vn 0.0953 -0.9781 0.1849
vn -0.1986 -0.9599 0.1981
vn -0.0906 -0.2328 0.9683
vn -0.0203 -0.1333 0.9909
vn -0.1352 -0.1641 0.9771
vn -0.2234 -0.2313 0.9469
vn 0.1496 -0.9010 -0.4073
vn -0.0690 -0.9357 -0.3459
vn -0.0713 -0.9119 -0.4041
vn -0.5727 -0.7754 -0.2659
vn -0.4813 -0.8765 -0.0141
vn -0.1303 -0.3701 0.9198
vn -0.2942 -0.3441 0.8916
vn 0.3186 0.7104 0.6275
vn 0.2594 0.5724 0.7779
vn 0.4461 0.5579 0.6998
vn 0.5336 0.6245 0.5703
vn 0.1750 -0.1153 0.9778
vn -0.1378 0.7287 0.6708
vn -0.1605 0.5589 0.8136
vn 0.9931 -0.0896 -0.0761
vn 0.9957 -0.0652 -0.0654
vn 0.9953 -0.0963 0.0075
vn 0.9921 -0.1250 0.0045
vn 0.9688 0.2375 0.0706
vn 0.9694 0.2248 0.0988
vn 0.9835 0.1578 0.0885
vn 0.9774 0.2041 0.0554
vn 0.2993 -0.1161 0.9471
vn 0.3171 -0.9464 -0.0617
vn 0.2621 -0.9541 0.1448
vn 0.6226 0.6832 0.3815
vn 0.3680 -0.8673 -0.3351
vn 0.9981 0.0411 0.0467
vn 0.9965 0.0834 0.0009
vn 0.9986 -0.0518 0.0141
vn 0.9986 -0.0244 -0.0473
vn 0.6880 -0.6831 -0.2452
vn 0.6875 -0.6536 -0.3166
vn 0.0745 0.8617 0.5019
vn -0.1425 0.8493 0.5083
vn -0.2836 -0.4190 0.8626
vn -0.7742 -0.5880 -0.2340
vn -0.7689 -0.6194 -0.1586
vn -0.9967 0.0538 0.0603
vn -0.9906 0.0199 0.1356
vn -0.9895 0.0252 0.1420
vn -0.9961 0.0614 0.0637
vn -0.9974 0.0453 0.0566
vn -0.9909 0.0107 0.1340
vn -0.9840 0.0673 0.1648
vn -0.9810 0.1614 0.1078
vn -0.9507 0.2083 0.2298
vn -0.9580 0.2474 0.1452
vn -0.9908 0.0030 0.1352
vn -0.9978 0.0395 0.0540
vn -0.2920 -0.4475 0.8453
vn -0.3586 0.7947 0.4897
vn -0.3589 0.6655 0.6545
vn -0.3881 -0.9052 0.1734
vn -0.3465 0.5308 0.7734
vn 0.1274 0.3115 -0.9417
vn -0.1984 0.3296 -0.9230
vn -0.1940 0.3590 -0.9130
vn 0.1109 0.3416 -0.9333
vn 0.1073 0.5620 -0.8202
vn 0.2342 0.5405 -0.8081
vn 0.2281 0.3998 -0.8878
vn 0.0985 0.4183 -0.9030
vn 0.2576 0.3200 -0.9117
vn 0.2869 0.2856 -0.9144
vn -0.3769 -0.6129 -0.6945
vn -0.2362 -0.4999 -0.8333
vn 0.0574 -0.5140 -0.8559
vn 0.1123 -0.7281 -0.6762
vn -0.1555 0.5615 -0.8127
vn -0.2867 0.5430 -0.7893
vn -0.1986 0.6128 -0.7649
vn -0.0841 0.6467 -0.7581
vn -0.0732 -0.8845 -0.4607
vn -0.5763 -0.7315 -0.3643
vn -0.5031 -0.6094 -0.6128
vn -0.1959 0.4326 -0.8800
vn -0.3571 0.4246 -0.8320
vn 0.2991 0.9499 0.0905
vn 0.5147 0.8558 0.0517
vn 0.4178 0.9051 -0.0788
vn 0.2270 0.9678 -0.1087
vn 0.1121 0.6544 -0.7478
vn -0.1944 0.9739 -0.1170
vn -0.1585 0.9820 0.1029
vn 0.9863 -0.0534 -0.1562
vn 0.9900 -0.0318 -0.1371
vn 0.9802 0.1979 -0.0014
vn 0.9673 0.2500 0.0424
vn 0.2379 0.6343 -0.7356
vn 0.2269 -0.5231 -0.8215
vn 0.2945 -0.6699 -0.6815
vn 0.6166 0.7571 0.2158
vn 0.3640 -0.8190 -0.4436
vn 0.9941 0.0892 -0.0612
vn 0.9941 0.0028 -0.1085
vn 0.6828 -0.6203 -0.3860
vn -0.1500 0.9417 0.3012
vn 0.0672 0.9511 0.3014
vn -0.3467 0.3532 -0.8689
vn -0.7744 -0.5528 -0.3079
vn -0.9953 0.0956 -0.0158
vn -0.9961 0.0873 -0.0154
vn -0.9966 0.0799 -0.0211
vn -0.9900 0.1408 -0.0000
vn -0.9569 0.2843 0.0594
vn -0.9968 0.0756 -0.0277
vn -0.3548 0.3211 -0.8781
vn -0.3798 0.9216 0.0802
vn -0.3660 0.8856 0.2861
vn -0.4223 -0.4868 -0.7647
vn -0.3783 0.9203 -0.0998
vn 0.3352 0.2743 0.9013
vn 0.3468 0.3046 0.8871
vn 0.1578 0.5380 0.8281
vn 0.1330 0.5239 0.8413
vn 0.5076 0.4301 0.7466
vn 0.3955 0.3581 0.8458
vn 0.4670 0.2475 0.8489
vn 0.5751 0.3201 0.7528
vn 0.4207 0.1346 0.8971
vn 0.4272 0.1781 0.8864
vn -0.6960 0.0045 0.7180
vn -0.4593 -0.4357 0.7741
vn -0.3317 -0.2243 0.9163
vn -0.5157 -0.0018 0.8568
vn 0.3332 0.6231 0.7076
vn 0.4434 0.6158 0.6513
vn 0.3423 0.6798 0.6486
vn 0.2322 0.7041 0.6711
vn -0.5692 -0.6229 0.5366
vn -0.7032 -0.4379 0.5601
vn -0.7235 -0.4671 0.5082
vn -0.9230 0.0168 0.3845
vn -0.7784 0.0857 0.6219
vn 0.2111 0.5813 0.7858
vn 0.0977 0.6869 0.7201
vn 0.9085 0.3786 -0.1771
vn 0.8779 0.4787 0.0079
vn 0.9565 0.2916 0.0097
vn 0.9812 0.1647 -0.1006
vn 0.5787 0.4737 0.6639
vn 0.6297 0.7359 -0.2488
vn 0.6039 0.7962 -0.0356
vn 0.5909 -0.7799 0.2065
vn 0.6107 -0.7679 0.1931
vn 0.6333 -0.7294 0.2586
vn 0.6150 -0.7372 0.2797
vn 0.8174 -0.5758 0.0164
vn 0.8263 -0.5616 0.0424
vn 0.7966 -0.5972 0.0939
vn 0.7983 -0.6011 0.0368
vn 0.6466 0.3653 0.6697
vn -0.2951 -0.5319 0.7937
vn -0.2271 -0.3619 0.9041
vn 0.9715 -0.0037 -0.2368
vn -0.3653 -0.7221 0.5875
vn 0.7254 -0.6674 0.1686
vn 0.7214 -0.6839 0.1086
vn 0.6615 -0.7150 0.2264
vn 0.6429 -0.7468 0.1703
vn -0.0065 -0.8395 0.5434
vn -0.0297 -0.8768 0.4799
vn 0.7521 0.5137 -0.4128
vn 0.6014 0.6685 -0.4375
vn 0.0517 0.6395 0.7670
vn -0.9486 0.2333 0.2137
vn -0.9209 0.2693 0.2817
vn -0.6198 0.7622 -0.1867
vn -0.5929 0.7968 -0.1165
vn -0.5862 0.8017 -0.1171
vn -0.6138 0.7660 -0.1910
vn -0.6266 0.7578 -0.1820
vn -0.5987 0.7934 -0.1100
vn -0.5491 0.8243 -0.1379
vn -0.5296 0.8119 -0.2456
vn -0.4207 0.8823 -0.2112
vn -0.4506 0.8440 -0.2909
vn -0.6019 0.7919 -0.1030
vn -0.6312 0.7548 -0.1787
vn 0.0224 0.6262 0.7793
vn 0.4168 0.7946 -0.4414
vn 0.4385 0.8646 -0.2452
vn -0.6302 0.1323 0.7651
vn 0.4418 0.8945 -0.0677
vn -0.2543 -0.6098 -0.7506
vn -0.4573 -0.3613 -0.8126
vn -0.4341 -0.3496 -0.8303
vn -0.2459 -0.5842 -0.7734
vn -0.0770 -0.4466 -0.8914
vn 0.0050 -0.5350 -0.8448
vn -0.1126 -0.6217 -0.7751
vn -0.1995 -0.5343 -0.8214
vn -0.1454 -0.6806 -0.7180
vn -0.1444 -0.7129 -0.6863
vn -0.9343 -0.3529 0.0503
vn -0.8548 -0.5105 -0.0935
vn -0.6739 -0.7376 -0.0426
vn -0.6496 -0.7211 0.2408
vn -0.2524 -0.2552 -0.9334
vn -0.3387 -0.1521 -0.9285
vn -0.2305 -0.1793 -0.9564
vn -0.1317 -0.2467 -0.9601
vn -0.7410 -0.4945 0.4543
vn -0.9553 -0.0318 0.2938
vn -0.9753 -0.2095 0.0703
vn -0.3807 -0.3063 -0.8725
vn -0.4691 -0.1631 -0.8680
vn 0.7319 0.1137 -0.6719
vn 0.8107 -0.0910 -0.5784
vn 0.7005 -0.0924 -0.7077
vn 0.5864 0.0415 -0.8090
vn 0.0112 -0.3773 -0.9260
vn 0.2979 0.3373 -0.8930
vn 0.4430 0.4559 -0.7720
vn 0.5622 -0.8164 0.1317
vn 0.5858 -0.8007 0.1253
vn 0.7670 -0.6415 0.0110
vn 0.8078 -0.5894 -0.0095
vn 0.0933 -0.4645 -0.8807
vn -0.5448 -0.8384 0.0138
vn -0.4989 -0.8376 0.2226
vn 0.9171 -0.0854 -0.3895
vn -0.4009 -0.7756 0.4875
vn 0.6899 -0.7206 0.0692
vn 0.6212 -0.7754 0.1135
vn -0.0528 -0.9089 0.4136
vn 0.5333 0.5663 -0.6283
vn 0.6862 0.4148 -0.5975
vn -0.5177 -0.2143 -0.8283
vn -0.9700 0.1957 0.1442
vn -0.6381 0.7238 -0.2625
vn -0.6426 0.7223 -0.2556
vn -0.6497 0.7169 -0.2529
vn -0.6033 0.7430 -0.2898
vn -0.4767 0.7983 -0.3681
vn -0.6554 0.7116 -0.2530
vn -0.5443 -0.2236 -0.8085
vn 0.2497 0.5814 -0.7743
vn 0.3498 0.6942 -0.6291
vn -0.9386 -0.3303 -0.0992
vn 0.1547 0.4639 -0.8723
vn 0.7983 -0.5564 0.2306
vn 0.8149 -0.5432 0.2023
vn 0.9423 -0.2649 0.2045
vn 0.9365 -0.2603 0.2350
vn 0.8468 -0.5301 -0.0429
vn 0.8375 -0.5324 0.1229
vn 0.7601 -0.6389 0.1185
vn 0.7713 -0.6350 -0.0428
vn 0.6950 -0.6834 0.2235
vn 0.7236 -0.6619 0.1957
vn 0.3600 0.1522 0.9205
vn 0.0729 -0.2586 0.9632
vn 0.3398 -0.3198 0.8845
vn 0.4589 -0.0502 0.8871
vn 0.9562 -0.2918 -0.0228
vn 0.9287 -0.3474 -0.1300
vn 0.9663 -0.2420 -0.0876
vn 0.9868 -0.1617 -0.0079
vn -0.2306 -0.1515 0.9612
vn -0.0852 0.0229 0.9961
vn -0.1419 0.0492 0.9887
vn 0.1430 0.4872 0.8615
vn 0.3569 0.2983 0.8852
vn 0.9569 -0.2619 0.1252
vn 0.9880 -0.0966 0.1208
vn 0.2927 -0.3893 -0.8734
vn 0.4801 -0.4104 -0.7753
vn 0.3422 -0.5581 -0.7559
vn 0.1782 -0.5825 -0.7930
vn 0.8392 -0.5199 -0.1597
vn 0.5003 0.0197 -0.8656
vn 0.6739 -0.0379 -0.7379
vn -0.4249 -0.9049 0.0262
vn -0.4214 -0.9069 -0.0002
vn -0.3489 -0.9371 0.0106
vn -0.3444 -0.9380 0.0393
vn -0.3536 -0.8772 -0.3248
vn -0.3257 -0.8897 -0.3200
vn -0.3260 -0.9106 -0.2540
vn -0.3634 -0.8856 -0.2894
vn 0.7647 -0.6240 -0.1608
vn 0.0271 -0.4335 0.9008
vn 0.2355 -0.4557 0.8584
vn -0.0381 -0.5891 -0.8071
vn -0.2554 -0.3721 0.8924
vn -0.3441 -0.9296 -0.1320
vn -0.3939 -0.9050 -0.1605
vn -0.3538 -0.9347 -0.0342
vn -0.4150 -0.9088 -0.0444
vn -0.3348 -0.6668 0.6658
vn -0.4052 -0.6365 0.6563
vn 0.2395 -0.0947 -0.9663
vn 0.3299 0.1011 -0.9386
vn 0.9738 -0.1091 0.1995
vn 0.2078 0.6942 0.6891
vn 0.2804 0.6578 0.6991
vn 0.4197 0.9076 0.0126
vn 0.4924 0.8700 0.0249
vn 0.4967 0.8677 0.0181
vn 0.4209 0.9071 0.0043
vn 0.4184 0.9080 0.0218
vn 0.4931 0.8693 0.0342
vn 0.5061 0.8620 -0.0288
vn 0.4334 0.8951 -0.1046
vn 0.5219 0.8329 -0.1841
vn 0.4401 0.8756 -0.1989
vn 0.4957 0.8675 0.0414
vn 0.4174 0.9083 0.0282
vn 0.9675 -0.1003 0.2322
vn 0.4066 0.2974 -0.8638
vn 0.5828 0.2184 -0.7827
vn 0.4967 0.1425 0.8562
vn 0.7140 0.1427 -0.6854
vn -0.9630 0.2622 -0.0629
vn -0.8269 0.5593 -0.0589
vn -0.8257 0.5568 -0.0902
vn -0.9556 0.2796 -0.0927
vn -0.8996 0.2816 -0.3340
vn -0.9320 0.1567 -0.3267
vn -0.9714 0.1658 -0.1700
vn -0.9400 0.2937 -0.1734
vn -0.9871 0.1332 -0.0894
vn -0.9932 0.1012 -0.0579
vn -0.3518 0.4830 0.8018
vn -0.5542 0.4207 0.7182
vn -0.6826 0.1554 0.7141
vn -0.4957 0.0057 0.8685
vn -0.7934 0.5213 -0.3143
vn -0.7187 0.6310 -0.2921
vn -0.7449 0.5533 -0.3727
vn -0.7894 0.4511 -0.4163
vn -0.1980 0.0753 0.9773
vn 0.0463 0.5322 0.8454
vn -0.2312 0.5717 0.7872
vn -0.8111 0.5598 -0.1695
vn -0.7052 0.6904 -0.1614
vn -0.2349 -0.1441 -0.9613
vn -0.3312 -0.3458 -0.8779
vn -0.4226 -0.2027 -0.8834
vn -0.3909 -0.0056 -0.9204
vn -0.8560 0.2680 -0.4422
vn -0.2403 0.3870 -0.8902
vn -0.0575 0.2790 -0.9586
vn -0.5022 -0.8647 0.0130
vn -0.4910 -0.8711 -0.0131
vn -0.4143 -0.8696 -0.2688
vn -0.3811 -0.8639 -0.3293
vn -0.8882 0.1442 -0.4362
vn -0.7138 -0.0145 0.7002
vn -0.5818 -0.1505 0.7993
vn -0.2008 -0.5135 -0.8343
vn -0.3620 -0.3226 0.8746
vn -0.4501 -0.8803 -0.1497
vn -0.4743 -0.8787 -0.0542
vn -0.4732 -0.6025 0.6428
vn 0.1265 0.1956 -0.9725
vn 0.0426 -0.0032 -0.9991
vn -0.7271 0.6814 -0.0839
vn 0.1338 0.7259 0.6746
vn 0.3416 0.9398 -0.0077
vn 0.3441 0.9389 0.0002
vn 0.3407 0.9401 0.0088
vn 0.3442 0.9372 -0.0558
vn 0.3545 0.9107 -0.2120
vn 0.3358 0.9418 0.0147
vn -0.7254 0.6865 -0.0499
vn 0.0187 0.4806 -0.8767
vn 0.2065 0.3904 -0.8972
vn -0.4249 0.5708 0.7026
vn -0.1438 0.5414 -0.8284
vn 0.8045 -0.0668 0.5902
vn 0.8197 -0.0411 0.5713
vn 0.7488 0.2538 0.6122
vn 0.7301 0.2480 0.6367
vn 0.9304 0.0386 0.3645
vn 0.8606 -0.0033 0.5093
vn 0.8686 -0.1310 0.4779
vn 0.9371 -0.0877 0.3379
vn 0.8070 -0.2246 0.5462
vn 0.8258 -0.1858 0.5325
vn -0.1883 0.1253 0.9741
vn -0.1724 -0.3735 0.9115
vn 0.0848 -0.2616 0.9615
vn 0.0128 0.0217 0.9997
vn 0.8627 0.2874 0.4161
vn 0.9169 0.2499 0.3112
vn 0.8662 0.3470 0.3594
vn 0.8034 0.4067 0.4350
vn -0.4510 -0.4510 0.7702
vn -0.4616 -0.2376 0.8547
vn -0.5145 -0.2455 0.8216
vn -0.5150 0.2920 0.8059
vn -0.2616 0.2498 0.9323
vn 0.7884 0.2809 0.5473
vn 0.7164 0.4331 0.5470
vn 0.7749 0.0268 -0.6316
vn 0.8832 0.0908 -0.4602
vn 0.8625 -0.1082 -0.4943
vn 0.7737 -0.2093 -0.5980
vn 0.9644 0.0673 0.2558
vn 0.6834 0.4704 -0.5584
vn 0.7913 0.4910 -0.3643
vn 0.2102 -0.9717 -0.1080
vn 0.2241 -0.9658 -0.1300
vn 0.2893 -0.9533 -0.0867
vn 0.2820 -0.9576 -0.0590
vn 0.3817 -0.8365 -0.3932
vn 0.4071 -0.8324 -0.3760
vn 0.3934 -0.8635 -0.3156
vn 0.3658 -0.8560 -0.3652
vn 0.9718 -0.0575 0.2285
vn -0.0795 -0.5273 0.8460
vn 0.0991 -0.4231 0.9006
vn 0.6281 -0.3293 -0.7050
vn -0.3141 -0.6292 0.7110
vn 0.3439 -0.9145 -0.2130
vn 0.3051 -0.9156 -0.2618
vn 0.3019 -0.9446 -0.1292
vn 0.2471 -0.9545 -0.1667
vn -0.1120 -0.8640 0.4908
vn -0.1762 -0.8757 0.4495
vn 0.6021 0.2569 -0.7560
vn 0.5425 0.4592 -0.7034
vn 0.6829 0.3986 0.6122
vn -0.5216 0.5317 0.6672
vn -0.4524 0.5396 0.7101
vn -0.2306 0.9629 0.1403
vn -0.1615 0.9693 0.1855
vn -0.1545 0.9712 0.1814
vn -0.2263 0.9649 0.1335
vn -0.2354 0.9606 0.1480
vn -0.1643 0.9671 0.1942
vn -0.1262 0.9815 0.1438
vn -0.1680 0.9849 0.0420
vn -0.0377 0.9992 0.0132
vn -0.1152 0.9926 -0.0385
vn -0.1641 0.9656 0.2019
vn -0.2387 0.9589 0.1533
vn 0.6606 0.3954 0.6381
vn 0.4545 0.6447 -0.6146
vn 0.5950 0.6592 -0.4599
vn -0.0599 0.2053 0.9769
vn 0.6950 0.6485 -0.3106
vn -0.8171 -0.2971 -0.4941
vn -0.8934 0.0174 -0.4489
vn -0.8790 0.0226 -0.4763
vn -0.8103 -0.2726 -0.5187
vn -0.6775 -0.1898 -0.7106
vn -0.6312 -0.3104 -0.7108
vn -0.7256 -0.3574 -0.5881
vn -0.7760 -0.2358 -0.5851
vn -0.7492 -0.4094 -0.5206
vn -0.7473 -0.4454 -0.4931
vn -0.8437 0.0322 0.5358
vn -0.9200 -0.1108 0.3759
vn -0.8565 -0.3952 0.3320
vn -0.6959 -0.4478 0.5614
vn -0.7481 0.0586 -0.6610
vn -0.7668 0.1837 -0.6150
vn -0.7093 0.1233 -0.6941
vn -0.6649 0.0252 -0.7465
vn -0.5654 -0.2524 0.7852
vn -0.6041 0.2794 0.7463
vn -0.8031 0.1729 0.5702
vn -0.8394 0.0497 -0.5412
vn -0.8425 0.2117 -0.4954
vn 0.2891 -0.0422 -0.9564
vn 0.3047 -0.2759 -0.9116
vn 0.1583 -0.2082 -0.9652
vn 0.0812 -0.0231 -0.9964
vn -0.5963 -0.1543 -0.7878
vn -0.0503 0.3715 -0.9271
vn 0.1698 0.3975 -0.9018
vn 0.1367 -0.9782 -0.1561
vn 0.1585 -0.9719 -0.1742
vn 0.3120 -0.8751 -0.3700
vn 0.3561 -0.8397 -0.4101
vn -0.5500 -0.2737 -0.7891
vn -0.7749 -0.5473 0.3162
vn -0.6401 -0.6069 0.4711
vn 0.4783 -0.3506 -0.8052
vn -0.4122 -0.6431 0.6453
vn 0.2463 -0.9284 -0.2783
vn 0.1910 -0.9603 -0.2033
vn -0.2394 -0.8821 0.4056
vn 0.3552 0.4326 -0.8286
vn 0.4207 0.2311 -0.8772
vn -0.8830 0.1761 -0.4350
vn -0.5874 0.5204 0.6198
vn -0.2973 0.9509 0.0859
vn -0.2981 0.9499 0.0942
vn -0.3046 0.9472 0.1004
vn -0.2753 0.9604 0.0441
vn -0.1918 0.9773 -0.0898
vn -0.3113 0.9447 0.1034
vn -0.8980 0.1740 -0.4041
vn 0.0756 0.5854 -0.8072
vn 0.2703 0.6186 -0.7378
vn -0.9083 0.0848 0.4095
vn -0.0948 0.5363 -0.8387
vn -0.1846 0.4218 -0.8877
vn -0.1642 0.4491 -0.8783
vn 0.1413 0.4348 -0.8894
vn 0.1416 0.4064 -0.9027
vn -0.1262 0.6546 -0.7454
vn -0.1409 0.5205 -0.8422
vn -0.2695 0.5130 -0.8150
vn -0.2529 0.6442 -0.7218
vn -0.3425 0.4084 -0.8461
vn -0.3096 0.4394 -0.8432
vn 0.2401 -0.5679 -0.7873
vn -0.2545 -0.6370 -0.7276
vn -0.1948 -0.4110 -0.8906
vn 0.0994 -0.4277 -0.8985
vn 0.1346 0.6281 -0.7664
vn 0.0782 0.7134 -0.6964
vn 0.1873 0.6696 -0.7187
vn 0.2647 0.5948 -0.7591
vn -0.2836 -0.8334 -0.4743
vn -0.0665 -0.8327 -0.5496
vn -0.0659 -0.8658 -0.4961
vn 0.4570 -0.7400 -0.4936
vn 0.3733 -0.5854 -0.7197
vn 0.1543 0.5040 -0.8498
vn 0.3175 0.4754 -0.8205
vn -0.1860 0.9590 0.2140
vn -0.1323 0.9912 0.0108
vn -0.3247 0.9442 0.0549
vn -0.4132 0.8906 0.1897
vn -0.1141 0.7387 -0.6643
vn 0.2713 0.9455 0.1801
vn 0.2847 0.9577 -0.0422
vn -0.9996 0.0147 0.0230
vn -0.9986 0.0379 0.0363
vn -0.9964 0.0781 -0.0320
vn -0.9969 0.0585 -0.0534
vn -0.9265 0.3203 0.1973
vn -0.9265 0.3355 0.1704
vn -0.9491 0.2899 0.1234
vn -0.9401 0.2897 0.1800
vn -0.2396 0.7296 -0.6405
vn -0.4290 -0.5614 -0.7076
vn -0.3602 -0.4076 -0.8391
vn -0.5086 0.7851 0.3534
vn -0.4906 -0.7278 -0.4792
vn -0.9802 0.1902 0.0553
vn -0.9771 0.1779 0.1163
vn -0.9940 0.1098 -0.0000
vn -0.9953 0.0766 0.0585
vn -0.7793 -0.5068 -0.3686
vn -0.7806 -0.5469 -0.3026
vn 0.0641 0.9152 0.3978
vn 0.2780 0.8851 0.3733
vn 0.2961 0.4098 -0.8628
vn 0.6808 -0.6310 -0.3721
vn 0.6775 -0.5881 -0.4418
vn 0.9979 -0.0487 -0.0425
vn 0.9934 -0.0074 -0.1141
vn 0.9935 0.0009 -0.1136
vn 0.9984 -0.0415 -0.0384
vn 0.9973 -0.0569 -0.0471
vn 0.9926 -0.0141 -0.1205
vn 0.9947 0.0445 -0.0931
vn 0.9984 0.0541 0.0166
vn 0.9829 0.1832 -0.0167
vn 0.9884 0.1373 0.0645
vn 0.9917 -0.0177 -0.1275
vn 0.9968 -0.0624 -0.0503
vn 0.2998 0.3782 -0.8759
vn 0.4843 0.8105 0.3296
vn 0.4817 0.8669 0.1279
vn 0.2916 -0.4399 -0.8494
vn 0.4626 0.8852 -0.0502
vn -0.1598 -0.5561 0.8156
vn 0.1664 -0.5726 0.8028
vn 0.1662 -0.5468 0.8206
vn -0.1393 -0.5339 0.8340
vn -0.1017 -0.3150 0.9436
vn -0.2289 -0.3015 0.9256
vn -0.2452 -0.4483 0.8596
vn -0.1159 -0.4664 0.8769
vn -0.2856 -0.5103 0.8112
vn -0.3187 -0.5288 0.7866
vn 0.2501 -0.9632 -0.0988
vn 0.1137 -0.9902 0.0814
vn -0.1804 -0.9787 0.0982
vn -0.2465 -0.9527 -0.1777
vn 0.1592 -0.3432 0.9257
vn 0.2886 -0.3521 0.8903
vn 0.2114 -0.2805 0.9363
vn 0.1024 -0.2405 0.9652
vn -0.0650 -0.8954 -0.4405
vn 0.4583 -0.7937 -0.4001
vn 0.3816 -0.9119 -0.1509
vn 0.1791 -0.4776 0.8601
vn 0.3413 -0.4646 0.8171
vn -0.1786 0.6661 0.7242
vn -0.4061 0.6078 0.6824
vn -0.3140 0.5196 0.7946
vn -0.1200 0.5076 0.8532
vn -0.0902 -0.2024 0.9751
vn 0.2975 0.4502 0.8419
vn 0.2792 0.6358 0.7196
vn -0.9946 -0.0291 0.0992
vn -0.9944 -0.0008 0.1054
vn -0.9478 0.2409 0.2089
vn -0.9257 0.3047 0.2240
vn -0.2163 -0.1881 0.9580
vn -0.3468 -0.9346 0.0789
vn -0.4205 -0.8995 -0.1187
vn -0.5063 0.6948 0.5109
vn -0.4891 -0.7870 -0.3761
vn -0.9787 0.1313 0.1578
vn -0.9923 0.0429 0.1165
vn -0.7773 -0.5836 -0.2348
vn 0.2809 0.7722 0.5700
vn 0.0669 0.8059 0.5883
vn 0.3200 -0.5346 0.7822
vn 0.6795 -0.6695 -0.3000
vn 0.9957 -0.0852 0.0363
vn 0.9955 -0.0898 0.0294
vn 0.9947 -0.0988 0.0268
vn 0.9969 -0.0454 0.0636
vn 0.9853 0.0903 0.1451
vn 0.9939 -0.1065 0.0272
vn 0.3236 -0.5617 0.7614
vn 0.4896 0.5537 0.6735
vn 0.4871 0.6994 0.5231
vn 0.3046 -0.9516 0.0419
vn 0.4746 0.4089 0.7794
vn 0.2117 -0.0641 -0.9752
vn 0.2227 -0.0305 -0.9744
vn 0.4982 0.0469 -0.8658
vn 0.5072 0.0171 -0.8617
vn 0.1755 0.2123 -0.9613
vn 0.2199 0.0528 -0.9741
vn 0.0947 0.0180 -0.9953
vn 0.0540 0.1741 -0.9832
vn 0.0545 -0.1069 -0.9928
vn 0.0793 -0.0690 -0.9945
vn 0.6297 -0.7387 -0.2403
vn 0.1728 -0.9256 -0.3367
vn 0.2804 -0.7814 -0.5575
vn 0.5446 -0.7082 -0.4493
vn 0.4173 0.2613 -0.8704
vn 0.3273 0.3460 -0.8793
vn 0.4378 0.3329 -0.8352
vn 0.5315 0.2759 -0.8009
vn 0.0474 -0.9977 -0.0491
vn 0.2734 -0.9614 -0.0302
vn 0.2521 -0.9673 0.0287
vn 0.6998 -0.6973 0.1549
vn 0.7171 -0.6846 -0.1306
vn 0.4848 0.1265 -0.8654
vn 0.6176 0.1645 -0.7691
vn -0.3513 0.8524 -0.3874
vn -0.2124 0.8122 -0.5433
vn -0.3981 0.7310 -0.5542
vn -0.5338 0.7138 -0.4534
vn 0.1408 0.3217 -0.9363
vn 0.0684 0.9678 -0.2423
vn 0.1824 0.8901 -0.4176
vn -0.8922 -0.2860 -0.3495
vn -0.8996 -0.2604 -0.3505
vn -0.8696 -0.2536 -0.4236
vn -0.8583 -0.2794 -0.4305
vn -0.9370 0.0704 -0.3422
vn -0.9258 0.0723 -0.3710
vn -0.9196 0.0068 -0.3927
vn -0.9380 0.0328 -0.3451
vn 0.0201 0.2850 -0.9583
vn 0.0029 -0.9064 -0.4223
vn 0.1105 -0.8081 -0.5786
vn -0.6842 0.6619 -0.3061
vn -0.1423 -0.9731 -0.1812
vn -0.9062 -0.1165 -0.4065
vn -0.9308 -0.1007 -0.3514
vn -0.8852 -0.2125 -0.4138
vn -0.9106 -0.2170 -0.3517
vn -0.4682 -0.8270 -0.3111
vn -0.4964 -0.8343 -0.2396
vn -0.2126 0.9683 -0.1313
vn -0.0100 0.9983 -0.0582
vn 0.6244 0.0842 -0.7765
vn 0.8304 -0.4846 0.2751
vn 0.8559 -0.4779 0.1976
vn 0.9029 0.2483 0.3509
vn 0.9285 0.2526 0.2723
vn 0.9276 0.2600 0.2684
vn 0.9007 0.2564 0.3507
vn 0.9052 0.2392 0.3512
vn 0.9313 0.2439 0.2704
vn 0.9150 0.3061 0.2628
vn 0.8664 0.3610 0.3450
vn 0.8564 0.4529 0.2477
vn 0.8277 0.4491 0.3365
vn 0.9341 0.2377 0.2665
vn 0.9068 0.2330 0.3513
vn 0.6366 0.0528 -0.7694
vn 0.1988 0.9798 0.0199
vn 0.2851 0.9438 -0.1674
vn 0.6922 -0.6390 -0.3355
vn 0.3494 0.8796 -0.3229
vn -0.4690 -0.1870 0.8632
vn -0.1744 -0.1059 0.9790
vn -0.1852 -0.0765 0.9797
vn -0.4616 -0.1541 0.8736
vn -0.4995 0.0904 0.8616
vn -0.6044 0.0553 0.7947
vn -0.5746 -0.1028 0.8120
vn -0.4671 -0.0712 0.8813
vn -0.5819 -0.1884 0.7911
vn -0.5980 -0.2247 0.7694
vn 0.3546 -0.7884 0.5027
vn 0.1530 -0.7789 0.6082
vn -0.1148 -0.8527 0.5096
vn -0.0470 -0.9653 0.2568
vn -0.2589 0.1392 0.9558
vn -0.1277 0.1569 0.9793
vn -0.2236 0.2135 0.9510
vn -0.3367 0.2261 0.9140
vn 0.2298 -0.9693 0.0875
vn 0.6624 -0.7041 0.2558
vn 0.4898 -0.7256 0.4833
vn -0.1985 0.0031 0.9801
vn -0.0369 0.0464 0.9982
vn -0.5552 0.8155 0.1632
vn -0.7307 0.6782 0.0783
vn -0.6937 0.6776 0.2441
vn -0.5491 0.7515 0.3659
vn -0.5144 0.2034 0.8331
vn -0.1709 0.8264 0.5366
vn -0.1472 0.9289 0.3399
vn -0.9192 -0.2904 -0.2658
vn -0.9245 -0.2635 -0.2753
vn -0.9538 0.0006 -0.3005
vn -0.9472 0.0684 -0.3132
vn -0.6188 0.1697 0.7670
vn -0.2564 -0.8743 0.4122
vn -0.2325 -0.9489 0.2133
vn -0.7471 0.6506 -0.1362
vn -0.1835 -0.9805 -0.0700
vn -0.9472 -0.1239 -0.2959
vn -0.9318 -0.2209 -0.2880
vn -0.5217 -0.8367 -0.1667
vn -0.0886 0.9841 0.1542
vn -0.2887 0.9545 0.0742
vn -0.0330 -0.0345 0.9989
vn 0.7992 -0.4881 0.3507
vn 0.8676 0.2491 0.4303
vn 0.8711 0.2422 0.4271
vn 0.8724 0.2333 0.4294
vn 0.8524 0.2948 0.4318
vn 0.7918 0.4413 0.4224
vn 0.8723 0.2265 0.4334
vn -0.0177 -0.0653 0.9977
vn 0.0671 0.9044 0.4214
vn 0.1214 0.9659 0.2287
vn 0.3360 -0.7033 0.6264
vn 0.0179 0.8197 0.5725
vn -0.1611 -0.3509 -0.9225
vn -0.1844 -0.3738 -0.9090
vn -0.4690 -0.2895 -0.8344
vn -0.4656 -0.2604 -0.8458
vn -0.2367 -0.5789 -0.7803
vn -0.2146 -0.4416 -0.8712
vn -0.0856 -0.4665 -0.8803
vn -0.1098 -0.6002 -0.7923
vn 0.0004 -0.3784 -0.9256
vn -0.0372 -0.4013 -0.9152
vn -0.2858 0.6918 -0.6631
vn 0.2085 0.6398 -0.7397
vn 0.0547 0.4529 -0.8899
vn -0.2179 0.5365 -0.8152
vn -0.4791 -0.4918 -0.7271
vn -0.4296 -0.5949 -0.6794
vn -0.5264 -0.5253 -0.6686
vn -0.5904 -0.4308 -0.6825
vn 0.3497 0.7950 -0.4956
vn 0.1275 0.8520 -0.5079
vn 0.1489 0.8781 -0.4547
vn -0.3699 0.8746 -0.3134
vn -0.3885 0.7313 -0.5606
vn -0.4881 -0.3579 -0.7960
vn -0.6259 -0.2965 -0.7213
vn -0.0095 -0.9939 0.1100
vn -0.1200 -0.9902 -0.0716
vn 0.0828 -0.9933 -0.0804
vn 0.2134 -0.9766 0.0269
vn -0.2481 -0.6665 -0.7030
vn -0.4419 -0.8734 0.2047
vn -0.5146 -0.8574 -0.0055
vn 0.9357 -0.2435 -0.2554
vn 0.9324 -0.2671 -0.2434
vn 0.9028 -0.2979 -0.3102
vn 0.9026 -0.2766 -0.3299
vn 0.8364 -0.5419 -0.0818
vn 0.8257 -0.5537 -0.1083
vn 0.8460 -0.5094 -0.1576
vn 0.8522 -0.5135 -0.1008
vn -0.1225 -0.6888 -0.7145
vn 0.3579 0.5249 -0.7723
vn 0.2215 0.4063 -0.8865
vn 0.3708 -0.9144 0.1625
vn 0.5155 0.6464 -0.5625
vn 0.8823 -0.4124 -0.2271
vn 0.8982 -0.4066 -0.1670
vn 0.9009 -0.3315 -0.2802
vn 0.9254 -0.3063 -0.2230
vn 0.7587 0.3548 -0.5463
vn 0.7869 0.3859 -0.4815
vn -0.1848 -0.9154 0.3577
vn -0.3834 -0.8350 0.3947
vn -0.6005 -0.2331 -0.7649
vn -0.5747 0.8063 -0.1398
vn -0.6002 0.7719 -0.2095
vn -0.9307 0.2781 0.2378
vn -0.9552 0.2451 0.1659
vn -0.9572 0.2370 0.1660
vn -0.9318 0.2708 0.2415
vn -0.9292 0.2863 0.2335
vn -0.9544 0.2522 0.1598
vn -0.9638 0.1928 0.1840
vn -0.9415 0.1721 0.2899
vn -0.9677 0.0474 0.2477
vn -0.9405 0.0840 0.3293
vn -0.9544 0.2562 0.1531
vn -0.9282 0.2920 0.2306
vn -0.5994 -0.2002 -0.7750
vn -0.5687 -0.7111 0.4133
vn -0.6323 -0.7439 0.2165
vn -0.3817 0.5865 -0.7143
vn -0.6648 -0.7460 0.0394
vn 0.4974 0.4108 0.7641
vn 0.1937 0.5022 0.8428
vn 0.1920 0.4752 0.8587
vn 0.4775 0.3920 0.7863
vn 0.4162 0.1765 0.8920
vn 0.5270 0.1366 0.8388
vn 0.5617 0.2823 0.7777
vn 0.4499 0.3272 0.8310
vn 0.6023 0.3385 0.7229
vn 0.6316 0.3517 0.6909
vn -0.0197 0.9996 0.0185
vn 0.1609 0.9747 0.1549
vn 0.4369 0.8951 0.0891
vn 0.4211 0.8857 -0.1952
vn 0.1750 0.2649 0.9483
vn 0.0473 0.3068 0.9506
vn 0.1134 0.2148 0.9700
vn 0.2127 0.1482 0.9658
vn 0.1697 0.9008 -0.3998
vn -0.3338 0.9164 -0.2208
vn -0.1686 0.9857 0.0026
vn 0.1729 0.4068 0.8970
vn 0.0071 0.4358 0.9000
vn 0.1878 -0.7657 0.6151
vn 0.4039 -0.7563 0.5147
vn 0.3687 -0.6625 0.6520
vn 0.2057 -0.6135 0.7625
vn 0.3857 0.0666 0.9202
vn -0.1729 -0.4620 0.8699
vn -0.2334 -0.6321 0.7389
vn 0.9616 -0.2084 -0.1788
vn 0.9559 -0.2365 -0.1742
vn 0.8790 -0.4712 -0.0730
vn 0.8464 -0.5297 -0.0552
vn 0.4954 0.0261 0.8683
vn 0.5764 0.8168 0.0225
vn 0.5856 0.7882 -0.1892
vn 0.4317 -0.8440 0.3184
vn 0.5554 0.6925 -0.4604
vn 0.9219 -0.3665 -0.1256
vn 0.9459 -0.2794 -0.1649
vn 0.8104 0.4147 -0.4139
vn -0.3073 -0.7470 0.5895
vn -0.1112 -0.8302 0.5463
vn 0.0354 0.5025 0.8638
vn -0.5454 0.8353 -0.0691
vn -0.8992 0.3041 0.3145
vn -0.8997 0.3093 0.3079
vn -0.8974 0.3181 0.3057
vn -0.9033 0.2629 0.3391
vn -0.9051 0.1198 0.4079
vn -0.8946 0.3254 0.3062
vn 0.0335 0.5319 0.8461
vn -0.4214 -0.4999 0.7567
vn -0.4939 -0.6246 0.6049
vn -0.0372 0.9851 0.1681
vn -0.3441 -0.3750 0.8608
vt 0.756321 0.927916
vt 0.756321 0.769639
vt 0.802249 0.769639
vt 0.802249 0.927916
vt 0.756321 0.496405
vt 0.756321 0.627072
vt 0.739454 0.627072
vt 0.739454 0.496405
vt 0.739454 0.927916
vt 0.739454 0.769639
vt 0.054711 0.099441
vt 0.054711 0.164376
vt 0.017511 0.164376
vt 0.017511 0.099441
vt 0.802249 0.496405
vt 0.802249 0.462802
vt 0.817239 0.462802
vt 0.817239 0.496405
vt 0.182766 0.164376
vt 0.182766 0.099441
vt 0.054711 0.075718
vt 0.182766 0.067105
vt 0.802249 0.627072
vt 0.817239 0.627072
vt 0.393662 0.094552
vt 0.354697 0.094552
vt 0.354697 0.077236
vt 0.393662 0.077236
vt 0.756321 0.462802
vt 0.393662 0.174469
vt 0.354697 0.174469
vt 0.482995 0.331216
vt 0.476894 0.545514
vt 0.351857 0.541968
vt 0.376715 0.333393
vt 0.465064 0.961092
vt 0.379961 0.949271
vt 0.359319 0.938218
vt 0.465358 0.950741
vt 0.739454 0.462802
vt 0.054711 0.189631
vt 0.028585 0.184094
vt 0.507797 0.094552
vt 0.507797 0.077236
vt 0.182766 0.194552
vt 0.347259 0.890987
vt 0.466730 0.902560
vt 0.341519 0.723378
vt 0.471736 0.726722
vt 0.394646 0.318941
vt 0.481961 0.310660
vt 0.507797 0.174469
vt 0.817239 0.769639
vt 0.171118 0.308688
vt 0.258660 0.321105
vt 0.277452 0.336957
vt 0.169019 0.328995
vt 0.164134 0.728673
vt 0.295323 0.730399
vt 0.280931 0.899062
vt 0.161963 0.906298
vt 0.166374 0.545419
vt 0.295323 0.546981
vt 0.274891 0.934475
vt 0.161531 0.941588
vt 0.247560 0.951050
vt 0.161318 0.959075
vt 0.817239 0.927916
vt 0.507797 0.209970
vt 0.393662 0.209970
vt 0.027354 0.083100
vt 0.354697 0.209970
vt 0.669339 0.462998
vt 0.715268 0.462998
vt 0.715268 0.621275
vt 0.669339 0.621275
vt 0.669339 0.894508
vt 0.652472 0.894508
vt 0.652472 0.763192
vt 0.669339 0.763374
vt 0.652472 0.621275
vt 0.652472 0.462998
vt 0.310046 0.099441
vt 0.347246 0.099441
vt 0.347246 0.164376
vt 0.310046 0.164376
vt 0.715268 0.894508
vt 0.730257 0.894508
vt 0.730257 0.928112
vt 0.715268 0.928112
vt 0.310046 0.075718
vt 0.715268 0.764017
vt 0.730257 0.764492
vt 0.621931 0.094552
vt 0.621931 0.077236
vt 0.660896 0.077236
vt 0.660896 0.094552
vt 0.669339 0.928112
vt 0.660896 0.174469
vt 0.621931 0.174469
vt 0.588979 0.339436
vt 0.601932 0.549087
vt 0.571938 0.944271
vt 0.550701 0.954131
vt 0.652472 0.928112
vt 0.341710 0.180403
vt 0.310046 0.189631
vt 0.586666 0.897802
vt 0.601932 0.730792
vt 0.571900 0.323987
vt 0.485197 0.310752
vt 0.730257 0.621275
vt 0.167417 0.308643
vt 0.060424 0.334304
vt 0.079598 0.318916
vt 0.043207 0.896156
vt 0.032941 0.727192
vt 0.037425 0.543829
vt 0.048380 0.931706
vt 0.075297 0.948945
vt 0.730257 0.462998
vt 0.621931 0.209970
vt 0.336788 0.081870
vt 0.660896 0.209970
s 1
usemtl Material.003
f 6/1/1 2/2/2 1/3/3 4/4/4
f 9/5/5 7/6/6 18/7/7 19/8/8
f 2/2/2 6/1/1 16/9/9 15/10/10
f 3/11/11 5/12/12 6/13/13 4/14/14
f 10/15/15 14/16/16 29/17/17 27/18/18
f 51/19/19 5/12/12 3/11/20 52/20/21
f 52/20/22 3/11/11 24/21/23 63/22/22
f 1/3/3 2/2/2 7/6/6 8/23/24
f 8/23/24 10/15/15 27/18/18 26/24/25
f 11/25/26 12/26/27 21/27/28 20/28/29
f 8/23/24 7/6/6 9/5/5 10/15/15
f 10/15/15 9/5/5 12/29/30 14/16/16
f 11/25/26 13/30/31 14/31/32 12/26/27
f 22/32/33 55/33/34 15/34/35 16/35/36
f 59/36/37 20/37/38 21/38/39 60/39/40
f 12/29/30 9/5/5 19/8/8 21/40/41
f 6/13/13 5/12/12 17/41/42 16/42/43
f 7/6/6 2/2/2 15/10/10 18/7/7
f 53/43/44 11/25/26 20/28/29 59/44/44
f 5/12/12 51/19/19 56/45/45 17/41/42
f 19/46/46 58/47/47 60/39/40 21/38/39
f 18/48/48 57/49/49 58/47/47 19/46/46
f 17/50/50 56/51/51 22/32/51 16/35/50
f 15/34/35 55/33/34 57/49/49 18/48/48
f 11/25/26 53/43/52 54/52/53 13/30/31
f 1/3/3 8/23/24 26/24/25 25/53/54
f 63/54/55 24/55/56 23/56/56 71/57/55
f 72/58/57 26/59/58 27/60/59 73/61/60
f 70/62/61 25/63/62 26/59/58 72/58/57
f 73/61/60 27/60/59 29/64/63 69/65/64
f 28/66/65 74/67/66 69/65/64 29/64/63
f 23/56/67 25/63/62 70/62/61 71/57/68
f 4/4/4 1/3/3 25/53/54 23/68/69
f 13/30/31 54/52/53 74/69/70 28/70/71
f 3/11/11 4/14/14 23/71/72 24/21/23
f 14/31/32 13/30/31 28/70/71 29/72/73
f 35/73/74 33/74/75 30/75/76 31/76/77
f 38/77/78 48/78/79 47/79/80 36/80/81
f 31/76/77 44/81/82 45/82/83 35/73/74
f 32/83/84 33/84/85 35/85/86 34/86/87
f 39/87/88 66/88/89 68/89/90 43/90/91
f 51/19/19 52/20/21 32/83/92 34/86/87
f 52/20/93 63/22/93 62/91/94 32/83/84
f 30/75/76 37/92/95 36/80/81 31/76/77
f 37/92/95 65/93/96 66/88/89 39/87/88
f 40/94/97 49/95/98 50/96/99 41/97/100
f 37/92/95 39/87/88 38/77/78 36/80/81
f 39/87/88 43/90/91 41/98/101 38/77/78
f 40/94/97 41/97/100 43/99/102 42/100/103
f 22/32/33 45/101/104 44/102/105 55/33/34
f 59/36/37 60/39/40 50/103/106 49/104/107
f 41/98/101 50/105/108 48/78/79 38/77/78
f 35/85/86 45/106/109 46/107/110 34/86/87
f 36/80/81 47/79/80 44/81/82 31/76/77
f 53/43/111 59/44/111 49/95/98 40/94/97
f 34/86/87 46/107/110 56/45/112 51/19/19
f 48/108/113 50/103/106 60/39/40 58/47/47
f 47/109/114 48/108/113 58/47/47 57/49/49
f 46/110/115 45/101/115 22/32/51 56/111/51
f 44/102/105 47/109/114 57/49/49 55/33/34
f 40/94/97 42/100/103 54/52/116 53/43/117
f 30/75/76 64/112/118 65/93/96 37/92/95
f 63/113/55 71/57/55 61/114/119 62/115/119
f 72/58/57 73/61/60 66/116/120 65/117/121
f 70/62/61 72/58/57 65/117/121 64/118/122
f 73/61/60 69/65/64 68/119/123 66/116/120
f 67/120/124 68/119/123 69/65/64 74/67/66
f 61/114/125 71/57/68 70/62/61 64/118/122
f 33/74/75 61/121/126 64/112/118 30/75/76
f 42/100/103 67/122/127 74/69/128 54/52/116
f 32/83/84 62/91/94 61/123/129 33/84/85
f 43/99/102 68/124/130 67/122/127 42/100/103
f 80/1/131 76/2/132 75/3/133 78/4/134
f 83/5/135 81/6/136 92/7/137 93/8/138
f 76/2/132 80/1/131 90/9/139 89/10/140
f 77/11/141 79/12/142 80/13/143 78/14/144
f 84/15/145 88/16/146 103/17/147 101/18/148
f 125/19/149 79/12/142 77/11/150 126/20/151
f 126/20/152 77/11/141 98/21/153 137/22/152
f 75/3/133 76/2/132 81/6/136 82/23/154
f 82/23/154 84/15/145 101/18/148 100/24/155
f 85/25/156 86/26/157 95/27/158 94/28/159
f 82/23/154 81/6/136 83/5/135 84/15/145
f 84/15/145 83/5/135 86/29/160 88/16/146
f 85/25/156 87/30/161 88/31/162 86/26/157
f 96/32/163 129/33/164 89/34/165 90/35/166
f 133/36/167 94/37/168 95/38/169 134/39/170
f 86/29/160 83/5/135 93/8/138 95/40/171
f 80/13/143 79/12/142 91/41/172 90/42/173
f 81/6/136 76/2/132 89/10/140 92/7/137
f 127/43/174 85/25/156 94/28/159 133/44/174
f 79/12/142 125/19/149 130/45/175 91/41/172
f 93/46/176 132/47/177 134/39/170 95/38/169
f 92/48/178 131/49/179 132/47/177 93/46/176
f 91/50/180 130/51/181 96/32/181 90/35/180
f 89/34/165 129/33/164 131/49/179 92/48/178
f 85/25/156 127/43/182 128/52/183 87/30/161
f 75/3/133 82/23/154 100/24/155 99/53/184
f 137/54/185 98/55/186 97/56/186 145/57/185
f 146/58/187 100/59/188 101/60/189 147/61/190
f 144/62/191 99/63/192 100/59/188 146/58/187
f 147/61/190 101/60/189 103/64/193 143/65/194
f 102/66/195 148/67/196 143/65/194 103/64/193
f 97/56/197 99/63/192 144/62/191 145/57/198
f 78/4/134 75/3/133 99/53/184 97/68/199
f 87/30/161 128/52/183 148/69/200 102/70/201
f 77/11/141 78/14/144 97/71/202 98/21/153
f 88/31/162 87/30/161 102/70/201 103/72/203
f 109/73/204 107/74/205 104/75/206 105/76/207
f 112/77/208 122/78/209 121/79/210 110/80/211
f 105/76/207 118/81/212 119/82/213 109/73/204
f 106/83/214 107/84/215 109/85/216 108/86/217
f 113/87/218 140/88/219 142/89/220 117/90/221
f 125/19/149 126/20/151 106/83/222 108/86/217
f 126/20/223 137/22/223 136/91/224 106/83/214
f 104/75/206 111/92/225 110/80/211 105/76/207
f 111/92/225 139/93/226 140/88/219 113/87/218
f 114/94/227 123/95/228 124/96/229 115/97/230
f 111/92/225 113/87/218 112/77/208 110/80/211
f 113/87/218 117/90/221 115/98/231 112/77/208
f 114/94/227 115/97/230 117/99/232 116/100/233
f 96/32/163 119/101/234 118/102/235 129/33/164
f 133/36/167 134/39/170 124/103/236 123/104/237
f 115/98/231 124/105/238 122/78/209 112/77/208
f 109/85/216 119/106/239 120/107/240 108/86/217
f 110/80/211 121/79/210 118/81/212 105/76/207
f 127/43/241 133/44/241 123/95/228 114/94/227
f 108/86/217 120/107/240 130/45/242 125/19/149
f 122/108/243 124/103/236 134/39/170 132/47/177
f 121/109/244 122/108/243 132/47/177 131/49/179
f 120/110/245 119/101/245 96/32/181 130/111/181
f 118/102/235 121/109/244 131/49/179 129/33/164
f 114/94/227 116/100/233 128/52/246 127/43/247
f 104/75/206 138/112/248 139/93/226 111/92/225
f 137/113/185 145/57/185 135/114/249 136/115/249
f 146/58/187 147/61/190 140/116/250 139/117/251
f 144/62/191 146/58/187 139/117/251 138/118/252
f 147/61/190 143/65/194 142/119/253 140/116/250
f 141/120/254 142/119/253 143/65/194 148/67/196
f 135/114/255 145/57/198 144/62/191 138/118/252
f 107/74/205 135/121/256 138/112/248 104/75/206
f 116/100/233 141/122/257 148/69/258 128/52/246
f 106/83/214 136/91/224 135/123/259 107/84/215
f 117/99/232 142/124/260 141/122/257 116/100/233
f 154/1/261 150/2/262 149/3/263 152/4/264
f 157/5/265 155/6/266 166/7/267 167/8/268
f 150/2/262 154/1/261 164/9/269 163/10/270
f 151/11/271 153/12/272 154/13/273 152/14/274
f 158/15/275 162/16/276 177/17/277 175/18/278
f 199/19/279 153/12/272 151/11/280 200/20/281
f 200/20/282 151/11/271 172/21/283 211/22/282
f 149/3/263 150/2/262 155/6/266 156/23/284
f 156/23/284 158/15/275 175/18/278 174/24/285
f 159/25/286 160/26/287 169/27/288 168/28/289
f 156/23/284 155/6/266 157/5/265 158/15/275
f 158/15/275 157/5/265 160/29/290 162/16/276
f 159/25/286 161/30/291 162/31/292 160/26/287
f 170/32/293 203/33/294 163/34/295 164/35/296
f 207/36/297 168/37/298 169/38/299 208/39/300
f 160/29/290 157/5/265 167/8/268 169/40/301
f 154/13/273 153/12/272 165/41/302 164/42/303
f 155/6/266 150/2/262 163/10/270 166/7/267
f 201/43/304 159/25/286 168/28/289 207/44/304
f 153/12/272 199/19/279 204/45/305 165/41/302
f 167/46/306 206/47/307 208/39/300 169/38/299
f 166/48/308 205/49/309 206/47/307 167/46/306
f 165/50/310 204/51/311 170/32/311 164/35/310
f 163/34/295 203/33/294 205/49/309 166/48/308
f 159/25/286 201/43/312 202/52/313 161/30/291
f 149/3/263 156/23/284 174/24/285 173/53/314
f 211/54/315 172/55/316 171/56/316 219/57/315
f 220/58/317 174/59/318 175/60/319 221/61/320
f 218/62/321 173/63/322 174/59/318 220/58/317
f 221/61/320 175/60/319 177/64/323 217/65/324
f 176/66/325 222/67/326 217/65/324 177/64/323
f 171/56/327 173/63/322 218/62/321 219/57/328
f 152/4/264 149/3/263 173/53/314 171/68/329
f 161/30/291 202/52/313 222/69/330 176/70/331
f 151/11/271 152/14/274 171/71/332 172/21/283
f 162/31/292 161/30/291 176/70/331 177/72/333
f 183/73/334 181/74/335 178/75/336 179/76/337
f 186/77/338 196/78/339 195/79/340 184/80/341
f 179/76/337 192/81/342 193/82/343 183/73/334
f 180/83/344 181/84/345 183/85/346 182/86/347
f 187/87/348 214/88/349 216/89/350 191/90/351
f 199/19/279 200/20/281 180/83/352 182/86/347
f 200/20/353 211/22/353 210/91/354 180/83/344
f 178/75/336 185/92/355 184/80/341 179/76/337
f 185/92/355 213/93/356 214/88/349 187/87/348
f 188/94/357 197/95/358 198/96/359 189/97/360
f 185/92/355 187/87/348 186/77/338 184/80/341
f 187/87/348 191/90/351 189/98/361 186/77/338
f 188/94/357 189/97/360 191/99/362 190/100/363
f 170/32/293 193/101/364 192/102/365 203/33/294
f 207/36/297 208/39/300 198/103/366 197/104/367
f 189/98/361 198/105/368 196/78/339 186/77/338
f 183/85/346 193/106/369 194/107/370 182/86/347
f 184/80/341 195/79/340 192/81/342 179/76/337
f 201/43/371 207/44/371 197/95/358 188/94/357
f 182/86/347 194/107/370 204/45/372 199/19/279
f 196/108/373 198/103/366 208/39/300 206/47/307
f 195/109/374 196/108/373 206/47/307 205/49/309
f 194/110/375 193/101/375 170/32/311 204/111/311
f 192/102/365 195/109/374 205/49/309 203/33/294
f 188/94/357 190/100/363 202/52/376 201/43/377
f 178/75/336 212/112/378 213/93/356 185/92/355
f 211/113/315 219/57/315 209/114/379 210/115/379
f 220/58/317 221/61/320 214/116/380 213/117/381
f 218/62/321 220/58/317 213/117/381 212/118/382
f 221/61/320 217/65/324 216/119/383 214/116/380
f 215/120/384 216/119/383 217/65/324 222/67/326
f 209/114/385 219/57/328 218/62/321 212/118/382
f 181/74/335 209/121/386 212/112/378 178/75/336
f 190/100/363 215/122/387 222/69/388 202/52/376
f 180/83/344 210/91/354 209/123/389 181/84/345
f 191/99/362 216/124/390 215/122/387 190/100/363
f 228/1/391 224/2/392 223/3/393 226/4/394
f 231/5/395 229/6/396 240/7/397 241/8/398
f 224/2/392 228/1/391 238/9/399 237/10/400
f 225/11/401 227/12/402 228/13/403 226/14/404
f 232/15/405 236/16/406 251/17/407 249/18/408
f 273/19/409 227/12/402 225/11/410 274/20/411
f 274/20/412 225/11/401 246/21/413 285/22/412
f 223/3/393 224/2/392 229/6/396 230/23/414
f 230/23/414 232/15/405 249/18/408 248/24/415
f 233/25/416 234/26/417 243/27/418 242/28/419
f 230/23/414 229/6/396 231/5/395 232/15/405
f 232/15/405 231/5/395 234/29/420 236/16/406
f 233/25/416 235/30/421 236/31/422 234/26/417
f 244/32/423 277/33/424 237/34/425 238/35/426
f 281/36/427 242/37/428 243/38/429 282/39/430
f 234/29/420 231/5/395 241/8/398 243/40/431
f 228/13/403 227/12/402 239/41/432 238/42/433
f 229/6/396 224/2/392 237/10/400 240/7/397
f 275/43/434 233/25/416 242/28/419 281/44/434
f 227/12/402 273/19/409 278/45/435 239/41/432
f 241/46/436 280/47/437 282/39/430 243/38/429
f 240/48/438 279/49/439 280/47/437 241/46/436
f 239/50/440 278/51/441 244/32/441 238/35/440
f 237/34/425 277/33/424 279/49/439 240/48/438
f 233/25/416 275/43/442 276/52/443 235/30/421
f 223/3/393 230/23/414 248/24/415 247/53/444
f 285/54/445 246/55/446 245/56/446 293/57/445
f 294/58/447 248/59/448 249/60/449 295/61/450
f 292/62/451 247/63/452 248/59/448 294/58/447
f 295/61/450 249/60/449 251/64/453 291/65/454
f 250/66/455 296/67/456 291/65/454 251/64/453
f 245/56/457 247/63/452 292/62/451 293/57/458
f 226/4/394 223/3/393 247/53/444 245/68/459
f 235/30/421 276/52/443 296/69/460 250/70/461
f 225/11/401 226/14/404 245/71/462 246/21/413
f 236/31/422 235/30/421 250/70/461 251/72/463
f 257/73/464 255/74/465 252/75/466 253/76/467
f 260/77/468 270/78/469 269/79/470 258/80/471
f 253/76/467 266/81/472 267/82/473 257/73/464
f 254/83/474 255/84/475 257/85/476 256/86/477
f 261/87/478 288/88/479 290/89/480 265/90/481
f 273/19/409 274/20/411 254/83/482 256/86/477
f 274/20/483 285/22/483 284/91/484 254/83/474
f 252/75/466 259/92/485 258/80/471 253/76/467
f 259/92/485 287/93/486 288/88/479 261/87/478
f 262/94/487 271/95/488 272/96/489 263/97/490
f 259/92/485 261/87/478 260/77/468 258/80/471
f 261/87/478 265/90/481 263/98/491 260/77/468
f 262/94/487 263/97/490 265/99/492 264/100/493
f 244/32/423 267/101/494 266/102/495 277/33/424
f 281/36/427 282/39/430 272/103/496 271/104/497
f 263/98/491 272/105/498 270/78/469 260/77/468
f 257/85/476 267/106/499 268/107/500 256/86/477
f 258/80/471 269/79/470 266/81/472 253/76/467
f 275/43/501 281/44/501 271/95/488 262/94/487
f 256/86/477 268/107/500 278/45/502 273/19/409
f 270/108/503 272/103/496 282/39/430 280/47/437
f 269/109/504 270/108/503 280/47/437 279/49/439
f 268/110/505 267/101/505 244/32/441 278/111/441
f 266/102/495 269/109/504 279/49/439 277/33/424
f 262/94/487 264/100/493 276/52/506 275/43/507
f 252/75/466 286/112/508 287/93/486 259/92/485
f 285/113/445 293/57/445 283/114/509 284/115/509
f 294/58/447 295/61/450 288/116/510 287/117/511
f 292/62/451 294/58/447 287/117/511 286/118/512
f 295/61/450 291/65/454 290/119/513 288/116/510
f 289/120/514 290/119/513 291/65/454 296/67/456
f 283/114/515 293/57/458 292/62/451 286/118/512
f 255/74/465 283/121/516 286/112/508 252/75/466
f 264/100/493 289/122/517 296/69/518 276/52/506
f 254/83/474 284/91/484 283/123/519 255/84/475
f 265/99/492 290/124/520 289/122/517 264/100/493
f 302/1/521 298/2/522 297/3/523 300/4/524
f 305/5/525 303/6/526 314/7/527 315/8/528
f 298/2/522 302/1/521 312/9/529 311/10/530
f 299/11/531 301/12/532 302/13/533 300/14/534
f 306/15/535 310/16/536 325/17/537 323/18/538
f 347/19/539 301/12/532 299/11/540 348/20/541
f 348/20/542 299/11/531 320/21/543 359/22/542
f 297/3/523 298/2/522 303/6/526 304/23/544
f 304/23/544 306/15/535 323/18/538 322/24/545
f 307/25/546 308/26/547 317/27/548 316/28/549
f 304/23/544 303/6/526 305/5/525 306/15/535
f 306/15/535 305/5/525 308/29/550 310/16/536
f 307/25/546 309/30/551 310/31/552 308/26/547
f 318/32/553 351/33/554 311/34/555 312/35/556
f 355/36/557 316/37/558 317/38/559 356/39/560
f 308/29/550 305/5/525 315/8/528 317/40/561
f 302/13/533 301/12/532 313/41/562 312/42/563
f 303/6/526 298/2/522 311/10/530 314/7/527
f 349/43/564 307/25/546 316/28/549 355/44/564
f 301/12/532 347/19/539 352/45/565 313/41/562
f 315/46/566 354/47/567 356/39/560 317/38/559
f 314/48/568 353/49/569 354/47/567 315/46/566
f 313/50/570 352/51/571 318/32/571 312/35/570
f 311/34/555 351/33/554 353/49/569 314/48/568
f 307/25/546 349/43/572 350/52/573 309/30/551
f 297/3/523 304/23/544 322/24/545 321/53/574
f 359/54/575 320/55/576 319/56/576 367/57/575
f 368/58/577 322/59/578 323/60/579 369/61/580
f 366/62/581 321/63/582 322/59/578 368/58/577
f 369/61/580 323/60/579 325/64/583 365/65/584
f 324/66/585 370/67/586 365/65/584 325/64/583
f 319/56/587 321/63/582 366/62/581 367/57/588
f 300/4/524 297/3/523 321/53/574 319/68/589
f 309/30/551 350/52/573 370/69/590 324/70/591
f 299/11/531 300/14/534 319/71/592 320/21/543
f 310/31/552 309/30/551 324/70/591 325/72/593
f 331/73/594 329/74/595 326/75/596 327/76/597
f 334/77/598 344/78/599 343/79/600 332/80/601
f 327/76/597 340/81/602 341/82/603 331/73/594
f 328/83/604 329/84/605 331/85/606 330/86/607
f 335/87/608 362/88/609 364/89/610 339/90/611
f 347/19/539 348/20/541 328/83/612 330/86/607
f 348/20/613 359/22/613 358/91/614 328/83/604
f 326/75/596 333/92/615 332/80/601 327/76/597
f 333/92/615 361/93/616 362/88/609 335/87/608
f 336/94/617 345/95/618 346/96/619 337/97/620
f 333/92/615 335/87/608 334/77/598 332/80/601
f 335/87/608 339/90/611 337/98/621 334/77/598
f 336/94/617 337/97/620 339/99/622 338/100/623
f 318/32/553 341/101/624 340/102/625 351/33/554
f 355/36/557 356/39/560 346/103/626 345/104/627
f 337/98/621 346/105/628 344/78/599 334/77/598
f 331/85/606 341/106/629 342/107/630 330/86/607
f 332/80/601 343/79/600 340/81/602 327/76/597
f 349/43/631 355/44/631 345/95/618 336/94/617
f 330/86/607 342/107/630 352/45/632 347/19/539
f 344/108/633 346/103/626 356/39/560 354/47/567
f 343/109/634 344/108/633 354/47/567 353/49/569
f 342/110/635 341/101/635 318/32/571 352/111/571
f 340/102/625 343/109/634 353/49/569 351/33/554
f 336/94/617 338/100/623 350/52/636 349/43/637
f 326/75/596 360/112/638 361/93/616 333/92/615
f 359/113/575 367/57/575 357/114/639 358/115/639
f 368/58/577 369/61/580 362/116/640 361/117/641
f 366/62/581 368/58/577 361/117/641 360/118/642
f 369/61/580 365/65/584 364/119/643 362/116/640
f 363/120/644 364/119/643 365/65/584 370/67/586
f 357/114/645 367/57/588 366/62/581 360/118/642
f 329/74/595 357/121/646 360/112/638 326/75/596
f 338/100/623 363/122/647 370/69/648 350/52/636
f 328/83/604 358/91/614 357/123/649 329/84/605
f 339/99/622 364/124/650 363/122/647 338/100/623
f 376/1/651 372/2/652 371/3/653 374/4/654
f 379/5/655 377/6/656 388/7/657 389/8/658
f 372/2/652 376/1/651 386/9/659 385/10/660
f 373/11/661 375/12/662 376/13/663 374/14/664
f 380/15/665 384/16/666 399/17/667 397/18/668
f 421/19/669 375/12/662 373/11/670 422/20/671
f 422/20/672 373/11/661 394/21/673 433/22/672
f 371/3/653 372/2/652 377/6/656 378/23/674
f 378/23/674 380/15/665 397/18/668 396/24/675
f 381/25/676 382/26/677 391/27/678 390/28/679
f 378/23/674 377/6/656 379/5/655 380/15/665
f 380/15/665 379/5/655 382/29/680 384/16/666
f 381/25/676 383/30/681 384/31/682 382/26/677
f 392/32/683 425/33/684 385/34/685 386/35/686
f 429/36/687 390/37/688 391/38/689 430/39/690
f 382/29/680 379/5/655 389/8/658 391/40/691
f 376/13/663 375/12/662 387/41/692 386/42/693
f 377/6/656 372/2/652 385/10/660 388/7/657
f 423/43/694 381/25/676 390/28/679 429/44/694
f 375/12/662 421/19/669 426/45/695 387/41/692
f 389/46/696 428/47/697 430/39/690 391/38/689
f 388/48/698 427/49/699 428/47/697 389/46/696
f 387/50/700 426/51/701 392/32/701 386/35/700
f 385/34/685 425/33/684 427/49/699 388/48/698
f 381/25/676 423/43/702 424/52/703 383/30/681
f 371/3/653 378/23/674 396/24/675 395/53/704
f 433/54/705 394/55/706 393/56/706 441/57/705
f 442/58/707 396/59/708 397/60/709 443/61/710
f 440/62/711 395/63/712 396/59/708 442/58/707
f 443/61/710 397/60/709 399/64/713 439/65/714
f 398/66/715 444/67/716 439/65/714 399/64/713
f 393/56/717 395/63/712 440/62/711 441/57/718
f 374/4/654 371/3/653 395/53/704 393/68/719
f 383/30/681 424/52/703 444/69/720 398/70/721
f 373/11/661 374/14/664 393/71/722 394/21/673
f 384/31/682 383/30/681 398/70/721 399/72/723
f 405/73/724 403/74/725 400/75/726 401/76/727
f 408/77/728 418/78/729 417/79/730 406/80/731
f 401/76/727 414/81/732 415/82/733 405/73/724
f 402/83/734 403/84/735 405/85/736 404/86/737
f 409/87/738 436/88/739 438/89/740 413/90/741
f 421/19/669 422/20/671 402/83/742 404/86/737
f 422/20/743 433/22/743 432/91/744 402/83/734
f 400/75/726 407/92/745 406/80/731 401/76/727
f 407/92/745 435/93/746 436/88/739 409/87/738
f 410/94/747 419/95/748 420/96/749 411/97/750
f 407/92/745 409/87/738 408/77/728 406/80/731
f 409/87/738 413/90/741 411/98/751 408/77/728
f 410/94/747 411/97/750 413/99/752 412/100/753
f 392/32/683 415/101/754 414/102/755 425/33/684
f 429/36/687 430/39/690 420/103/756 419/104/757
f 411/98/751 420/105/758 418/78/729 408/77/728
f 405/85/736 415/106/759 416/107/760 404/86/737
f 406/80/731 417/79/730 414/81/732 401/76/727
f 423/43/761 429/44/761 419/95/748 410/94/747
f 404/86/737 416/107/760 426/45/762 421/19/669
f 418/108/763 420/103/756 430/39/690 428/47/697
f 417/109/764 418/108/763 428/47/697 427/49/699
f 416/110/765 415/101/765 392/32/701 426/111/701
f 414/102/755 417/109/764 427/49/699 425/33/684
f 410/94/747 412/100/753 424/52/766 423/43/767
f 400/75/726 434/112/768 435/93/746 407/92/745
f 433/113/705 441/57/705 431/114/769 432/115/769
f 442/58/707 443/61/710 436/116/770 435/117/771
f 440/62/711 442/58/707 435/117/771 434/118/772
f 443/61/710 439/65/714 438/119/773 436/116/770
f 437/120/774 438/119/773 439/65/714 444/67/716
f 431/114/775 441/57/718 440/62/711 434/118/772
f 403/74/725 431/121/776 434/112/768 400/75/726
f 412/100/753 437/122/777 444/69/778 424/52/766
f 402/83/734 432/91/744 431/123/779 403/84/735
f 413/99/752 438/124/780 437/122/777 412/100/753
f 450/1/781 446/2/782 445/3/783 448/4/784
f 453/5/785 451/6/786 462/7/787 463/8/788
f 446/2/782 450/1/781 460/9/789 459/10/790
f 447/11/791 449/12/792 450/13/793 448/14/794
f 454/15/795 458/16/796 473/17/797 471/18/798
f 495/19/799 449/12/792 447/11/800 496/20/801
f 496/20/802 447/11/791 468/21/803 507/22/802
f 445/3/783 446/2/782 451/6/786 452/23/804
f 452/23/804 454/15/795 471/18/798 470/24/805
f 455/25/806 456/26/807 465/27/808 464/28/809
f 452/23/804 451/6/786 453/5/785 454/15/795
f 454/15/795 453/5/785 456/29/810 458/16/796
f 455/25/806 457/30/811 458/31/812 456/26/807
f 466/32/813 499/33/814 459/34/815 460/35/816
f 503/36/817 464/37/818 465/38/819 504/39/820
f 456/29/810 453/5/785 463/8/788 465/40/821
f 450/13/793 449/12/792 461/41/822 460/42/823
f 451/6/786 446/2/782 459/10/790 462/7/787
f 497/43/824 455/25/806 464/28/809 503/44/824
f 449/12/792 495/19/799 500/45/825 461/41/822
f 463/46/826 502/47/827 504/39/820 465/38/819
f 462/48/828 501/49/829 502/47/827 463/46/826
f 461/50/830 500/51/831 466/32/831 460/35/830
f 459/34/815 499/33/814 501/49/829 462/48/828
f 455/25/806 497/43/832 498/52/833 457/30/811
f 445/3/783 452/23/804 470/24/805 469/53/834
f 507/54/835 468/55/836 467/56/836 515/57/835
f 516/58/837 470/59/838 471/60/839 517/61/840
f 514/62/841 469/63/842 470/59/838 516/58/837
f 517/61/840 471/60/839 473/64/843 513/65/844
f 472/66/845 518/67/846 513/65/844 473/64/843
f 467/56/847 469/63/842 514/62/841 515/57/848
f 448/4/784 445/3/783 469/53/834 467/68/849
f 457/30/811 498/52/833 518/69/850 472/70/851
f 447/11/791 448/14/794 467/71/852 468/21/803
f 458/31/812 457/30/811 472/70/851 473/72/853
f 479/73/854 477/74/855 474/75/856 475/76/857
f 482/77/858 492/78/859 491/79/860 480/80/861
f 475/76/857 488/81/862 489/82/863 479/73/854
f 476/83/864 477/84/865 479/85/866 478/86/867
f 483/87/868 510/88/869 512/89/870 487/90/871
f 495/19/799 496/20/801 476/83/872 478/86/867
f 496/20/873 507/22/873 506/91/874 476/83/864
f 474/75/856 481/92/875 480/80/861 475/76/857
f 481/92/875 509/93/876 510/88/869 483/87/868
f 484/94/877 493/95/878 494/96/879 485/97/880
f 481/92/875 483/87/868 482/77/858 480/80/861
f 483/87/868 487/90/871 485/98/881 482/77/858
f 484/94/877 485/97/880 487/99/882 486/100/883
f 466/32/813 489/101/884 488/102/885 499/33/814
f 503/36/817 504/39/820 494/103/886 493/104/887
f 485/98/881 494/105/888 492/78/859 482/77/858
f 479/85/866 489/106/889 490/107/890 478/86/867
f 480/80/861 491/79/860 488/81/862 475/76/857
f 497/43/891 503/44/891 493/95/878 484/94/877
f 478/86/867 490/107/890 500/45/892 495/19/799
f 492/108/893 494/103/886 504/39/820 502/47/827
f 491/109/894 492/108/893 502/47/827 501/49/829
f 490/110/895 489/101/895 466/32/831 500/111/831
f 488/102/885 491/109/894 501/49/829 499/33/814
f 484/94/877 486/100/883 498/52/896 497/43/897
f 474/75/856 508/112/898 509/93/876 481/92/875
f 507/113/835 515/57/835 505/114/899 506/115/899
f 516/58/837 517/61/840 510/116/900 509/117/901
f 514/62/841 516/58/837 509/117/901 508/118/902
f 517/61/840 513/65/844 512/119/903 510/116/900
f 511/120/904 512/119/903 513/65/844 518/67/846
f 505/114/905 515/57/848 514/62/841 508/118/902
f 477/74/855 505/121/906 508/112/898 474/75/856
f 486/100/883 511/122/907 518/69/908 498/52/896
f 476/83/864 506/91/874 505/123/909 477/84/865
f 487/99/882 512/124/910 511/122/907 486/100/883
f 524/1/911 520/2/912 519/3/913 522/4/914
f 527/5/915 525/6/916 536/7/917 537/8/918
f 520/2/912 524/1/911 534/9/919 533/10/920
f 521/11/921 523/12/922 524/13/923 522/14/924
f 528/15/925 532/16/926 547/17/927 545/18/928
f 569/19/929 523/12/922 521/11/930 570/20/931
f 570/20/932 521/11/921 542/21/933 581/22/932
f 519/3/913 520/2/912 525/6/916 526/23/934
f 526/23/934 528/15/925 545/18/928 544/24/935
f 529/25/936 530/26/937 539/27/938 538/28/939
f 526/23/934 525/6/916 527/5/915 528/15/925
f 528/15/925 527/5/915 530/29/940 532/16/926
f 529/25/936 531/30/941 532/31/942 530/26/937
f 540/32/943 573/33/944 533/34/945 534/35/946
f 577/36/947 538/37/948 539/38/949 578/39/950
f 530/29/940 527/5/915 537/8/918 539/40/951
f 524/13/923 523/12/922 535/41/952 534/42/953
f 525/6/916 520/2/912 533/10/920 536/7/917
f 571/43/954 529/25/936 538/28/939 577/44/954
f 523/12/922 569/19/929 574/45/955 535/41/952
f 537/46/956 576/47/957 578/39/950 539/38/949
f 536/48/958 575/49/959 576/47/957 537/46/956
f 535/50/960 574/51/961 540/32/961 534/35/960
f 533/34/945 573/33/944 575/49/959 536/48/958
f 529/25/936 571/43/962 572/52/963 531/30/941
f 519/3/913 526/23/934 544/24/935 543/53/964
f 581/54/965 542/55/966 541/56/966 589/57/965
f 590/58/967 544/59/968 545/60/969 591/61/970
f 588/62/971 543/63/972 544/59/968 590/58/967
f 591/61/970 545/60/969 547/64/973 587/65/974
f 546/66/975 592/67/976 587/65/974 547/64/973
f 541/56/977 543/63/972 588/62/971 589/57/978
f 522/4/914 519/3/913 543/53/964 541/68/979
f 531/30/941 572/52/963 592/69/980 546/70/981
f 521/11/921 522/14/924 541/71/982 542/21/933
f 532/31/942 531/30/941 546/70/981 547/72/983
f 553/73/984 551/74/985 548/75/986 549/76/987
f 556/77/988 566/78/989 565/79/990 554/80/991
f 549/76/987 562/81/992 563/82/993 553/73/984
f 550/83/994 551/84/995 553/85/996 552/86/997
f 557/87/998 584/88/999 586/89/1000 561/90/1001
f 569/19/929 570/20/931 550/83/1002 552/86/997
f 570/20/1003 581/22/1003 580/91/1004 550/83/994
f 548/75/986 555/92/1005 554/80/991 549/76/987
f 555/92/1005 583/93/1006 584/88/999 557/87/998
f 558/94/1007 567/95/1008 568/96/1009 559/97/1010
f 555/92/1005 557/87/998 556/77/988 554/80/991
f 557/87/998 561/90/1001 559/98/1011 556/77/988
f 558/94/1007 559/97/1010 561/99/1012 560/100/1013
f 540/32/943 563/101/1014 562/102/1015 573/33/944
f 577/36/947 578/39/950 568/103/1016 567/104/1017
f 559/98/1011 568/105/1018 566/78/989 556/77/988
f 553/85/996 563/106/1019 564/107/1020 552/86/997
f 554/80/991 565/79/990 562/81/992 549/76/987
f 571/43/1021 577/44/1021 567/95/1008 558/94/1007
f 552/86/997 564/107/1020 574/45/1022 569/19/929
f 566/108/1023 568/103/1016 578/39/950 576/47/957
f 565/109/1024 566/108/1023 576/47/957 575/49/959
f 564/110/1025 563/101/1025 540/32/961 574/111/961
f 562/102/1015 565/109/1024 575/49/959 573/33/944
f 558/94/1007 560/100/1013 572/52/1026 571/43/1027
f 548/75/986 582/112/1028 583/93/1006 555/92/1005
f 581/113/965 589/57/965 579/114/1029 580/115/1029
f 590/58/967 591/61/970 584/116/1030 583/117/1031
f 588/62/971 590/58/967 583/117/1031 582/118/1032
f 591/61/970 587/65/974 586/119/1033 584/116/1030
f 585/120/1034 586/119/1033 587/65/974 592/67/976
f 579/114/1035 589/57/978 588/62/971 582/118/1032
f 551/74/985 579/121/1036 582/112/1028 548/75/986
f 560/100/1013 585/122/1037 592/69/1038 572/52/1026
f 550/83/994 580/91/1004 579/123/1039 551/84/995
f 561/99/1012 586/124/1040 585/122/1037 560/100/1013
