# Blender 4.4.1
# www.blender.org
mtllib RocketClaw.mtl
o Cylinder.002
v -0.000000 -0.113464 0.025442
v -0.000000 -0.114177 -0.026095
v 0.098493 -0.056613 0.024938
v 0.098493 -0.056877 -0.023307
v 0.098493 0.057149 0.024408
v 0.098493 0.057061 -0.023589
v 0.000000 0.113982 0.026056
v 0.000000 0.113946 -0.023825
v -0.098493 0.057077 0.025917
v -0.098493 0.057020 -0.023956
v -0.098493 -0.056632 0.025708
v -0.098493 -0.056859 -0.024473
v -0.000000 -0.113374 0.008733
v -0.000000 -0.113478 -0.008428
v 0.098493 -0.056577 -0.007089
v 0.098493 -0.056508 0.008647
v 0.098493 0.057244 -0.007406
v 0.098493 0.057374 0.008345
v 0.000000 0.114084 -0.007361
v 0.000000 0.114177 0.009190
v -0.098493 0.057114 -0.007386
v -0.098493 0.057145 0.009240
v -0.098493 -0.056643 -0.007742
v -0.098493 -0.056582 0.009018
v 0.098493 -0.018698 0.024678
v 0.098493 0.019224 0.024465
v 0.098493 0.019099 -0.023425
v 0.098493 -0.018884 -0.023246
v 0.098493 -0.018556 0.008486
v 0.098493 0.019413 0.008357
v 0.098493 -0.018635 -0.007129
v 0.098493 0.019309 -0.007289
v -0.032831 0.095011 0.026095
v -0.065662 0.076042 0.025983
v -0.065662 0.075992 -0.023929
v -0.032831 0.094969 -0.023878
v -0.032831 0.095164 0.009247
v -0.065662 0.076148 0.009243
v -0.032831 0.095098 -0.007372
v -0.065662 0.076104 -0.007386
v 0.032831 -0.094507 0.025259
v 0.065662 -0.075557 0.025076
v 0.065662 -0.076008 -0.024305
v 0.032831 -0.095169 -0.025601
v 0.032831 -0.094404 0.008668
v 0.065662 -0.075450 0.008650
v 0.032831 -0.094502 -0.008143
v 0.065662 -0.075534 -0.007545
v -0.098493 -0.056613 0.024938
v -0.098493 -0.056877 -0.023307
v -0.098493 0.057149 0.024408
v -0.098493 0.057061 -0.023589
v 0.098493 0.057077 0.025917
v 0.098493 0.057020 -0.023956
v 0.098493 -0.056632 0.025708
v 0.098493 -0.056859 -0.024473
v -0.098493 -0.056577 -0.007089
v -0.098493 -0.056508 0.008647
v -0.098493 0.057244 -0.007406
v -0.098493 0.057374 0.008345
v 0.098493 0.057114 -0.007386
v 0.098493 0.057145 0.009240
v 0.098493 -0.056643 -0.007742
v 0.098493 -0.056582 0.009018
v -0.098493 -0.018698 0.024678
v -0.098493 0.019224 0.024465
v -0.098493 0.019099 -0.023425
v -0.098493 -0.018884 -0.023246
v -0.098493 -0.018556 0.008486
v -0.098493 0.019413 0.008357
v -0.098493 -0.018635 -0.007129
v -0.098493 0.019309 -0.007289
v 0.032831 0.095011 0.026095
v 0.065662 0.076042 0.025983
v 0.065662 0.075992 -0.023929
v 0.032831 0.094969 -0.023878
v 0.032831 0.095164 0.009247
v 0.065662 0.076148 0.009243
v 0.032831 0.095098 -0.007372
v 0.065662 0.076104 -0.007386
v -0.032831 -0.094507 0.025259
v -0.065662 -0.075557 0.025076
v -0.065662 -0.076008 -0.024305
v -0.032831 -0.095169 -0.025601
v -0.032831 -0.094404 0.008668
v -0.065662 -0.075450 0.008650
v -0.032831 -0.094502 -0.008143
v -0.065662 -0.075534 -0.007545
v -0.002430 0.161705 0.169476
v 0.001806 0.161725 0.169171
v -0.008736 0.239034 0.073058
v -0.004493 0.239035 0.072780
v -0.002747 0.155096 0.164613
v 0.001488 0.155122 0.164301
v -0.009515 0.222470 0.061119
v -0.005272 0.222470 0.060841
v -0.005907 0.239035 0.072873
v 0.002430 0.161705 0.169476
v -0.001806 0.161725 0.169171
v 0.008736 0.239034 0.073058
v 0.004493 0.239035 0.072780
v 0.002747 0.155096 0.164613
v -0.001488 0.155122 0.164301
v 0.009515 0.222470 0.061119
v 0.005272 0.222470 0.060841
v 0.005907 0.239035 0.072873
v 0.008417 0.133258 -0.004902
v 0.008417 0.133258 0.015983
v 0.027937 0.098166 -0.009443
v 0.028009 0.098205 0.015983
v 0.008337 0.118891 -0.009443
v 0.008973 0.109195 0.016067
v 0.008337 0.118891 0.015983
v 0.008499 0.109324 -0.009443
v 0.017265 0.104425 0.015898
v 0.016933 0.104602 -0.009443
v -0.008417 0.133258 -0.004902
v -0.008417 0.133258 0.015983
v -0.027937 0.098166 -0.009443
v -0.028009 0.098205 0.015983
v -0.008337 0.118891 -0.009443
v -0.008973 0.109195 0.016067
v -0.008337 0.118891 0.015983
v -0.008499 0.109324 -0.009443
v -0.017265 0.104425 0.015898
v -0.016933 0.104602 -0.009443
v 0.004098 0.150272 -0.004386
v 0.004098 0.142508 0.004172
v 0.009449 0.129928 -0.016564
v 0.007736 0.125914 -0.005776
v 0.004054 0.146073 -0.011588
v 0.008569 0.138660 -0.003872
v 0.004054 0.138445 -0.001169
v 0.004178 0.140562 -0.015144
v 0.009570 0.138623 -0.004468
v 0.008424 0.140683 -0.016613
v 0.008704 0.132100 -0.004909
v 0.009469 0.137485 -0.017079
v 0.004116 0.143317 -0.013366
v 0.006311 0.138553 -0.002520
v -0.004098 0.150272 -0.004386
v -0.004098 0.142508 0.004172
v -0.009449 0.129928 -0.016564
v -0.007736 0.125914 -0.005776
v -0.004054 0.146073 -0.011588
v -0.008569 0.138660 -0.003872
v -0.004054 0.138445 -0.001169
v -0.004178 0.140562 -0.015144
v -0.009570 0.138623 -0.004468
v -0.008424 0.140683 -0.016613
v -0.008704 0.132100 -0.004909
v -0.009469 0.137485 -0.017079
v -0.004116 0.143317 -0.013366
v -0.006311 0.138553 -0.002520
v 0.010283 0.222112 0.079020
v 0.007561 0.214432 0.087630
v 0.003912 0.208231 0.069152
v 0.003520 0.198870 0.073237
v 0.009324 0.214704 0.073345
v 0.003786 0.207215 0.083173
v 0.008072 0.207568 0.082857
v 0.004792 0.213721 0.073879
v 0.003802 0.201438 0.077853
v 0.003872 0.212046 0.071906
v -0.010283 0.222112 0.079020
v -0.007561 0.214432 0.087630
v -0.003912 0.208231 0.069152
v -0.003520 0.198870 0.073237
v -0.009324 0.214704 0.073345
v -0.003786 0.207215 0.083173
v -0.008072 0.207568 0.082857
v -0.004792 0.213721 0.073879
v -0.003802 0.201438 0.077853
v -0.003872 0.212046 0.071906
v -0.003508 0.230555 0.090548
v 0.003541 0.230527 0.090515
v -0.003540 0.136530 -0.028198
v 0.003518 0.136529 -0.028199
v -0.003508 0.218489 0.100297
v 0.003540 0.218455 0.100255
v -0.003541 0.120711 -0.015248
v 0.003517 0.120710 -0.015249
v 0.001165 0.136529 -0.028199
v 0.003716 0.134649 0.029642
v 0.008305 0.134649 0.029623
v 0.003696 0.141394 -0.028412
v 0.008290 0.141394 -0.028413
v 0.003716 0.107315 0.033411
v 0.008304 0.107315 0.033387
v 0.003695 0.107315 -0.031785
v 0.008290 0.107315 -0.031785
v -0.003716 0.134649 0.029642
v -0.008305 0.134649 0.029623
v -0.003695 0.141394 -0.028412
v -0.008290 0.141394 -0.028413
v -0.003716 0.107315 0.033411
v -0.008304 0.107315 0.033387
v -0.003695 0.107315 -0.031785
v -0.008290 0.107315 -0.031785
v 0.137668 -0.084863 0.169476
v 0.135409 -0.088446 0.169171
v 0.206268 -0.121108 0.073058
v 0.203988 -0.124686 0.072780
v 0.132266 -0.081044 0.164614
v 0.130012 -0.084629 0.164301
v 0.192718 -0.111548 0.061119
v 0.190438 -0.115127 0.060841
v 0.204748 -0.123494 0.072873
v 0.135056 -0.088961 0.169476
v 0.137350 -0.085400 0.169171
v 0.196877 -0.135841 0.073058
v 0.199159 -0.132264 0.072780
v 0.129313 -0.085677 0.164614
v 0.131611 -0.082120 0.164301
v 0.182490 -0.127595 0.061119
v 0.184771 -0.124018 0.060841
v 0.198398 -0.133456 0.072873
v 0.107850 -0.078720 -0.004902
v 0.107850 -0.078720 0.015983
v 0.067766 -0.076320 -0.009443
v 0.067761 -0.076402 0.015983
v 0.095778 -0.070931 -0.009443
v 0.087259 -0.066256 0.016067
v 0.095778 -0.070931 0.015983
v 0.087623 -0.065926 -0.009443
v 0.078780 -0.070685 0.015898
v 0.079107 -0.070500 -0.009443
v 0.116897 -0.064525 -0.004902
v 0.116897 -0.064525 0.015983
v 0.097796 -0.029203 -0.009443
v 0.097869 -0.029163 0.015983
v 0.104739 -0.056871 -0.009443
v 0.096905 -0.051123 0.016067
v 0.104739 -0.056871 0.015983
v 0.096759 -0.051592 -0.009443
v 0.097339 -0.041567 0.015898
v 0.097310 -0.041941 -0.009443
v 0.124519 -0.084223 -0.004386
v 0.117971 -0.080050 0.004172
v 0.104487 -0.077801 -0.016563
v 0.102023 -0.074199 -0.005776
v 0.121002 -0.081929 -0.011588
v 0.112324 -0.081752 -0.003872
v 0.114569 -0.077829 -0.001169
v 0.116287 -0.079072 -0.015144
v 0.111754 -0.082577 -0.004468
v 0.114107 -0.082717 -0.016613
v 0.106719 -0.078340 -0.004909
v 0.110849 -0.081880 -0.017079
v 0.118644 -0.080500 -0.013366
v 0.113446 -0.079791 -0.002520
v 0.128924 -0.077312 -0.004386
v 0.122376 -0.073139 0.004172
v 0.114644 -0.061865 -0.016563
v 0.110338 -0.061152 -0.005776
v 0.125359 -0.075092 -0.011588
v 0.121535 -0.067300 -0.003872
v 0.118927 -0.070992 -0.001169
v 0.120779 -0.072025 -0.015144
v 0.122042 -0.066436 -0.004468
v 0.123162 -0.068510 -0.016613
v 0.116075 -0.063661 -0.004909
v 0.121028 -0.065909 -0.017079
v 0.123069 -0.073558 -0.013366
v 0.120231 -0.069146 -0.002520
v 0.181775 -0.128051 0.079020
v 0.176762 -0.121628 0.087630
v 0.173494 -0.115218 0.069152
v 0.165811 -0.109856 0.073237
v 0.176044 -0.123261 0.073345
v 0.172706 -0.114566 0.083173
v 0.170699 -0.118370 0.082857
v 0.177651 -0.118911 0.073879
v 0.167825 -0.111474 0.077853
v 0.176733 -0.117234 0.071906
v 0.192829 -0.110708 0.079020
v 0.184890 -0.108875 0.087630
v 0.177699 -0.108620 0.069152
v 0.169595 -0.103919 0.073237
v 0.186067 -0.107535 0.073345
v 0.176775 -0.108180 0.083173
v 0.179377 -0.104755 0.082857
v 0.182802 -0.110829 0.073879
v 0.171912 -0.105062 0.077853
v 0.180895 -0.110704 0.071906
v 0.196308 -0.120959 0.090548
v 0.192496 -0.126889 0.090515
v 0.117036 -0.070396 -0.028198
v 0.113241 -0.076348 -0.028199
v 0.186133 -0.114474 0.100297
v 0.182316 -0.120399 0.100255
v 0.103696 -0.061893 -0.015248
v 0.099902 -0.067844 -0.015249
v 0.114506 -0.074364 -0.028199
v 0.111550 -0.075505 0.029641
v 0.109083 -0.079374 0.029623
v 0.117249 -0.079112 -0.028412
v 0.114779 -0.082987 -0.028413
v 0.088500 -0.060813 0.033411
v 0.086034 -0.064682 0.033387
v 0.088511 -0.060795 -0.031785
v 0.086042 -0.064670 -0.031786
v 0.115545 -0.069237 0.029641
v 0.118011 -0.065367 0.029623
v 0.121221 -0.072879 -0.028412
v 0.123691 -0.069005 -0.028413
v 0.092494 -0.054546 0.033411
v 0.094960 -0.050676 0.033387
v 0.092483 -0.054563 -0.031785
v 0.094952 -0.050689 -0.031786
v -0.135093 -0.088905 0.169476
v -0.137386 -0.085343 0.169171
v -0.196934 -0.135760 0.073058
v -0.199213 -0.132181 0.072780
v -0.129349 -0.085623 0.164613
v -0.131645 -0.082065 0.164301
v -0.182543 -0.127520 0.061119
v -0.184823 -0.123941 0.060841
v -0.198454 -0.133374 0.072873
v -0.137703 -0.084806 0.169476
v -0.135446 -0.088390 0.169171
v -0.206318 -0.121022 0.073058
v -0.204040 -0.124602 0.072780
v -0.132300 -0.080989 0.164613
v -0.130047 -0.084575 0.164301
v -0.192764 -0.111468 0.061119
v -0.190486 -0.115048 0.060841
v -0.204799 -0.123409 0.072873
v -0.116924 -0.064477 -0.004902
v -0.116924 -0.064477 0.015983
v -0.097809 -0.029162 -0.009443
v -0.097881 -0.029123 0.015983
v -0.104763 -0.056827 -0.009443
v -0.096926 -0.051082 0.016067
v -0.104763 -0.056827 0.015983
v -0.096780 -0.051552 -0.009443
v -0.097356 -0.041526 0.015898
v -0.097327 -0.041901 -0.009443
v -0.107883 -0.078676 -0.004902
v -0.107883 -0.078676 0.015983
v -0.067797 -0.076292 -0.009443
v -0.067792 -0.076374 0.015983
v -0.095807 -0.070891 -0.009443
v -0.087287 -0.066220 0.016067
v -0.095807 -0.070891 0.015983
v -0.087650 -0.065890 -0.009443
v -0.078809 -0.070652 0.015898
v -0.079136 -0.070467 -0.009443
v -0.128956 -0.077258 -0.004386
v -0.122407 -0.073088 0.004172
v -0.114670 -0.061817 -0.016564
v -0.110364 -0.061106 -0.005776
v -0.125390 -0.075040 -0.011588
v -0.121563 -0.067250 -0.003872
v -0.118956 -0.070943 -0.001169
v -0.120808 -0.071975 -0.015144
v -0.122069 -0.066385 -0.004468
v -0.123191 -0.068459 -0.016613
v -0.116102 -0.063613 -0.004909
v -0.121055 -0.065859 -0.017079
v -0.123099 -0.073507 -0.013366
v -0.120259 -0.069096 -0.002520
v -0.124554 -0.084171 -0.004386
v -0.118005 -0.080001 0.004172
v -0.104519 -0.077758 -0.016564
v -0.102054 -0.074157 -0.005776
v -0.121036 -0.081879 -0.011588
v -0.112357 -0.081706 -0.003872
v -0.114601 -0.077782 -0.001169
v -0.116320 -0.079024 -0.015144
v -0.111788 -0.082530 -0.004468
v -0.114142 -0.082670 -0.016613
v -0.106752 -0.078296 -0.004909
v -0.110883 -0.081834 -0.017079
v -0.118678 -0.080451 -0.013366
v -0.113479 -0.079744 -0.002520
v -0.192875 -0.110628 0.079020
v -0.184935 -0.108799 0.087630
v -0.177744 -0.108546 0.069152
v -0.169638 -0.103849 0.073237
v -0.186112 -0.107458 0.073344
v -0.176820 -0.108107 0.083173
v -0.179420 -0.104681 0.082857
v -0.182848 -0.110753 0.073879
v -0.171955 -0.104991 0.077853
v -0.180941 -0.110629 0.071906
v -0.181828 -0.127975 0.079020
v -0.176812 -0.121554 0.087630
v -0.173542 -0.115146 0.069152
v -0.165856 -0.109787 0.073237
v -0.176096 -0.123188 0.073344
v -0.172753 -0.114494 0.083173
v -0.170748 -0.118299 0.082857
v -0.177700 -0.118837 0.073879
v -0.167871 -0.111404 0.077853
v -0.176782 -0.117161 0.071906
v -0.192589 -0.126796 0.090548
v -0.196353 -0.120835 0.090515
v -0.113262 -0.076320 -0.028198
v -0.117052 -0.070366 -0.028199
v -0.182412 -0.120315 0.100297
v -0.186169 -0.114352 0.100255
v -0.099918 -0.067824 -0.015248
v -0.103708 -0.061869 -0.015249
v -0.115789 -0.072350 -0.028199
v -0.115573 -0.069189 0.029641
v -0.118038 -0.065318 0.029623
v -0.121251 -0.072829 -0.028412
v -0.123719 -0.068953 -0.028413
v -0.092517 -0.054507 0.033411
v -0.094981 -0.050637 0.033387
v -0.092506 -0.054525 -0.031785
v -0.094973 -0.050650 -0.031786
v -0.111581 -0.075458 0.029641
v -0.109116 -0.079329 0.029623
v -0.117281 -0.079063 -0.028412
v -0.114813 -0.082939 -0.028413
v -0.088525 -0.060776 0.033411
v -0.086060 -0.064647 0.033387
v -0.088536 -0.060758 -0.031785
v -0.086068 -0.064634 -0.031785
vn 0.5007 -0.8655 0.0145
vn 0.5013 -0.8649 0.0247
vn 0.5013 -0.8650 0.0203
vn 0.5006 -0.8656 0.0121
vn 1.0000 -0.0000 -0.0000
vn 0.4998 0.8661 -0.0073
vn 0.5000 0.8660 -0.0085
vn 0.4998 0.8661 -0.0072
vn -0.5007 0.8656 -0.0041
vn -0.5005 0.8657 -0.0059
vn -0.5005 0.8657 -0.0054
vn -0.5007 0.8656 -0.0037
vn 0.0039 0.0074 -1.0000
vn -1.0000 -0.0000 -0.0000
vn -0.5004 -0.8657 0.0135
vn -0.5011 -0.8651 0.0230
vn -0.5004 -0.8657 0.0137
vn 0.0061 -0.0015 1.0000
vn -0.4997 -0.8662 -0.0036
vn -0.4997 -0.8662 0.0003
vn -0.5007 0.8656 0.0056
vn -0.5008 0.8656 0.0016
vn -0.5007 0.8656 0.0013
vn -0.5006 0.8657 0.0045
vn 0.4998 0.8661 0.0110
vn 0.4997 0.8662 0.0025
vn 0.4997 0.8662 0.0026
vn 0.4998 -0.8661 -0.0055
vn 0.4999 -0.8661 -0.0005
vn 0.4998 -0.8661 -0.0007
vn 0.4998 -0.8662 -0.0056
vn -0.5008 0.8656 0.0024
vn -0.5007 0.8656 -0.0056
vn -0.5007 0.8656 -0.0051
vn -0.5008 0.8655 0.0021
vn -0.5007 0.8656 0.0089
vn -0.5007 0.8656 0.0078
vn -0.5005 0.8657 -0.0070
vn -0.5005 0.8657 -0.0066
vn 0.5002 -0.8659 0.0001
vn 0.5003 -0.8656 0.0196
vn 0.5005 -0.8655 0.0181
vn 0.5001 -0.8660 -0.0001
vn 0.5001 -0.8659 -0.0050
vn 0.5000 -0.8660 -0.0052
vn 0.5001 -0.8653 0.0337
vn 0.5007 -0.8650 0.0313
vn -0.5007 -0.8655 0.0145
vn -0.5006 -0.8656 0.0121
vn -0.5013 -0.8650 0.0203
vn -0.5013 -0.8649 0.0247
vn -0.4998 0.8661 -0.0073
vn -0.4998 0.8661 -0.0072
vn -0.5000 0.8660 -0.0085
vn 0.5007 0.8656 -0.0041
vn 0.5007 0.8656 -0.0037
vn 0.5005 0.8657 -0.0054
vn 0.5005 0.8657 -0.0059
vn -0.0039 0.0074 -1.0000
vn 0.5004 -0.8657 0.0135
vn 0.5004 -0.8657 0.0137
vn 0.5011 -0.8651 0.0230
vn -0.0061 -0.0015 1.0000
vn 0.4997 -0.8662 -0.0036
vn 0.4997 -0.8662 0.0003
vn 0.5007 0.8656 0.0056
vn 0.5006 0.8657 0.0045
vn 0.5007 0.8656 0.0013
vn 0.5008 0.8656 0.0016
vn -0.4998 0.8661 0.0110
vn -0.4997 0.8662 0.0026
vn -0.4997 0.8662 0.0025
vn -0.4998 -0.8661 -0.0055
vn -0.4998 -0.8662 -0.0056
vn -0.4998 -0.8661 -0.0007
vn -0.4999 -0.8661 -0.0005
vn 0.5008 0.8656 0.0024
vn 0.5008 0.8655 0.0021
vn 0.5007 0.8656 -0.0051
vn 0.5007 0.8656 -0.0056
vn 0.5007 0.8656 0.0089
vn 0.5007 0.8656 0.0078
vn 0.5005 0.8657 -0.0066
vn 0.5005 0.8657 -0.0070
vn -0.5002 -0.8659 0.0001
vn -0.5001 -0.8660 -0.0001
vn -0.5005 -0.8655 0.0181
vn -0.5003 -0.8656 0.0196
vn -0.5001 -0.8659 -0.0050
vn -0.5000 -0.8660 -0.0052
vn -0.5007 -0.8650 0.0313
vn -0.5001 -0.8653 0.0337
vn -0.0531 0.5855 -0.8089
vn -0.9979 -0.0001 0.0652
vn -0.0352 -0.8386 -0.5436
vn 0.0409 0.7807 0.6235
vn 0.0617 -0.5939 0.8022
vn 0.9979 -0.0000 -0.0652
vn 0.0531 0.5855 -0.8089
vn 0.9979 -0.0001 0.0652
vn 0.0352 -0.8386 -0.5436
vn -0.0409 0.7807 0.6235
vn -0.0617 -0.5939 0.8022
vn -0.9979 -0.0000 -0.0652
vn 0.5021 0.8648 -0.0053
vn 0.4944 0.8692 0.0009
vn 0.5030 0.8643 -0.0017
vn 1.0000 -0.0056 -0.0000
vn 0.4936 0.8697 -0.0026
vn 0.9991 0.0414 -0.0092
vn -0.4943 0.8693 -0.0058
vn -0.5030 0.8643 -0.0017
vn -0.5022 0.8648 0.0015
vn -1.0000 -0.0056 -0.0000
vn -0.4936 0.8697 -0.0026
vn -0.9991 0.0414 -0.0092
vn 0.9943 -0.0735 0.0773
vn 1.0000 -0.0048 -0.0039
vn 0.0457 0.9867 0.1561
vn 0.7411 0.6711 -0.0184
vn 0.9998 0.0193 -0.0097
vn 0.8429 0.4982 0.2033
vn -0.9943 -0.0735 0.0773
vn -1.0000 -0.0048 -0.0039
vn -0.0457 0.9867 0.1561
vn -0.7411 0.6711 -0.0184
vn -0.9998 0.0193 -0.0097
vn -0.8429 0.4982 0.2033
vn 0.9996 -0.0276 -0.0088
vn 0.9858 -0.1184 0.1194
vn 0.9954 -0.0903 -0.0312
vn 0.0669 -0.8114 -0.5806
vn -0.9996 -0.0276 -0.0088
vn -0.9858 -0.1184 0.1194
vn -0.9954 -0.0903 -0.0312
vn -0.0669 -0.8114 -0.5806
vn -0.0003 -0.6334 -0.7738
vn -1.0000 0.0002 0.0001
vn 0.0001 -0.7634 0.6460
vn 0.0001 0.7840 -0.6208
vn 0.0069 0.6282 0.7780
vn 1.0000 -0.0001 -0.0001
vn -1.0000 -0.0000 0.0003
vn -0.0000 -1.0000 -0.0000
vn -0.0002 0.0985 -0.9951
vn 0.0045 0.1365 0.9906
vn 1.0000 -0.0000 -0.0002
vn 0.0002 0.9933 0.1154
vn 1.0000 -0.0000 0.0003
vn 0.0002 0.0985 -0.9951
vn -0.0045 0.1365 0.9906
vn -1.0000 -0.0000 -0.0002
vn -0.0002 0.9933 0.1154
vn 0.5223 -0.2699 -0.8089
vn 0.5363 0.8415 0.0652
vn -0.6883 0.4804 -0.5436
vn 0.6364 -0.4541 0.6235
vn -0.5340 0.2672 0.8022
vn -0.5363 -0.8415 -0.0652
vn 0.4652 -0.3595 -0.8089
vn -0.5364 -0.8414 0.0652
vn -0.7261 0.4211 -0.5436
vn 0.6804 -0.3852 0.6235
vn -0.4677 0.3713 0.8022
vn 0.5364 0.8415 -0.0652
vn 0.4594 -0.8882 -0.0053
vn 0.4673 -0.8841 0.0009
vn 0.4585 -0.8887 -0.0017
vn -0.5422 -0.8403 -0.0000
vn 0.4681 -0.8837 -0.0026
vn -0.5021 -0.8648 -0.0092
vn 0.9987 -0.0504 -0.0058
vn 0.9992 -0.0404 -0.0017
vn 0.9991 -0.0413 0.0015
vn 0.5328 0.8463 -0.0000
vn 0.9987 -0.0512 -0.0026
vn 0.5719 0.8203 -0.0092
vn -0.5964 -0.7990 0.0773
vn -0.5415 -0.8407 -0.0039
vn 0.8075 -0.5689 0.1561
vn 0.1676 -0.9857 -0.0184
vn -0.5210 -0.8535 -0.0097
vn -0.0329 -0.9786 0.2033
vn 0.4724 0.8780 0.0773
vn 0.5334 0.8458 -0.0039
vn 0.8566 -0.4918 0.1561
vn 0.9643 0.2643 -0.0184
vn 0.5537 0.8327 -0.0097
vn 0.8731 0.4430 0.2033
vn -0.5605 -0.8281 -0.0088
vn -0.6296 -0.7677 0.1194
vn -0.6112 -0.7909 -0.0312
vn -0.7202 0.3797 -0.5806
vn 0.5140 0.8577 -0.0088
vn 0.4300 0.8949 0.1194
vn 0.4588 0.8880 -0.0312
vn -0.6483 0.4925 -0.5806
vn -0.5340 0.3407 -0.7738
vn 0.5376 0.8432 0.0001
vn -0.6438 0.4102 0.6460
vn 0.6611 -0.4214 -0.6208
vn 0.5260 -0.3435 0.7780
vn -0.5376 -0.8432 -0.0001
vn 0.5375 0.8433 0.0003
vn -0.8433 0.5375 -0.0000
vn 0.0831 -0.0528 -0.9951
vn 0.1127 -0.0772 0.9906
vn -0.5375 -0.8433 -0.0002
vn 0.8375 -0.5341 0.1154
vn -0.5375 -0.8433 0.0003
vn 0.0830 -0.0531 -0.9951
vn 0.1176 -0.0695 0.9906
vn 0.5375 0.8433 -0.0002
vn 0.8378 -0.5337 0.1154
vn -0.4654 -0.3593 -0.8089
vn 0.5360 -0.8417 0.0652
vn 0.7263 0.4208 -0.5436
vn -0.6805 -0.3849 0.6235
vn 0.4678 0.3711 0.8022
vn -0.5360 0.8417 -0.0652
vn -0.5224 -0.2697 -0.8089
vn -0.5359 0.8417 0.0652
vn 0.6885 0.4801 -0.5436
vn -0.6366 -0.4538 0.6235
vn 0.5341 0.2669 0.8022
vn 0.5360 -0.8417 -0.0652
vn -0.9991 -0.0410 -0.0053
vn -0.9988 -0.0498 0.0009
vn -0.9992 -0.0400 -0.0017
vn -0.5324 0.8465 -0.0000
vn -0.9987 -0.0508 -0.0026
vn -0.5716 0.8205 -0.0092
vn -0.4677 -0.8839 -0.0058
vn -0.4589 -0.8885 -0.0017
vn -0.4597 -0.8881 0.0015
vn 0.5418 -0.8405 -0.0000
vn -0.4685 -0.8835 -0.0026
vn 0.5017 -0.8650 -0.0092
vn -0.4721 0.8782 0.0773
vn -0.5331 0.8461 -0.0039
vn -0.8568 -0.4914 0.1561
vn -0.9642 0.2647 -0.0184
vn -0.5533 0.8329 -0.0097
vn -0.8730 0.4434 0.2033
vn 0.5960 -0.7992 0.0773
vn 0.5412 -0.8409 -0.0039
vn -0.8077 -0.5685 0.1561
vn -0.1680 -0.9856 -0.0184
vn 0.5207 -0.8537 -0.0097
vn 0.0325 -0.9786 0.2033
vn -0.5137 0.8580 -0.0088
vn -0.4296 0.8951 0.1194
vn -0.4585 0.8882 -0.0312
vn 0.6485 0.4923 -0.5806
vn 0.5601 -0.8283 -0.0088
vn 0.6293 -0.7679 0.1194
vn 0.6109 -0.7911 -0.0312
vn 0.7204 0.3794 -0.5806
vn 0.5345 0.3400 -0.7738
vn 0.5370 -0.8436 0.0001
vn 0.6439 0.4101 0.6460
vn -0.6613 -0.4211 -0.6208
vn -0.5336 -0.3316 0.7780
vn -0.5370 0.8436 -0.0001
vn 0.5371 -0.8435 0.0003
vn 0.8435 0.5371 -0.0000
vn -0.0830 -0.0530 -0.9951
vn -0.1176 -0.0695 0.9906
vn -0.5371 0.8435 -0.0002
vn -0.8380 -0.5333 0.1154
vn -0.5371 0.8435 0.0003
vn -0.0832 -0.0527 -0.9951
vn -0.1127 -0.0772 0.9906
vn 0.5371 -0.8435 -0.0002
vn -0.8377 -0.5337 0.1154
vt 0.835741 0.668784
vt 1.004578 0.668784
vt 1.004578 1.005202
vt 0.835741 1.005202
vt 0.835741 0.668680
vt 1.004578 0.668680
vt 1.004578 1.005099
vt 0.835741 1.005099
vt 0.835741 -0.004260
vt 1.004578 -0.004260
vt 1.004578 1.004995
vt 0.835741 1.004995
vt 0.835741 0.668473
vt 1.004578 0.668473
vt 1.004578 1.004892
vt 0.835741 1.004892
vt 0.471899 0.785328
vt 0.425853 0.845701
vt 0.379807 0.906073
vt 0.333761 0.966446
vt 0.107840 0.937374
vt 0.020056 0.727184
vt 0.066102 0.666812
vt 0.112148 0.606439
vt 0.158194 0.546067
vt 0.384115 0.575139
vt 0.413376 0.645202
vt 0.442638 0.715265
vt 0.835741 -0.004467
vt 1.004578 -0.004467
vt 1.004578 1.004789
vt 0.835741 1.004789
vt 0.835741 -0.003951
vt 1.004578 -0.003951
vt 1.004578 1.005304
vt 0.835741 1.005304
vt 0.333815 0.966423
vt 0.379861 0.906051
vt 0.425907 0.845678
vt 0.471953 0.785306
vt 0.442692 0.715243
vt 0.413430 0.645179
vt 0.384169 0.575116
vt 0.158248 0.546044
vt 0.112202 0.606417
vt 0.066156 0.666789
vt 0.020110 0.727162
vt 0.107894 0.937351
vt 0.498067 -0.003952
vt 0.666904 -0.003952
vt 0.666904 1.005304
vt 0.498067 1.005304
vt 0.498067 -0.004467
vt 0.666904 -0.004467
vt 0.666904 1.004789
vt 0.498067 1.004789
vt 0.498067 0.668473
vt 0.666904 0.668473
vt 0.666904 1.004892
vt 0.498067 1.004892
vt 0.498067 -0.004261
vt 0.666904 -0.004261
vt 0.666904 1.004995
vt 0.498067 1.004995
vt 0.498067 0.668680
vt 0.666904 0.668680
vt 0.666904 1.005099
vt 0.498067 1.005099
vt 0.498067 0.668783
vt 0.666904 0.668783
vt 0.666904 1.005202
vt 0.498067 1.005202
vt 0.666904 -0.004157
vt 0.835741 -0.004157
vt 0.835741 0.332262
vt 0.666904 0.332262
vt 0.498067 -0.004157
vt 0.498067 0.332262
vt 1.004578 -0.004157
vt 1.004578 0.332262
vt 0.666904 -0.004364
vt 0.835741 -0.004364
vt 0.835741 0.332055
vt 0.666904 0.332055
vt 0.498067 -0.004364
vt 0.498067 0.332055
vt 1.004578 -0.004364
vt 1.004578 0.332055
vt 0.666904 -0.004054
vt 0.835741 -0.004054
vt 0.835741 0.332365
vt 0.666904 0.332365
vt 0.498067 -0.004054
vt 0.498067 0.332365
vt 1.004578 -0.004053
vt 1.004578 0.332365
vt 0.009525 0.506439
vt 0.009525 0.826535
vt 0.009525 0.986583
vt 0.493866 0.986583
vt 0.493866 0.506439
vt 1.000775 0.000442
vt 0.494443 0.000442
vt 0.494443 0.998977
vt 1.000775 0.998977
vt 0.999495 0.998752
vt 0.495558 0.998751
vt 0.495558 -0.000309
vt 0.499225 1.000000
vt 0.499225 -0.000000
vt 0.569563 0.000264
vt 0.569654 0.999990
vt 0.546177 0.999994
vt 0.931671 0.571843
vt 0.779266 0.571843
vt 0.779266 0.504249
vt 0.931671 0.504249
vt 0.931671 0.909814
vt 0.779266 0.909814
vt 0.779266 0.774625
vt 0.931671 0.774625
vt 0.931671 0.639437
vt 0.779266 0.639437
vt 0.931671 0.529766
vt 0.779266 0.529766
vt 0.931671 0.707031
vt 0.779266 0.707031
vt 0.679889 -0.000000
vt 0.679889 0.999998
vt 0.545063 1.000000
vt 0.545064 0.000002
vt 0.510612 1.000000
vt 0.510612 -0.000000
vt 0.580951 0.000264
vt 0.581042 0.999990
s 1
usemtl Material.006
f 48/1/1 43/2/2 4/3/3 15/4/4
f 32/5/5 27/6/5 6/7/5 17/8/5
f 17/9/6 6/10/7 8/11/7 19/12/8
f 40/13/9 35/14/10 10/15/11 21/16/12
f 4/17/13 43/18/13 44/19/13 2/20/13 12/21/13 10/22/13 35/23/13 36/24/13 8/25/13 6/26/13 27/27/13 28/28/13
f 21/29/14 10/30/14 12/31/14 23/32/14
f 23/33/15 12/34/16 2/35/16 14/36/17
f 1/37/18 41/38/18 42/39/18 3/40/18 25/41/18 26/42/18 5/43/18 7/44/18 33/45/18 34/46/18 9/47/18 11/48/18
f 11/49/19 24/50/20 13/51/20 1/52/19
f 24/50/20 23/33/15 14/36/17 13/51/20
f 9/53/14 22/54/14 24/55/14 11/56/14
f 22/54/14 21/29/14 23/32/14 24/55/14
f 34/57/21 38/58/22 22/59/23 9/60/24
f 38/58/22 40/13/9 21/16/12 22/59/23
f 5/61/25 18/62/26 20/63/27 7/64/25
f 18/62/26 17/9/6 19/12/8 20/63/27
f 26/65/5 30/66/5 18/67/5 5/68/5
f 30/66/5 32/5/5 17/8/5 18/67/5
f 42/69/28 46/70/29 16/71/30 3/72/31
f 46/70/29 48/1/1 15/4/4 16/71/30
f 16/73/5 15/74/5 31/75/5 29/76/5
f 29/76/5 31/75/5 32/5/5 30/66/5
f 3/77/5 16/73/5 29/76/5 25/78/5
f 25/78/5 29/76/5 30/66/5 26/65/5
f 15/74/5 4/79/5 28/80/5 31/75/5
f 31/75/5 28/80/5 27/6/5 32/5/5
f 20/81/32 19/82/33 39/83/34 37/84/35
f 37/84/35 39/83/34 40/13/9 38/58/22
f 7/85/36 20/81/32 37/84/35 33/86/37
f 33/86/37 37/84/35 38/58/22 34/57/21
f 19/82/33 8/87/38 36/88/39 39/83/34
f 39/83/34 36/88/39 35/14/10 40/13/9
f 13/89/40 14/90/41 47/91/42 45/92/43
f 45/92/43 47/91/42 48/1/1 46/70/29
f 1/93/44 13/89/40 45/92/43 41/94/45
f 41/94/45 45/92/43 46/70/29 42/69/28
f 14/90/41 2/95/46 44/96/47 47/91/42
f 47/91/42 44/96/47 43/2/2 48/1/1
f 88/1/48 57/4/49 50/3/50 83/2/51
f 72/5/14 59/8/14 52/7/14 67/6/14
f 59/9/52 19/12/53 8/11/54 52/10/54
f 80/13/55 61/16/56 54/15/57 75/14/58
f 50/17/59 68/28/59 67/27/59 52/26/59 8/25/59 76/24/59 75/23/59 54/22/59 56/21/59 2/20/59 84/19/59 83/18/59
f 61/29/5 63/32/5 56/31/5 54/30/5
f 63/33/60 14/36/61 2/35/62 56/34/62
f 1/37/63 55/48/63 53/47/63 74/46/63 73/45/63 7/44/63 51/43/63 66/42/63 65/41/63 49/40/63 82/39/63 81/38/63
f 55/49/64 1/52/64 13/51/65 64/50/65
f 64/50/65 13/51/65 14/36/61 63/33/60
f 53/53/5 55/56/5 64/55/5 62/54/5
f 62/54/5 64/55/5 63/32/5 61/29/5
f 74/57/66 53/60/67 62/59/68 78/58/69
f 78/58/69 62/59/68 61/16/56 80/13/55
f 51/61/70 7/64/70 20/63/71 60/62/72
f 60/62/72 20/63/71 19/12/53 59/9/52
f 66/65/14 51/68/14 60/67/14 70/66/14
f 70/66/14 60/67/14 59/8/14 72/5/14
f 82/69/73 49/72/74 58/71/75 86/70/76
f 86/70/76 58/71/75 57/4/49 88/1/48
f 58/73/14 69/76/14 71/75/14 57/74/14
f 69/76/14 70/66/14 72/5/14 71/75/14
f 49/77/14 65/78/14 69/76/14 58/73/14
f 65/78/14 66/65/14 70/66/14 69/76/14
f 57/74/14 71/75/14 68/80/14 50/79/14
f 71/75/14 72/5/14 67/6/14 68/80/14
f 20/81/77 77/84/78 79/83/79 19/82/80
f 77/84/78 78/58/69 80/13/55 79/83/79
f 7/85/81 73/86/82 77/84/78 20/81/77
f 73/86/82 74/57/66 78/58/69 77/84/78
f 19/82/80 79/83/79 76/88/83 8/87/84
f 79/83/79 80/13/55 75/14/58 76/88/83
f 13/89/85 85/92/86 87/91/87 14/90/88
f 85/92/86 86/70/76 88/1/48 87/91/87
f 1/93/89 81/94/90 85/92/86 13/89/85
f 81/94/90 82/69/73 86/70/76 85/92/86
f 14/90/88 87/91/87 84/96/91 2/95/92
f 87/91/87 88/1/48 83/2/51 84/96/91
f 91/97/93 97/98/93 92/99/93 96/100/93 95/101/93
f 93/102/94 89/103/94 91/104/94 95/105/94
f 94/106/95 93/107/95 95/108/95 96/100/95
f 91/109/96 89/110/96 90/111/96 92/112/96 97/113/96
f 93/101/97 94/100/97 90/99/97 89/97/97
f 90/103/98 94/102/98 96/105/98 92/104/98
f 100/97/99 104/101/99 105/100/99 101/99/99 106/98/99
f 102/102/100 104/105/100 100/104/100 98/103/100
f 103/106/101 105/100/101 104/108/101 102/107/101
f 100/109/102 106/113/102 101/112/102 99/111/102 98/110/102
f 102/101/103 98/97/103 99/99/103 103/100/103
f 99/103/104 101/104/104 105/105/104 103/102/104
f 177/97/137 183/98/137 178/99/137 182/100/137 181/101/137
f 179/102/138 175/103/138 177/104/138 181/105/138
f 180/106/139 179/107/139 181/108/139 182/100/139
f 177/109/140 175/110/140 176/111/140 178/112/140 183/113/140
f 179/101/141 180/100/141 176/99/141 175/97/141
f 176/103/142 180/102/142 182/105/142 178/104/142
f 188/102/143 184/103/143 186/104/143 190/105/143
f 189/106/144 188/107/144 190/108/144 191/100/144
f 190/128/145 186/129/145 187/130/145 191/131/145
f 188/101/146 189/100/146 185/99/146 184/97/146
f 185/103/147 189/102/147 191/105/147 187/104/147
f 186/132/148 184/133/148 185/134/148 187/135/148
f 196/102/149 198/105/149 194/104/149 192/103/149
f 197/106/144 199/100/144 198/108/144 196/107/144
f 198/128/150 199/131/150 195/130/150 194/129/150
f 196/101/151 192/97/151 193/99/151 197/100/151
f 193/103/152 195/104/152 199/105/152 197/102/152
f 194/132/153 195/135/153 193/134/153 192/133/153
f 202/97/154 208/98/154 203/99/154 207/100/154 206/101/154
f 204/102/155 200/103/155 202/104/155 206/105/155
f 205/106/156 204/107/156 206/108/156 207/100/156
f 202/109/157 200/110/157 201/111/157 203/112/157 208/113/157
f 204/101/158 205/100/158 201/99/158 200/97/158
f 201/103/159 205/102/159 207/105/159 203/104/159
f 211/97/160 215/101/160 216/100/160 212/99/160 217/98/160
f 213/102/161 215/105/161 211/104/161 209/103/161
f 214/106/162 216/100/162 215/108/162 213/107/162
f 211/109/163 217/113/163 212/112/163 210/111/163 209/110/163
f 213/101/164 209/97/164 210/99/164 214/100/164
f 210/103/165 212/104/165 216/105/165 214/102/165
f 288/97/198 294/98/198 289/99/198 293/100/198 292/101/198
f 290/102/199 286/103/199 288/104/199 292/105/199
f 291/106/200 290/107/200 292/108/200 293/100/200
f 288/109/201 286/110/201 287/111/201 289/112/201 294/113/201
f 290/101/202 291/100/202 287/99/202 286/97/202
f 287/103/203 291/102/203 293/105/203 289/104/203
f 299/102/204 295/103/204 297/104/204 301/105/204
f 300/106/205 299/107/205 301/108/205 302/100/205
f 301/128/206 297/129/206 298/130/206 302/131/206
f 299/101/207 300/100/207 296/99/207 295/97/207
f 296/103/208 300/102/208 302/105/208 298/104/208
f 297/132/209 295/133/209 296/134/209 298/135/209
f 307/102/210 309/105/210 305/104/210 303/103/210
f 308/106/205 310/100/205 309/108/205 307/107/205
f 309/128/211 310/131/211 306/130/211 305/129/211
f 307/101/212 303/97/212 304/99/212 308/100/212
f 304/103/213 306/104/213 310/105/213 308/102/213
f 305/132/214 306/135/214 304/134/214 303/133/214
f 313/97/215 319/98/215 314/99/215 318/100/215 317/101/215
f 315/102/216 311/103/216 313/104/216 317/105/216
f 316/106/217 315/107/217 317/108/217 318/100/217
f 313/109/218 311/110/218 312/111/218 314/112/218 319/113/218
f 315/101/219 316/100/219 312/99/219 311/97/219
f 312/103/220 316/102/220 318/105/220 314/104/220
f 322/97/221 326/101/221 327/100/221 323/99/221 328/98/221
f 324/102/222 326/105/222 322/104/222 320/103/222
f 325/106/223 327/100/223 326/108/223 324/107/223
f 322/109/224 328/113/224 323/112/224 321/111/224 320/110/224
f 324/101/225 320/97/225 321/99/225 325/100/225
f 321/103/226 323/104/226 327/105/226 325/102/226
f 399/97/259 405/98/259 400/99/259 404/100/259 403/101/259
f 401/102/260 397/103/260 399/104/260 403/105/260
f 402/106/261 401/107/261 403/108/261 404/100/261
f 399/109/262 397/110/262 398/111/262 400/112/262 405/113/262
f 401/101/263 402/100/263 398/99/263 397/97/263
f 398/103/264 402/102/264 404/105/264 400/104/264
f 410/102/265 406/103/265 408/104/265 412/105/265
f 411/106/266 410/107/266 412/108/266 413/100/266
f 412/128/267 408/129/267 409/130/267 413/131/267
f 410/101/268 411/100/268 407/99/268 406/97/268
f 407/103/269 411/102/269 413/105/269 409/104/269
f 408/132/270 406/133/270 407/134/270 409/135/270
f 418/102/271 420/105/271 416/104/271 414/103/271
f 419/106/266 421/100/266 420/108/266 418/107/266
f 420/128/272 421/131/272 417/130/272 416/129/272
f 418/101/273 414/97/273 415/99/273 419/100/273
f 415/103/274 417/104/274 421/105/274 419/102/274
f 416/132/275 417/135/275 415/134/275 414/133/275
usemtl Material.007
f 116/114/105 115/115/106 110/116/107 109/117/107
f 107/118/108 108/119/108 113/120/108 111/121/108
f 114/122/109 112/123/109 115/115/106 116/114/105
f 111/121/110 113/120/110 112/123/110 114/122/110
f 126/114/111 119/117/112 120/116/112 125/115/113
f 117/118/114 121/121/114 123/120/114 118/119/114
f 124/122/115 126/114/111 125/115/113 122/123/115
f 121/121/116 124/122/116 122/123/116 123/120/116
f 138/124/117 137/125/117 130/116/117 129/117/117
f 127/118/118 128/119/118 133/120/118 131/121/118
f 134/122/119 132/123/119 135/115/119 136/114/119
f 139/126/120 140/127/120 132/123/120 134/122/120
f 136/114/121 135/115/121 137/125/121 138/124/121
f 131/121/122 133/120/122 140/127/122 139/126/122
f 152/124/123 143/117/123 144/116/123 151/125/123
f 141/118/124 145/121/124 147/120/124 142/119/124
f 148/122/125 150/114/125 149/115/125 146/123/125
f 153/126/126 148/122/126 146/123/126 154/127/126
f 150/114/127 152/124/127 151/125/127 149/115/127
f 145/121/128 153/126/128 154/127/128 147/120/128
f 164/114/129 163/115/129 158/116/129 157/117/129
f 155/118/130 156/119/130 161/120/130 159/121/130
f 162/122/131 160/123/131 163/115/131 164/114/131
f 159/121/132 161/120/132 160/123/132 162/122/132
f 174/114/133 167/117/133 168/116/133 173/115/133
f 165/118/134 169/121/134 171/120/134 166/119/134
f 172/122/135 174/114/135 173/115/135 170/123/135
f 169/121/136 172/122/136 170/123/136 171/120/136
f 227/114/166 226/115/167 221/116/168 220/117/168
f 218/118/169 219/119/169 224/120/169 222/121/169
f 225/122/170 223/123/170 226/115/167 227/114/166
f 222/121/171 224/120/171 223/123/171 225/122/171
f 237/114/172 230/117/173 231/116/173 236/115/174
f 228/118/175 232/121/175 234/120/175 229/119/175
f 235/122/176 237/114/172 236/115/174 233/123/176
f 232/121/177 235/122/177 233/123/177 234/120/177
f 249/124/178 248/125/178 241/116/178 240/117/178
f 238/118/179 239/119/179 244/120/179 242/121/179
f 245/122/180 243/123/180 246/115/180 247/114/180
f 250/126/181 251/127/181 243/123/181 245/122/181
f 247/114/182 246/115/182 248/125/182 249/124/182
f 242/121/183 244/120/183 251/127/183 250/126/183
f 263/124/184 254/117/184 255/116/184 262/125/184
f 252/118/185 256/121/185 258/120/185 253/119/185
f 259/122/186 261/114/186 260/115/186 257/123/186
f 264/126/187 259/122/187 257/123/187 265/127/187
f 261/114/188 263/124/188 262/125/188 260/115/188
f 256/121/189 264/126/189 265/127/189 258/120/189
f 275/114/190 274/115/190 269/116/190 268/117/190
f 266/118/191 267/119/191 272/120/191 270/121/191
f 273/122/192 271/123/192 274/115/192 275/114/192
f 270/121/193 272/120/193 271/123/193 273/122/193
f 285/114/194 278/117/194 279/116/194 284/115/194
f 276/118/195 280/121/195 282/120/195 277/119/195
f 283/122/196 285/114/196 284/115/196 281/123/196
f 280/121/197 283/122/197 281/123/197 282/120/197
f 338/114/227 337/115/228 332/116/229 331/117/229
f 329/118/230 330/119/230 335/120/230 333/121/230
f 336/122/231 334/123/231 337/115/228 338/114/227
f 333/121/232 335/120/232 334/123/232 336/122/232
f 348/114/233 341/117/234 342/116/234 347/115/235
f 339/118/236 343/121/236 345/120/236 340/119/236
f 346/122/237 348/114/233 347/115/235 344/123/237
f 343/121/238 346/122/238 344/123/238 345/120/238
f 360/124/239 359/125/239 352/116/239 351/117/239
f 349/118/240 350/119/240 355/120/240 353/121/240
f 356/122/241 354/123/241 357/115/241 358/114/241
f 361/126/242 362/127/242 354/123/242 356/122/242
f 358/114/243 357/115/243 359/125/243 360/124/243
f 353/121/244 355/120/244 362/127/244 361/126/244
f 374/124/245 365/117/245 366/116/245 373/125/245
f 363/118/246 367/121/246 369/120/246 364/119/246
f 370/122/247 372/114/247 371/115/247 368/123/247
f 375/126/248 370/122/248 368/123/248 376/127/248
f 372/114/249 374/124/249 373/125/249 371/115/249
f 367/121/250 375/126/250 376/127/250 369/120/250
f 386/114/251 385/115/251 380/116/251 379/117/251
f 377/118/252 378/119/252 383/120/252 381/121/252
f 384/122/253 382/123/253 385/115/253 386/114/253
f 381/121/254 383/120/254 382/123/254 384/122/254
f 396/114/255 389/117/255 390/116/255 395/115/255
f 387/118/256 391/121/256 393/120/256 388/119/256
f 394/122/257 396/114/257 395/115/257 392/123/257
f 391/121/258 394/122/258 392/123/258 393/120/258
