# Blender 4.4.1
# www.blender.org
mtllib Tape.mtl
o Plane.004
v -1.158917 18.035582 13.890368
v -0.026380 18.567394 12.182651
v -2.504986 18.341816 10.870575
v -3.421504 17.913755 12.625239
v -1.053123 16.903263 13.729462
v 0.230677 17.759361 12.069354
v -2.319253 17.129915 10.215473
v -3.400567 16.614132 11.940286
v 0.795373 16.422405 14.122386
v 1.522175 17.560093 12.908990
v -4.026300 16.346003 9.376656
v -4.973658 15.866945 10.795424
v 0.180458 18.116455 12.144558
v -0.991727 17.544956 13.839134
v -1.893017 18.132835 13.504649
v -3.731139 17.471695 12.097771
v -0.827853 18.633371 11.787724
v -2.692743 17.965199 10.364217
v -4.897511 15.902965 10.998946
v -3.771117 16.489422 9.338669
v 1.380487 17.690083 12.653049
v 0.473380 16.496937 14.124775
v 0.765147 17.840996 12.284838
v -0.126126 16.494223 14.011443
v -0.522250 18.343174 12.973946
v -2.969891 18.171268 11.620045
v -0.228213 17.411293 12.800066
v -2.815403 16.893898 11.006291
v -4.492562 16.203365 10.016804
v -0.307189 17.858627 12.922835
v 1.208176 17.146275 13.467142
v -1.317926 18.458733 12.570099
v -3.180224 17.742344 11.144544
v -4.327007 16.275826 10.130772
v 0.967869 17.197620 13.353060
v 0.368124 17.335606 13.093372
v 0.370217 17.746460 12.108787
v -0.840687 16.657877 13.794408
v -0.073298 17.335537 12.858947
v -4.444146 16.137712 11.317889
v -3.320056 16.680552 9.624463
v -3.863991 16.456003 10.416479
v 0.987569 16.721823 13.860037
v -1.630513 18.310871 13.071921
v -3.488351 17.595654 11.649137
v -4.653541 16.133978 10.624662
v 0.702250 16.831488 13.773823
v 0.104344 16.905504 13.591240
v -0.846066 18.190100 13.474233
v -3.257704 18.035488 12.128157
v -0.642822 17.145918 13.295404
v -3.131072 16.744066 11.510575
v -4.795763 16.060978 10.474947
v -0.651029 17.688255 13.421596
v -0.463639 16.988697 13.358059
v -4.202659 16.327467 10.959790
v -3.631043 16.472378 11.796860
v -3.047151 16.759041 10.870197
v -2.539003 16.991716 10.078923
v -3.369643 16.615976 11.388188
v -3.548383 16.889793 11.939607
v -2.467898 17.405300 10.214264
v -2.963120 17.169027 11.005046
v -3.278261 17.018671 11.508270
v -1.400605 18.131477 13.774925
v 0.111065 18.363796 12.189943
v -0.291247 18.448133 12.605295
v -3.725569 17.722031 12.299843
v -2.752047 18.253418 11.269170
v -1.020926 17.198400 13.772766
v 0.277952 17.715021 12.075129
v -0.003089 17.577625 12.456716
v -3.435225 16.556337 11.911137
v -2.584222 17.003786 10.637671
v -2.691082 18.054712 13.074294
v -0.284930 18.659124 12.066498
v -1.717832 18.509192 11.335784
v 0.661259 16.443129 14.148626
v -3.885529 16.418034 9.287688
v -4.253161 16.272495 9.668272
v -3.650665 17.168167 11.985523
v -2.765542 18.174347 10.551335
v -2.372565 17.226116 10.210938
v 0.208993 17.900846 12.096589
v -1.032459 17.835920 13.894724
v -0.077668 17.979471 12.559618
v 0.898462 16.532433 14.014452
v -1.762337 18.225540 13.288180
v -3.611795 17.533306 11.872157
v -4.973358 15.853706 10.900945
v -3.602324 16.567612 9.450054
v -4.778049 16.029182 10.816310
v 1.529184 17.639408 12.767335
v 0.210994 16.495018 14.082722
v 0.587815 16.664211 13.949299
v 1.087725 17.778152 12.471950
v -0.512579 16.561626 13.901588
v -0.010892 16.699863 13.801342
v -0.697885 18.261410 13.252226
v -3.136381 18.099718 11.893029
v -0.439162 17.270699 13.069985
v -2.990236 16.811026 11.285517
v -4.667865 16.140129 10.279484
v -0.490130 17.764851 13.199270
v 1.383012 17.377985 13.173479
v -1.089386 18.542618 12.205240
v -2.952786 17.846724 10.780555
v -4.069934 16.373219 9.761552
v 1.160397 17.432007 13.029233
v 0.554144 17.581242 12.718230
v 0.687304 17.271046 13.234637
v 1.126517 17.159639 13.424495
v -2.850367 16.837765 10.978909
v 0.107110 17.349426 12.961210
v -0.263693 17.599407 12.850163
v -4.426625 16.233391 10.063033
v -2.192662 18.346151 12.097978
v -0.383291 18.126335 12.979226
v -3.238588 17.978157 11.312119
v -2.867903 16.989874 11.001724
v -0.781047 18.459183 12.857446
v 0.524972 17.812984 12.168722
v -1.012734 16.745787 13.734524
v -0.175662 17.336895 12.802580
v 0.143475 17.534990 12.507402
v -0.652164 16.823288 13.576234
v -4.734626 15.997385 11.128302
v -2.913110 16.842400 9.863368
v -4.156524 16.344131 10.241489
v -3.610121 16.557144 10.040711
v -4.327989 16.241112 11.151142
v 1.080191 16.927055 13.689181
v -1.491287 18.385056 12.847234
v -3.352639 17.661581 11.421717
v -4.513669 16.206207 10.409054
v 0.821279 17.002710 13.589622
v 0.223743 17.113497 13.371431
v -0.999287 18.114765 13.683440
v -3.347579 17.974087 12.371767
v -0.847297 17.024385 13.512677
v -3.265924 16.679264 11.725724
v -4.904359 15.953705 10.649339
v -0.818097 17.616085 13.631498
v -0.273454 17.156111 13.132039
v -4.056009 16.389126 10.720677
v -3.167679 16.689564 11.486496
v -0.214737 16.947788 13.467211
v -1.102054 18.306803 13.357851
v -3.183110 16.839582 11.505081
v -3.533654 17.838333 11.819206
v 0.431120 16.869801 13.696307
v 0.874709 16.780676 13.824385
v -4.492403 16.210381 10.765302
v -0.597719 17.032051 13.297740
v -0.643800 17.385241 13.347141
v -4.741800 16.089197 10.535604
v -2.489931 18.205967 12.603397
v -0.710616 17.972582 13.479107
v -4.020895 16.316231 11.570717
v -3.438861 16.614391 10.655231
v -2.351327 17.072977 10.187982
v -3.770841 16.480553 11.191386
v -3.226903 16.680828 11.157887
v -3.501811 16.546471 11.596623
v -2.810116 16.866404 10.499156
v -3.453153 16.710575 11.936214
v -2.575443 17.680923 10.259154
v -3.069696 17.446327 11.048630
v -3.383961 17.296429 11.552025
v -3.413322 16.954233 11.723939
v -3.137574 17.085794 11.283617
v -2.732392 17.279110 10.636613
v -0.549939 18.553822 12.488943
v -2.839379 17.555696 10.680753
v -3.017284 18.071203 10.956435
v -0.867910 17.904636 13.688107
v -2.595679 18.132019 12.835879
v -4.861472 15.979918 10.721889
v -0.830346 17.291271 13.560675
v -0.805142 16.888893 13.516163
v -4.617421 16.114050 10.956192
v 0.768776 16.607399 13.989143
v 0.321056 16.682409 13.889513
v 0.873992 17.514675 12.881514
v 1.316604 17.392668 13.116757
v -3.898915 16.444918 9.868514
v 0.048166 17.519093 12.460624
v -0.036533 17.742081 12.497252
v -4.174491 16.319263 9.698281
v -1.970600 18.425110 11.741695
v -0.152679 18.237122 12.611418
v -3.407206 17.902254 11.586673
v -3.243895 17.363403 11.327026
v -0.956368 18.381145 13.135690
v 0.307040 17.575401 12.591825
v -0.363658 16.754707 13.684401
v -3.193315 16.718216 10.280951
v -3.899216 16.403795 11.390341
v -3.625528 16.542696 10.954249
v -0.062814 17.142803 13.241069
v -1.249197 18.222624 13.567458
v -3.517569 17.232252 11.768613
v -3.635476 17.779240 12.055826
v 0.545689 17.060497 13.493692
v 0.985336 16.959692 13.649841
v -4.347862 16.276470 10.535527
v -0.389585 17.177584 13.071960
v -0.460914 17.483728 13.123248
v -4.607692 16.165628 10.331292
v -2.361822 18.275175 12.372535
v -0.559892 18.041899 13.257192
v -3.026385 16.756016 11.260174
v -3.301886 16.623629 11.700028
v -2.617775 16.947044 10.609706
v -3.318145 16.775099 11.720685
v -3.042404 16.906685 11.280377
v -2.637119 17.099932 10.633268
v -9.344570 5.004346 -2.207726
v -9.194931 6.919395 -1.359083
v -9.516586 7.903970 -3.960923
v -9.666225 5.988920 -4.809565
v -8.263855 4.860456 -1.986137
v -8.368142 6.576715 -1.173815
v -8.441104 8.055393 -4.529648
v -8.535361 6.142755 -5.378006
v -8.083761 4.453156 -0.722251
v -8.178218 5.994671 -0.096317
v -8.042917 8.723759 -6.312291
v -7.984945 7.235462 -6.995837
v -8.702410 6.829949 -1.293631
v -8.799509 4.961639 -2.137354
v -9.622984 5.328494 -3.000790
v -9.218127 6.257928 -5.222538
v -9.473346 7.243543 -2.152147
v -9.068490 8.172978 -4.373896
v -7.998852 6.957180 -6.816924
v -8.087085 8.757606 -5.994351
v -8.232209 6.246744 -0.339955
v -8.110446 4.437596 -1.100461
v -8.193286 6.498131 -6.041557
v -8.301672 8.381094 -5.199208
v -9.269752 5.961871 -1.783405
v -9.591406 6.946445 -4.385244
v -8.317261 5.738492 -1.592251
v -8.536267 7.163959 -4.944438
v -8.091729 8.006779 -6.665008
v -8.752987 5.899686 -1.719908
v -8.096346 5.234042 -0.363172
v -9.548164 6.286018 -2.576468
v -9.150702 7.231875 -4.795846
v -8.149524 7.877510 -6.392671
v -8.139122 5.367748 -0.697681
v -8.346334 7.457004 -5.615777
v -9.513132 5.112947 -2.442226
v -8.954094 6.874909 -1.284131
v -9.232342 6.440633 -1.571244
v -9.502708 6.199437 -5.174199
v -9.553996 7.425208 -4.173083
v -8.498291 4.950068 -2.144609
v -8.281445 6.397964 -0.773398
v -8.342938 6.161336 -1.385335
v -8.326095 6.262992 -5.654486
v -8.497693 7.621842 -4.735283
v -9.690243 5.658240 -3.941782
v -9.363494 7.027997 -1.593584
v -9.540606 7.573291 -3.093139
v -8.093371 4.347861 -0.854850
v -8.036159 8.819942 -6.190259
v -8.078852 8.425223 -6.470618
v -8.861229 6.187603 -5.251068
v -9.353070 8.114487 -4.325557
v -8.718513 8.102352 -4.402461
v -8.505173 6.729263 -1.312190
v -9.097164 4.965703 -2.132158
v -8.728077 6.365547 -1.507597
v -8.081293 4.786124 -0.554421
v -9.585573 5.807256 -2.788629
v -9.185801 6.747981 -5.008747
v -7.965893 7.074137 -6.991535
v -8.200456 8.595654 -5.634809
v -8.094167 7.421117 -6.602365
v -8.205112 6.149135 -0.120202
v -8.148716 4.652787 -1.557966
v -8.118745 4.907468 -0.894847
v -8.081378 6.754863 -6.467164
v -8.340240 8.168304 -4.807305
v -8.288346 6.980829 -5.827804
v -9.307160 5.483108 -1.995565
v -9.628815 6.467683 -4.597404
v -8.290793 5.303206 -1.791496
v -8.544820 6.665523 -5.159461
v -8.045623 7.572119 -6.862433
v -8.776628 5.431392 -1.929459
v -8.135437 5.669734 -0.195629
v -9.510755 6.764781 -2.364307
v -9.110982 7.705506 -4.584426
v -8.138284 8.321329 -6.191079
v -8.179627 5.812042 -0.514594
v -8.342538 7.922310 -5.406629
v -8.409701 7.261075 -5.224024
v -8.110086 5.272447 -0.454670
v -8.247772 7.687553 -6.043125
v -8.200368 5.549579 -1.162213
v -8.506704 5.851398 -1.740421
v -8.103302 7.971784 -6.578941
v -9.615423 6.615765 -3.517461
v -9.025883 5.920793 -1.708697
v -9.428814 7.159015 -4.749581
v -8.813437 7.192091 -4.819959
v -9.438313 6.070472 -2.017905
v -9.400903 6.549235 -1.805744
v -8.770392 7.656055 -4.609934
v -9.391116 7.637136 -4.537513
v -9.061571 5.443338 -1.920531
v -9.652833 6.137003 -3.729620
v -8.053016 7.521456 -6.786328
v -8.503430 5.402933 -1.944769
v -8.171784 5.105721 -1.359439
v -8.184611 7.223513 -6.253670
v -8.094116 4.807946 -0.650944
v -8.382247 6.770551 -5.437967
v -8.389319 7.723207 -5.014376
v -8.150769 5.721390 -0.278420
v -8.244149 8.143908 -5.837493
v -8.238148 5.978309 -0.967155
v -8.506871 6.292531 -1.528559
v -8.088631 8.406723 -6.380013
v -9.578013 7.094528 -3.305300
v -8.990036 6.397942 -1.496517
v -9.465936 6.679611 -4.961834
v -8.841751 6.698681 -5.034238
v -9.475721 5.591710 -2.230065
v -5.556275 15.517839 -5.338036
v -4.109059 16.448029 -6.305708
v -5.014796 15.529879 -8.870953
v -6.769364 14.193851 -7.645708
v -4.812325 14.151957 -5.154482
v -3.305327 15.181602 -6.195867
v -4.423180 14.143353 -8.826076
v -5.879660 13.251040 -7.719497
v -3.929675 14.876535 -4.942415
v -2.815226 15.533430 -5.357569
v -4.732749 12.089683 -9.673945
v -5.823349 11.569126 -8.918642
v -3.721162 16.034218 -6.137953
v -5.228666 15.060750 -5.124630
v -5.932845 15.374713 -5.780669
v -6.416658 13.831152 -7.856281
v -4.417387 16.402863 -6.847607
v -4.941991 14.836788 -8.962036
v -6.030490 12.009486 -8.334137
v -4.482799 12.541628 -9.661894
v -2.688698 15.589102 -5.627990
v -4.323044 14.606011 -4.945143
v -5.890272 12.636073 -7.955265
v -4.339410 13.334417 -9.154123
v -3.144525 15.281044 -6.021074
v -4.679869 14.271599 -5.071201
v -4.945462 14.496899 -5.067663
v -3.429154 15.508411 -6.105296
v -6.376786 14.726477 -6.714460
v -4.738317 16.023567 -7.907411
v -5.738206 15.532128 -5.507903
v -3.917246 16.281805 -6.195541
v -4.832667 15.982934 -5.821872
v -6.676072 14.019947 -7.840368
v -5.892081 14.861865 -8.258331
v -4.861724 14.276305 -5.114942
v -3.259964 15.181515 -6.152973
v -4.058826 14.666780 -5.675174
v -5.830229 12.940386 -7.795562
v -5.151419 13.697196 -8.272786
v -6.140530 15.074286 -6.200301
v -4.269919 16.484074 -6.510251
v -4.897031 15.797398 -8.467884
v -4.196012 14.709218 -4.898457
v -4.521017 12.312879 -9.769754
v -5.275990 11.771197 -9.335906
v -6.107017 13.563678 -7.773640
v -5.047950 15.196088 -9.007565
v -4.682117 14.493284 -8.863395
v -3.553796 15.764077 -6.102215
v -5.388546 15.336695 -5.214251
v -4.474913 15.547484 -5.631292
v -3.365849 15.211540 -5.134694
v -5.175116 15.888788 -6.314139
v -5.679325 14.333970 -8.409160
v -6.038217 11.697417 -8.584969
v -4.417542 12.900736 -9.426403
v -5.256646 12.275557 -8.998015
v -2.609457 15.646858 -5.498732
v -4.502098 14.446121 -5.007203
v -3.505871 15.097556 -5.286566
v -5.966516 12.330307 -8.132855
v -4.317720 13.756718 -8.932817
v -5.114841 12.985245 -8.554694
v -2.916681 15.440584 -5.820843
v -4.771199 14.158290 -5.132073
v -3.912197 14.776321 -5.546138
v -5.074107 14.768491 -5.071304
v -3.351521 15.300652 -6.157635
v -4.187309 15.002655 -5.586480
v -6.630568 14.425611 -7.237358
v -4.574046 16.235439 -7.334907
v -5.557552 15.375022 -7.310936
v -5.004063 16.008101 -6.009077
v -5.394567 14.028481 -8.318519
v -5.862010 14.608017 -8.423966
v -4.652896 15.809250 -5.704896
v -5.763799 15.111504 -7.852622
v -5.279384 11.998542 -9.181857
v -4.313951 15.266284 -5.586761
v -4.015582 14.669903 -5.642523
v -5.192030 12.615521 -8.779630
v -3.401986 15.178782 -5.196859
v -5.073975 13.348552 -8.364187
v -3.709389 14.943353 -5.414023
v -4.106624 14.788479 -5.636289
v -5.357287 15.654862 -6.767604
v 5.163943 15.855852 0.716919
v 5.509492 15.782023 -1.273688
v 3.048098 17.086315 -1.566491
v 2.731756 17.214315 0.478467
v 4.725331 14.806330 0.631260
v 5.179126 14.727934 -1.319112
v 2.022801 16.251869 -1.936123
v 1.719156 16.154316 0.106692
v 5.880342 13.666649 0.362479
v 6.058043 13.559707 -1.056479
v 0.442159 15.960232 -1.727459
v 0.234213 15.770754 -0.365786
v 5.360715 15.243209 -1.361835
v 5.013996 15.353965 0.667262
v 4.358055 16.473057 0.728979
v 2.183147 16.947493 0.205285
v 4.736766 16.286755 -1.208751
v 2.481623 16.866138 -1.862192
v 0.581053 15.762223 0.010137
v 0.895385 16.181078 -2.051802
v 5.777732 13.951923 -1.495490
v 5.467393 14.091119 0.577587
v 4.913622 16.127876 0.745953
v 5.503124 15.517611 -1.341500
v 5.336717 15.818937 -0.278384
v 2.334704 17.210970 0.324343
v 2.889927 17.150314 -0.544012
v 4.778738 15.102454 0.654553
v 5.435419 14.340816 -1.409852
v 4.952228 14.767132 -0.343926
v 1.147062 15.892611 0.058549
v 1.870979 16.203093 -0.914716
v 3.513317 16.903191 0.629096
v 5.285235 15.997597 -1.201483
v 3.865027 16.730927 -1.355617
v 5.733672 13.835573 0.590459
v 0.589122 16.094618 -2.024270
v 0.313427 15.848517 -1.046557
v 2.037864 16.546547 0.143780
v 2.635026 17.107290 -1.746850
v 2.337760 16.520544 -1.907552
v 5.193601 15.006338 -1.325630
v 5.176159 15.601954 0.687261
v 5.187355 15.298587 -0.347286
v 5.999560 13.566442 -0.318818
v 4.547411 16.379906 -0.239887
v 2.332385 16.906815 -0.828453
v 0.289323 15.732885 -0.062796
v 1.457086 16.183226 -1.995383
v 0.738219 15.971650 -1.020833
v 5.992868 13.685531 -1.428625
v 5.038367 14.442447 0.589595
v 5.622563 14.021522 -0.458953
v 5.099429 16.062737 -0.227765
v 2.187812 16.533546 -0.881886
v 2.484865 17.159130 -0.711253
v 5.339642 15.559782 -0.327120
v 3.689172 16.817059 -0.363260
v 0.436413 15.911826 -1.043525
v 4.986169 15.054397 -0.335539
v 5.236892 14.391630 -0.410128
v 1.302075 16.037918 -0.968417
v 5.866715 13.755249 -0.415885
v -0.705643 8.351744 -14.697749
v -0.636936 10.252384 -14.136004
v 2.078970 10.306217 -14.126854
v 2.087551 7.948456 -14.700749
v -0.972830 8.083332 -13.532530
v -0.855872 10.010085 -12.894723
v 2.751178 9.685307 -12.830774
v 2.567012 7.689542 -13.417912
v -1.857102 8.313028 -13.126655
v -1.974632 9.582964 -12.641937
v 4.100390 8.562413 -12.253653
v 3.964284 7.329042 -12.748542
v -0.679180 10.154694 -13.500273
v -0.784433 8.172812 -14.046661
v 0.158312 8.218962 -14.875367
v 2.561363 7.961060 -14.194655
v 0.199708 10.249823 -14.221023
v 2.630045 10.077469 -13.665284
v 3.311962 7.232341 -13.085878
v 3.765668 9.089974 -12.285223
v -1.699780 9.908403 -12.579877
v -1.586679 8.014994 -13.288602
v -0.446858 8.330091 -14.848804
v -0.698575 10.218390 -13.861814
v -0.671290 9.302064 -14.416875
v 2.510633 7.948702 -14.499831
v 2.083260 9.127337 -14.413802
v -0.820853 8.115112 -13.752945
v -1.267341 9.949123 -12.698545
v -0.914351 9.046709 -13.213627
v 2.659095 8.687424 -13.124343
v 1.156260 8.060409 -14.823564
v -0.386693 10.247696 -14.230325
v 1.163291 10.292286 -14.196730
v -1.764982 8.042378 -13.236909
v 4.033881 8.890432 -12.193464
v 4.083513 7.926802 -12.478349
v 2.507497 7.873205 -13.788065
v 2.533870 10.223009 -13.958064
v 2.608507 9.910669 -13.254887
v -0.684861 10.081581 -13.166184
v -0.779518 8.275171 -14.397354
v -0.731806 9.163753 -13.773467
v -1.933745 8.948692 -12.883581
v 0.179010 9.234392 -14.548196
v 2.595705 9.019264 -13.929970
v 3.696451 7.132897 -12.948627
v 3.538815 8.161158 -12.685550
v -1.924894 9.854169 -12.547119
v -1.275737 8.046635 -13.379333
v -1.643229 8.961699 -12.934238
v 2.878399 7.451557 -13.207369
v 3.233697 9.376816 -12.500065
v -0.416776 9.288893 -14.539563
v 2.558002 8.891937 -13.521475
v 2.522252 9.085855 -14.228948
v -0.739047 9.246780 -14.129583
v 1.159775 9.176348 -14.510146
v 3.870973 8.009518 -12.568464
v -0.752858 9.098347 -13.459565
v -1.271539 8.997879 -13.038939
v -1.846966 8.948353 -12.891932
v 3.056047 8.414186 -12.853716
v 7.889407 6.505886 -5.504478
v 8.027745 8.324034 -4.462748
v 8.267806 6.773032 -2.143443
v 8.129467 4.954885 -3.185173
v 6.834600 6.674014 -5.590168
v 7.179270 8.313168 -4.710218
v 7.151562 6.554682 -1.634387
v 7.004778 4.736995 -2.675319
v 6.789722 7.511797 -6.681720
v 7.011970 8.926697 -5.898902
v 6.729196 5.557992 -0.015291
v 6.691871 4.176971 -0.896614
v 7.534388 8.387741 -4.548783
v 7.349834 6.607618 -5.553264
v 8.144021 6.023910 -4.787257
v 7.686374 4.838943 -2.701511
v 8.282360 7.842059 -3.745526
v 7.824714 6.657091 -1.659781
v 6.705308 4.157715 -1.234524
v 6.774018 5.836997 -0.183122
v 7.056179 8.935577 -5.641241
v 6.790090 7.248955 -6.582456
v 6.765700 4.468361 -2.021100
v 6.922204 6.256986 -0.980465
v 7.958576 7.414960 -4.983613
v 8.198637 5.863957 -2.664309
v 7.008029 7.492282 -5.120427
v 7.124486 5.689950 -2.111190
v 6.716418 4.855913 -0.403056
v 7.444244 7.496154 -5.045377
v 6.857721 8.274071 -6.315298
v 8.213191 6.932984 -4.266391
v 7.764958 5.758558 -2.169235
v 6.757714 5.001081 -0.674694
v 6.871485 8.144010 -6.109802
v 6.889874 5.381359 -1.490080
v 7.061033 8.596308 -5.153774
v 6.769323 6.944692 -6.089571
v 6.878710 7.797535 -5.588331
v 8.051590 6.359700 -5.286477
v 7.789604 8.389161 -4.530915
v 7.993162 7.869498 -4.723181
v 7.964986 4.806798 -2.791435
v 8.233222 6.318496 -2.403876
v 7.051604 6.625801 -5.529754
v 7.096291 8.415934 -4.903932
v 7.093855 7.902479 -4.909742
v 6.833848 4.616896 -2.421105
v 7.146708 6.130588 -1.864602
v 8.179169 5.453908 -3.967143
v 8.189929 8.177848 -4.244748
v 8.317509 7.272057 -2.925414
v 6.788031 7.345726 -6.694358
v 6.739483 5.714108 -0.010656
v 6.724277 5.252791 -0.165220
v 7.325030 4.821257 -2.724158
v 8.103325 6.624949 -1.749705
v 7.464425 6.639349 -1.682528
v 7.325492 8.331264 -4.596711
v 7.645488 6.575765 -5.567988
v 7.489717 7.941661 -4.796022
v 6.809341 7.851139 -6.535340
v 8.178605 6.478448 -4.526824
v 7.727431 5.300728 -2.433233
v 6.692756 4.093064 -1.042623
v 6.844435 6.034918 -0.539913
v 6.734896 4.580097 -0.948210
v 7.048388 9.002309 -5.776819
v 6.784414 7.111867 -6.367972
v 6.821103 7.706184 -6.345744
v 6.728660 4.301138 -1.585631
v 6.994515 6.430261 -1.381406
v 6.836397 4.928364 -1.753583
v 7.923991 6.960423 -5.244045
v 8.164052 5.409421 -2.924741
v 6.921520 7.082902 -5.349717
v 7.073318 5.221744 -2.385068
v 6.702882 4.461179 -0.670403
v 7.397439 7.051599 -5.298262
v 6.936736 8.662172 -6.086623
v 8.247775 7.387521 -4.005960
v 7.796600 6.209801 -1.912369
v 6.769251 5.419737 -0.422509
v 6.954147 8.549496 -5.875137
v 6.914649 5.822676 -1.233265
v 6.966372 5.559526 -1.873244
v 6.866594 8.229592 -6.243114
v 6.818249 5.176012 -1.045380
v 6.871576 7.990273 -5.875863
v 7.193752 7.474746 -5.046102
v 6.727556 4.904177 -0.483243
v 8.248339 6.362984 -3.446278
v 7.717813 7.482272 -5.048746
v 8.035333 5.717192 -2.269143
v 7.422879 5.760852 -2.170783
v 8.120760 7.268775 -4.765613
v 7.054037 8.785159 -5.420293
v 6.760688 6.787047 -5.799622
v 6.912128 7.612056 -5.315028
v 6.963034 8.201990 -5.364801
v 6.817179 7.376183 -5.832699
v 8.155344 7.723311 -4.505179
v 7.448930 6.205828 -1.920551
v 8.069550 6.171317 -2.009157
v 7.681701 7.028984 -5.308235
v 8.213753 5.908446 -3.706711
v 6.712046 4.492741 -0.758280
v 7.123653 7.049562 -5.284716
v 6.833341 7.201532 -5.550434
v 6.779399 4.740071 -1.312245
v 6.816895 7.792174 -6.473746
v 6.909896 5.094952 -2.141922
v 6.990229 6.001633 -1.622073
v 6.948919 8.632219 -6.008473
v 6.837286 5.606962 -0.789385
v 7.001142 8.015976 -5.102588
v 7.260597 7.902296 -4.818194
v 6.735720 5.314736 -0.234975
v 8.282924 6.817520 -3.185846
v 7.753758 7.935681 -4.789699
v 8.000380 5.262242 -2.530022
v 7.379232 5.296782 -2.441366
v 8.086175 6.814237 -5.026045
v 6.953873 8.395546 -5.644653
v 6.819061 7.558899 -6.118492
v 7.043118 9.900189 4.567485
v 6.611804 11.850337 4.525836
v 5.875136 11.973197 7.145929
v 6.372673 9.534224 7.270898
v 6.960442 9.636932 3.800905
v 6.688706 11.600840 3.860102
v 5.324733 11.552302 8.004599
v 5.863071 9.526552 8.080404
v 7.014838 9.786225 3.157620
v 6.831114 11.451996 2.943733
v 5.579249 11.364186 9.259510
v 6.067137 9.768168 9.398424
v 6.474762 11.744677 4.278106
v 6.922618 9.756149 4.269773
v 7.012776 9.801714 5.463298
v 5.868645 9.581032 7.707854
v 6.515533 11.915137 5.389686
v 5.347138 11.714218 7.631398
v 6.077500 9.593719 9.060860
v 5.503562 11.578999 8.920322
v 6.748366 11.608344 3.151603
v 6.990891 9.623747 3.345894
v 6.899514 10.890084 4.555057
v 6.123904 10.753710 7.208413
v 7.022511 10.620833 3.930925
v 5.593903 10.539427 8.042501
v 5.819449 10.555942 9.357933
v 6.848597 10.742847 4.299747
v 7.062484 10.598862 3.094505
v 6.775554 10.862913 5.428293
v 5.607891 10.647625 7.669626
v 5.790530 10.586359 8.990590
v 7.095727 10.624735 3.372022
v 7.092030 9.890972 4.864777
v 6.519365 11.808649 4.383932
v 6.769170 11.372990 4.542021
v 6.064138 9.541357 7.634829
v 5.999521 11.363453 7.177170
v 6.929136 9.682951 4.058086
v 6.741545 11.591355 3.491992
v 6.892721 11.111201 3.914342
v 5.459317 11.045865 8.023550
v 6.735242 9.648411 6.411407
v 6.633429 11.877895 4.811553
v 6.231750 11.970243 6.304985
v 6.994146 9.647290 3.219615
v 5.539887 11.536559 9.164186
v 5.680044 11.010615 9.313860
v 5.811472 9.558556 7.806151
v 5.557613 11.865660 7.528053
v 5.281871 11.601865 7.741906
v 6.563521 11.662673 4.120275
v 6.969244 9.841970 4.410569
v 6.689788 11.242343 4.293765
v 7.061837 10.129251 3.132860
v 6.896302 10.333155 5.446135
v 5.738268 10.114328 7.688740
v 6.109850 9.632318 9.320074
v 5.934016 10.090040 9.025725
v 6.765229 11.597552 2.973266
v 6.982259 9.621830 3.549456
v 7.085702 10.125870 3.382072
v 5.974928 9.549717 8.573277
v 5.418873 11.562149 8.466097
v 6.984826 10.397915 4.562845
v 6.248289 10.143967 7.239655
v 7.028589 10.129249 3.884744
v 5.728487 10.032990 8.061453
v 5.959805 10.103868 9.394650
v 6.913715 10.248079 4.289598
v 6.960014 11.084055 3.011385
v 6.647680 11.389866 5.409328
v 5.477515 11.180921 7.650512
v 5.647047 11.082679 8.955456
v 6.964440 11.118168 3.284926
v 5.696900 10.555933 8.519687
v 7.085408 10.617705 3.201243
v 7.080135 10.616227 3.642015
v 6.922870 10.666109 4.150949
v 5.824392 10.583139 9.245808
v 6.484921 10.809889 6.358421
v 6.857225 10.829273 4.408255
v 5.810876 10.703508 7.581441
v 5.546672 10.580210 7.774028
v 6.898809 10.896944 4.843494
v 6.772884 11.389765 4.828523
v 5.414270 11.091038 7.757967
v 5.684245 11.284584 7.554746
v 6.934408 10.336366 4.411475
v 6.610348 10.229255 6.384956
v 5.968995 10.101127 9.284811
v 6.959105 10.173273 4.116099
v 7.072116 10.120835 3.618478
v 7.078120 10.124843 3.230037
v 5.835913 10.052824 8.546481
v 5.557886 11.059041 8.492892
v 6.962530 11.113808 3.105214
v 6.951758 11.105597 3.589746
v 6.776297 11.163134 4.147194
v 5.679949 11.065586 9.205581
v 6.358602 11.390171 6.331745
v 6.709468 11.319704 4.398157
v 5.937507 10.122432 7.608135
v 5.679072 10.069384 7.790090
v 7.002184 10.396303 4.855135
v -6.378064 10.488499 6.511738
v -5.893755 12.375635 5.771687
v -6.875111 11.388060 3.431592
v -7.334238 9.945537 4.402232
v -5.488270 10.541288 6.965501
v -5.250212 12.251687 6.145316
v -6.523040 10.686753 2.579679
v -6.953282 9.674207 3.352265
v -5.079980 11.448120 8.107881
v -5.021442 12.482175 7.264646
v -7.146760 10.249111 0.918145
v -7.731384 9.224321 1.357241
v -5.608379 12.318995 5.925592
v -5.970312 10.606112 6.731007
v -6.772588 10.258304 5.763999
v -7.194129 9.929556 3.876822
v -6.227648 12.128041 5.015547
v -6.736859 11.133597 2.893635
v -7.698102 9.208166 1.630918
v -6.988572 10.432430 1.103742
v -5.050100 12.492431 6.922416
v -5.137885 11.143837 7.883978
v -6.037521 11.772243 6.078187
v -6.936263 11.005832 3.787266
v -5.486104 11.490675 6.526955
v -6.630454 10.289091 2.899677
v -7.425832 9.781149 1.082510
v -5.776408 11.617176 6.255311
v -5.174870 11.990876 7.688416
v -6.376830 11.600653 5.321665
v -6.777157 10.656308 3.207658
v -7.324007 9.889871 1.316012
v -5.255615 11.855913 7.375969
v -7.357845 9.462158 2.407992
v -6.753586 10.534321 1.716310
v -7.038884 10.087254 2.037979
v -6.547815 10.388413 6.241134
v -5.766586 12.365955 5.882586
v -5.947190 12.137722 5.913025
v -7.344998 9.932646 4.053742
v -6.874110 11.260514 3.585120
v -5.727484 10.526349 6.775095
v -5.128276 12.358891 6.528363
v -5.390070 11.888841 6.330801
v -7.106971 9.563884 2.905396
v -6.556552 10.508287 2.727247
v -7.090209 10.079309 5.057901
v -6.014132 12.324613 5.524521
v -6.586353 11.747046 4.202273
v -5.071056 11.317865 8.113480
v -7.064340 10.363628 0.961261
v -7.268219 10.052302 0.968881
v -7.014585 9.822562 3.668942
v -6.889713 11.234649 3.035075
v -6.583045 10.915976 2.791858
v -5.422893 12.256092 5.969918
v -6.189723 10.583048 6.661963
v -5.689967 11.997077 6.076766
v -5.143845 11.687122 7.934808
v -6.551592 11.005880 5.530061
v -6.950330 10.316319 3.508945
v -7.760125 9.151209 1.460350
v -6.887311 10.489347 1.351745
v -7.507429 9.562063 1.463844
v -5.006250 12.547630 7.135254
v -5.283258 10.814375 7.414580
v -5.227055 11.506959 7.624869
v -6.189345 11.194154 6.283051
v -7.103673 10.539253 4.070441
v -5.509099 11.033642 6.740893
v -6.771672 10.002013 3.113541
v -7.600212 9.468814 1.225541
v -5.870934 11.140635 6.479474
v -5.108370 12.278379 7.450305
v -6.279122 11.940749 5.155836
v -6.721695 10.918340 3.017352
v -7.152665 10.174195 1.200255
v -5.183162 12.181256 7.144088
v -5.201961 11.959191 7.600370
v -6.801383 10.174146 2.510755
v -5.354554 11.652260 6.948142
v -5.631178 11.504217 6.320935
v -7.386435 9.825318 1.157880
v -6.694893 11.309734 4.537628
v -5.912099 11.719460 6.198901
v -6.929068 10.809336 3.375053
v -6.640831 10.467794 3.100233
v -6.168338 11.748940 5.823341
v -7.563545 9.331167 1.958685
v -6.603906 10.575253 2.176759
v -7.215632 9.985887 1.617966
v -6.893079 10.327477 1.872612
v -7.195208 9.791396 2.218453
v -6.070115 12.110355 5.662777
v -6.582316 10.710359 2.921639
v -6.874086 11.064308 3.173310
v -6.038526 11.197184 6.416675
v -6.865666 10.768876 4.780430
v -7.571118 9.496292 1.301044
v -5.689829 11.036470 6.538345
v -5.346803 11.245623 7.176986
v -7.387751 9.672708 1.781342
v -5.166485 11.639266 7.856473
v -5.133379 12.262572 7.360225
v -7.049634 10.251798 1.477872
v -5.269313 12.017880 6.733878
v -5.537533 11.901341 6.135758
v -7.218724 10.110570 1.047287
v -6.613738 11.602744 4.352615
v -5.826957 12.088636 6.026986
v -7.101729 10.413307 3.682643
v -6.798088 10.163652 3.360181
v -6.336957 11.142256 6.021083
v -6.692508 10.394308 2.338071
v -6.944041 9.888623 2.702390
vn 0.4809 0.7157 0.5065
vn 0.4699 0.7301 0.4962
vn 0.0470 0.9611 0.2723
vn 0.0596 0.9542 0.2932
vn 0.4724 0.7284 0.4962
vn 0.0444 0.9623 0.2682
vn -0.1466 0.9809 0.1276
vn -0.1461 0.9803 0.1328
vn -0.1470 0.9772 0.1534
vn -0.7662 -0.2987 -0.5689
vn -0.8111 -0.1733 -0.5586
vn -0.8105 -0.1750 -0.5589
vn -0.7661 -0.2990 -0.5690
vn -0.8491 0.0063 -0.5282
vn -0.8484 0.0058 -0.5294
vn -0.8431 -0.0318 -0.5368
vn -0.8089 -0.1805 -0.5595
vn -0.7647 -0.3023 -0.5691
vn -0.3894 0.9210 -0.0083
vn -0.3721 0.9281 -0.0160
vn -0.7539 0.5687 -0.3290
vn -0.7624 0.5587 -0.3263
vn -0.3698 0.9289 -0.0193
vn -0.7925 0.4805 -0.3757
vn 0.7999 -0.0380 0.5989
vn 0.7466 0.2420 0.6197
vn 0.7302 0.2205 0.6467
vn 0.7841 -0.0727 0.6163
vn 0.4567 0.6912 0.5601
vn 0.4296 0.6866 0.5866
vn 0.4043 0.6988 0.5902
vn 0.7224 0.2171 0.6565
vn 0.7785 -0.0918 0.6209
vn -0.1788 0.9569 0.2289
vn -0.2576 0.9522 0.1641
vn -0.2615 0.9461 0.1912
vn -0.1914 0.9466 0.2595
vn -0.4318 0.9007 0.0474
vn -0.4339 0.8976 0.0776
vn -0.4022 0.9095 0.1047
vn -0.2581 0.9443 0.2040
vn -0.1960 0.9429 0.2692
vn -0.4880 0.8705 0.0640
vn -0.5172 0.8530 0.0701
vn -0.6164 0.7795 0.1119
vn -0.5737 0.8092 0.1268
vn -0.5239 0.8487 0.0722
vn -0.6242 0.7740 0.1063
vn -0.6691 0.7352 0.1087
vn -0.6420 0.7566 0.1242
vn -0.6053 0.7825 0.1460
vn 0.7139 0.0720 0.6965
vn 0.7853 -0.1240 0.6066
vn 0.7738 -0.1580 0.6135
vn 0.7171 0.0323 0.6962
vn 0.7694 -0.1696 0.6158
vn 0.7076 0.0541 0.7045
vn -0.0579 0.8169 0.5738
vn 0.3459 0.5953 0.7252
vn 0.3955 0.5401 0.7429
vn 0.0203 0.7836 0.6209
vn 0.4000 0.5345 0.7445
vn 0.0596 0.7673 0.6385
vn -0.3959 0.9153 0.0741
vn -0.4447 0.8931 0.0679
vn -0.5173 0.8430 0.1475
vn -0.4548 0.8775 0.1522
vn -0.5494 0.8171 0.1749
vn -0.4860 0.8546 0.1832
vn 0.0889 0.6343 0.7680
vn 0.0391 0.6765 0.7354
vn 0.1159 0.6476 0.7531
vn 0.1802 0.6008 0.7788
vn -0.0401 0.7301 0.6822
vn -0.0204 0.7203 0.6933
vn -0.0257 0.7233 0.6901
vn 0.1338 0.6483 0.7495
vn 0.2171 0.5909 0.7770
vn -0.1053 0.7492 0.6539
vn -0.1157 0.7463 0.6555
vn -0.1340 0.7605 0.6354
vn -0.1162 0.7518 0.6491
vn -0.1037 0.7499 0.6533
vn -0.1227 0.7470 0.6534
vn -0.0734 0.8448 0.5300
vn -0.0750 0.8572 0.5095
vn -0.0654 0.8464 0.5286
vn -0.0677 0.8351 0.5459
vn -0.1770 0.8806 0.4395
vn -0.1601 0.8715 0.4636
vn -0.1439 0.8390 0.5247
vn -0.0658 0.8155 0.5749
vn -0.0574 0.8043 0.5915
vn -0.2201 0.8544 0.4707
vn -0.1233 0.8470 0.5172
vn -0.1498 0.8406 0.5205
vn -0.2050 0.8404 0.5016
vn -0.1101 0.7993 0.5908
vn -0.1478 0.7946 0.5889
vn -0.3738 0.9274 0.0157
vn -0.3826 0.9239 -0.0020
vn -0.3757 0.9267 -0.0037
vn -0.3677 0.9299 0.0122
vn -0.4220 0.9052 -0.0511
vn -0.4077 0.9121 -0.0442
vn -0.3807 0.9243 -0.0264
vn -0.3636 0.9315 -0.0107
vn -0.3542 0.9352 0.0011
vn -0.3826 0.8862 0.2615
vn 0.0734 0.8688 0.4897
vn 0.1561 0.8300 0.5354
vn -0.3313 0.8939 0.3019
vn 0.7379 0.3126 0.5981
vn 0.7360 0.2952 0.6093
vn 0.7342 0.2248 0.6406
vn 0.2248 0.7651 0.6034
vn -0.2396 0.8878 0.3929
vn 0.8489 0.0181 0.5282
vn 0.8439 0.0142 0.5363
vn 0.8384 0.0658 0.5411
vn 0.8364 0.0629 0.5445
vn 0.8305 0.0447 0.5551
vn 0.8290 -0.0149 0.5591
vn -0.4661 0.8782 -0.1071
vn -0.4501 0.8870 -0.1031
vn -0.5030 0.8491 -0.1612
vn -0.4572 0.8808 -0.1233
vn -0.4044 0.9124 -0.0629
vn -0.3977 0.9161 -0.0503
vn -0.2113 0.9744 0.0763
vn -0.2157 0.9732 0.0799
vn -0.2258 0.9693 0.0968
vn 0.7668 0.2991 0.5679
vn 0.7655 0.3004 0.5690
vn 0.7669 0.2879 0.5735
vn -0.4122 0.9110 0.0144
vn -0.7801 0.5458 -0.3058
vn -0.8008 0.5400 -0.2592
vn -0.8553 0.0074 -0.5181
vn -0.8716 0.0175 -0.4898
vn -0.7674 -0.2973 -0.5680
vn -0.8195 -0.1648 -0.5489
vn -0.8133 -0.1711 -0.5561
vn -0.7665 -0.2983 -0.5687
vn 0.4775 0.7029 0.5272
vn 0.0538 0.9448 0.3231
vn 0.0310 0.9328 0.3591
vn -0.1600 0.9691 0.1879
vn -0.3253 0.8859 0.3307
vn -0.3021 0.8841 0.3567
vn -0.2415 0.8651 0.4396
vn -0.1299 0.7923 0.5961
vn -0.0713 0.7730 0.6303
vn -0.0422 0.7657 0.6418
vn -0.3905 0.9204 0.0217
vn -0.3767 0.9260 0.0231
vn -0.3703 0.9287 0.0216
vn -0.3838 0.9231 0.0233
vn -0.3545 0.9349 0.0160
vn -0.3693 0.9290 0.0248
vn -0.3631 0.9299 0.0588
vn -0.3651 0.9282 0.0716
vn -0.4068 0.9049 0.1252
vn -0.3892 0.9176 0.0811
vn -0.4319 0.8897 0.1479
vn -0.4057 0.9097 0.0891
vn -0.3453 0.9382 0.0240
vn -0.3569 0.9335 0.0334
vn -0.3550 0.9348 0.0087
vn -0.1884 0.8258 0.5315
vn -0.1428 0.7915 0.5942
vn -0.1478 0.8563 0.4949
vn 0.0036 0.9237 0.3831
vn -0.0172 0.9227 0.3850
vn -0.7710 -0.2904 -0.5668
vn -0.8354 -0.1317 -0.5336
vn -0.8284 -0.1491 -0.5400
vn -0.7688 -0.2950 -0.5673
vn -0.9008 0.1108 -0.4199
vn -0.8899 0.0539 -0.4530
vn -0.8011 0.5627 -0.2038
vn -0.7451 0.6536 -0.1329
vn -0.0868 0.7738 0.6274
vn -0.0530 0.7605 0.6472
vn -0.0435 0.7331 0.6788
vn -0.0361 0.7084 0.7049
vn -0.3795 0.9252 -0.0002
vn -0.4034 0.9150 -0.0002
vn 0.2867 0.6760 0.6788
vn 0.7208 0.1397 0.6789
vn 0.8063 -0.0705 0.5873
vn 0.8184 0.0063 0.5747
vn -0.4176 0.9086 0.0049
vn -0.4216 0.9068 0.0061
vn -0.2426 0.9616 0.1283
vn 0.7620 0.2676 0.5897
vn -0.8562 0.1099 -0.5049
vn -0.5875 0.7975 -0.1375
vn -0.5789 0.8051 -0.1297
vn -0.8566 0.1150 -0.5030
vn -0.5800 0.8057 -0.1202
vn -0.8571 0.1161 -0.5018
vn -0.5920 0.7974 -0.1166
vn -0.8576 0.1132 -0.5017
vn -0.5860 0.8036 -0.1042
vn -0.8583 0.1319 -0.4960
vn -0.8543 0.0751 -0.5144
vn -0.6174 0.7701 -0.1605
vn -0.5985 0.7880 -0.1444
vn -0.8557 0.1012 -0.5075
vn -0.7202 -0.3955 -0.5700
vn -0.7197 -0.3966 -0.5699
vn -0.7194 -0.3977 -0.5694
vn -0.7197 -0.3974 -0.5692
vn -0.7199 -0.3969 -0.5694
vn -0.7196 -0.3972 -0.5695
vn -0.7192 -0.3980 -0.5696
vn -0.6150 -0.2792 0.7374
vn -0.6167 -0.2787 0.7362
vn -0.9271 -0.0889 0.3641
vn -0.6132 -0.2801 0.7386
vn -0.9251 -0.0911 0.3687
vn -0.9900 0.0152 0.1404
vn -0.9903 0.0163 0.1379
vn -0.6771 0.3171 -0.6641
vn -0.1754 0.4092 -0.8954
vn -0.1687 0.4253 -0.8892
vn -0.6942 0.3554 -0.6260
vn -0.1330 0.4105 -0.9021
vn -0.1263 0.4158 -0.9006
vn -0.1181 0.4177 -0.9009
vn -0.1450 0.4301 -0.8911
vn -0.6750 0.3790 -0.6331
vn -0.9783 0.1428 -0.1498
vn -0.9783 0.1432 -0.1500
vn -0.6640 0.3476 -0.6620
vn -0.6657 0.3450 -0.6616
vn -0.9775 0.1449 -0.1536
vn -0.6231 0.3601 -0.6943
vn -0.0061 -0.4133 0.9106
vn -0.1653 -0.3910 0.9054
vn -0.1603 -0.3900 0.9067
vn 0.0074 -0.4073 0.9133
vn -0.6138 -0.2796 0.7383
vn -0.6198 -0.2772 0.7342
vn -0.1642 -0.3889 0.9065
vn 0.0094 -0.4049 0.9143
vn -0.9973 0.0586 0.0435
vn -0.9783 0.1427 -0.1503
vn -0.9790 0.1411 -0.1468
vn -0.9974 0.0594 0.0417
vn -0.9906 0.0174 0.1355
vn -0.9721 0.0562 -0.2278
vn -0.9854 0.0375 -0.1658
vn -0.9786 -0.0624 -0.1961
vn -0.9658 -0.0411 -0.2561
vn -0.9928 0.0144 -0.1188
vn -0.9859 -0.0757 -0.1491
vn -0.9802 -0.1151 -0.1613
vn -0.9694 -0.0869 -0.2295
vn -0.9612 -0.0771 -0.2648
vn -0.8653 -0.2490 0.4350
vn -0.3824 -0.3983 0.8337
vn -0.3447 -0.3934 0.8523
vn -0.8494 -0.2498 0.4649
vn -0.3439 -0.3895 0.8544
vn -0.8530 -0.2443 0.4612
vn -0.9916 -0.1019 0.0801
vn -0.9818 -0.1310 0.1375
vn -0.9841 -0.1117 0.1379
vn -0.9948 -0.0670 0.0760
vn -0.9859 -0.1020 0.1325
vn -0.9962 -0.0524 0.0695
vn -0.9831 0.0353 -0.1799
vn -0.9732 0.0455 -0.2256
vn -0.9629 -0.0422 -0.2667
vn -0.9671 -0.0275 -0.2530
vn -0.9565 -0.0734 -0.2822
vn -0.9567 -0.0445 -0.2876
vn -0.9888 -0.1044 0.1063
vn -0.9907 -0.1008 0.0916
vn -0.9936 -0.0612 0.0951
vn -0.9910 -0.0691 0.1147
vn -0.9959 -0.0430 0.0801
vn -0.9919 -0.0523 0.1162
vn -0.9591 0.1094 -0.2612
vn -0.9312 0.0757 -0.3567
vn -0.6394 0.2889 -0.7126
vn -0.9120 0.0720 -0.4039
vn -0.6433 0.2717 -0.7158
vn -0.9722 0.1778 -0.1526
vn -0.9700 0.1586 -0.1843
vn -0.9854 0.1390 -0.0979
vn -0.9870 0.1090 -0.1181
vn -0.9838 -0.1566 0.0868
vn -0.9866 -0.1485 0.0670
vn -0.9872 -0.1383 0.0797
vn -0.9857 -0.1398 0.0937
vn -0.9875 -0.1434 0.0653
vn -0.9886 -0.1326 0.0714
vn -0.9687 0.1758 -0.1754
vn -0.9725 0.1387 -0.1869
vn -0.9621 0.1958 -0.1897
vn -0.9675 0.1567 -0.1983
vn -0.9824 -0.1489 0.1132
vn -0.9816 -0.1453 0.1239
vn -0.8954 -0.2375 0.3766
vn -0.8886 -0.2410 0.3903
vn -0.3887 -0.4074 0.8264
vn -0.4421 -0.3972 0.8042
vn -0.0525 -0.4177 0.9071
vn -0.0400 -0.4182 0.9075
vn -0.9700 0.1890 -0.1529
vn -0.9810 0.1405 -0.1340
vn -0.9850 0.1573 -0.0714
vn -0.9901 0.1105 -0.0862
vn -0.9973 0.0578 0.0453
vn -0.1867 -0.3902 0.9016
vn -0.1760 -0.3912 0.9033
vn -0.6633 0.3438 -0.6647
vn -0.6995 0.3320 -0.6328
vn -0.1283 0.4050 -0.9053
vn -0.1233 0.4029 -0.9069
vn -0.1769 0.3866 -0.9051
vn -0.1667 0.3937 -0.9040
vn -0.9291 -0.0867 0.3595
vn -0.1046 0.7905 0.6035
vn -0.0997 0.7875 0.6081
vn -0.4410 0.8759 0.1957
vn -0.4646 0.8713 0.1581
vn -0.0982 0.7867 0.6095
vn -0.4374 0.8764 0.2016
vn -0.5900 0.8059 -0.0504
vn -0.5995 0.7969 -0.0741
vn -0.6149 0.7812 -0.1082
vn -0.5307 -0.1567 -0.8329
vn -0.3216 -0.4664 -0.8240
vn -0.3337 -0.4521 -0.8272
vn -0.5229 -0.1722 -0.8348
vn -0.3295 -0.4307 -0.8402
vn -0.3446 -0.4146 -0.8422
vn -0.3753 -0.3738 -0.8482
vn -0.3430 -0.4405 -0.8296
vn -0.5206 -0.1769 -0.8353
vn -0.7198 0.5560 -0.4157
vn -0.7208 0.5353 -0.4404
vn -0.5939 0.0087 -0.8045
vn -0.6143 0.0563 -0.7871
vn -0.7200 0.5555 -0.4158
vn -0.6317 0.1005 -0.7686
vn 0.3268 0.3898 0.8610
vn 0.2024 0.5369 0.8190
vn 0.2010 0.5384 0.8184
vn 0.3260 0.3909 0.8608
vn 0.2073 0.5316 0.8212
vn 0.3281 0.3882 0.8612
vn -0.6600 0.7429 -0.1116
vn -0.6795 0.7140 -0.1687
vn -0.6767 0.7188 -0.1594
vn -0.6632 0.7385 -0.1214
vn -0.6742 0.7227 -0.1522
vn -0.6662 0.7346 -0.1286
vn -0.6608 0.4631 -0.5906
vn -0.6608 0.4222 -0.6206
vn -0.6561 0.4341 -0.6173
vn -0.6595 0.4718 -0.5853
vn -0.6519 0.3859 -0.6528
vn -0.6513 0.4159 -0.6347
vn -0.6498 0.4457 -0.6158
vn -0.6558 0.4621 -0.5970
vn -0.6582 0.4805 -0.5796
vn 0.5059 0.1187 0.8544
vn 0.4050 0.2822 0.8697
vn 0.4060 0.2809 0.8697
vn 0.5067 0.1175 0.8541
vn 0.4082 0.2776 0.8697
vn 0.5079 0.1154 0.8537
vn -0.5820 0.8080 -0.0921
vn -0.5152 0.8531 0.0821
vn -0.5110 0.8549 0.0901
vn -0.6058 0.7800 -0.1567
vn 0.1406 0.5945 0.7917
vn 0.1662 0.5701 0.8046
vn 0.2656 0.4649 0.8446
vn -0.4569 0.8694 0.1880
vn -0.6304 0.7444 -0.2202
vn -0.6677 0.4325 -0.6060
vn -0.6590 0.4878 -0.5725
vn -0.6588 0.4891 -0.5716
vn -0.6669 0.4458 -0.5971
vn -0.6586 0.4903 -0.5708
vn -0.6657 0.4592 -0.5882
vn -0.5369 0.8356 -0.1164
vn -0.5355 0.8397 -0.0905
vn -0.5402 0.8331 -0.1189
vn -0.5385 0.8335 -0.1240
vn -0.5378 0.8395 -0.0772
vn -0.5499 0.8271 -0.1162
vn -0.5686 0.8045 -0.1715
vn -0.5524 0.8171 -0.1650
vn -0.5409 0.8301 -0.1357
vn -0.6569 0.2148 -0.7227
vn -0.6606 0.2378 -0.7121
vn -0.6652 0.2726 -0.6951
vn -0.5508 0.8322 -0.0641
vn -0.5717 0.8113 -0.1224
vn -0.5960 0.7822 -0.1812
vn 0.5720 -0.0102 0.8202
vn 0.5705 -0.0066 0.8213
vn 0.5692 -0.0038 0.8222
vn -0.6413 0.7593 -0.1102
vn -0.6498 0.7479 -0.1355
vn -0.6595 0.7345 -0.1600
vn 0.9033 0.4066 0.1366
vn 0.9217 0.3614 0.1411
vn 0.6172 0.7844 0.0615
vn 0.6130 0.7879 0.0594
vn 0.9523 0.2659 0.1497
vn 0.6261 0.7770 0.0651
vn 0.4691 0.8830 0.0131
vn 0.4766 0.8790 0.0144
vn 0.4804 0.8769 0.0148
vn -0.5567 0.8302 -0.0292
vn -0.8467 0.5176 -0.1231
vn -0.8292 0.5460 -0.1200
vn -0.5145 0.8572 -0.0228
vn -0.8690 0.4734 -0.1442
vn -0.8704 0.4710 -0.1437
vn -0.8731 0.4660 -0.1433
vn -0.8125 0.5711 -0.1173
vn -0.4718 0.8815 -0.0166
vn 0.2204 0.9750 -0.0278
vn 0.2164 0.9759 -0.0279
vn -0.4423 0.8900 -0.1103
vn -0.3609 0.9271 -0.1014
vn 0.2116 0.9770 -0.0281
vn -0.5216 0.8450 -0.1184
vn 0.8274 -0.5344 0.1730
vn 0.9398 -0.2960 0.1707
vn 0.9465 -0.2738 0.1709
vn 0.8085 -0.5630 0.1716
vn 0.9510 -0.2576 0.1710
vn 0.7883 -0.5915 0.1694
vn 0.4234 0.9059 -0.0002
vn 0.4199 0.9076 -0.0009
vn 0.4151 0.9098 -0.0018
vn -0.1442 0.9772 0.1560
vn -0.2842 0.9488 0.1374
vn -0.3275 0.9374 0.1180
vn -0.1674 0.9740 0.1529
vn -0.5508 0.8329 0.0543
vn -0.4218 0.9029 0.0824
vn -0.3125 0.9443 0.1033
vn -0.1958 0.9688 0.1521
vn -0.1769 0.9726 0.1510
vn 0.9402 0.2810 0.1923
vn 0.9090 -0.3625 0.2059
vn 0.8992 -0.3861 0.2059
vn 0.9480 0.2510 0.1956
vn 0.8838 -0.4208 0.2045
vn 0.9592 0.1992 0.2007
vn 0.7396 0.6693 0.0707
vn 0.7663 0.6326 0.1122
vn 0.7513 0.6502 0.1128
vn 0.7160 0.6949 0.0667
vn 0.7336 0.6704 0.1112
vn 0.6860 0.7250 0.0612
vn -0.1440 0.9836 0.1085
vn -0.2066 0.9734 0.0994
vn -0.2630 0.9604 0.0919
vn 0.8030 0.5931 0.0588
vn 0.7627 0.6441 0.0584
vn 0.7671 0.6392 0.0554
vn 0.7991 0.5985 0.0563
vn 0.7358 0.6753 0.0506
vn 0.7964 0.6023 0.0546
vn -0.7603 0.2151 -0.6129
vn -0.7677 0.2128 -0.6045
vn -0.2010 0.3014 -0.9321
vn -0.1906 0.3024 -0.9339
vn -0.7818 0.2081 -0.5877
vn -0.1849 0.3017 -0.9353
vn 0.0238 0.2966 -0.9547
vn 0.0339 0.2967 -0.9544
vn 0.0473 0.2956 -0.9541
vn 0.8265 0.0941 -0.5550
vn 0.9972 -0.0369 -0.0657
vn 0.9956 -0.0298 -0.0889
vn 0.8448 0.0857 -0.5282
vn 0.9977 -0.0143 -0.0665
vn 0.9967 -0.0119 -0.0799
vn 0.9925 -0.0002 -0.1224
vn 0.9950 -0.0261 -0.0965
vn 0.8557 0.0805 -0.5112
vn 0.2736 0.2342 -0.9329
vn 0.2579 0.2352 -0.9371
vn 0.7656 0.1396 -0.6280
vn 0.7371 0.1482 -0.6593
vn 0.2384 0.2366 -0.9419
vn 0.7188 0.1529 -0.6782
vn -0.9986 0.0527 0.0072
vn -0.9952 0.0646 -0.0735
vn -0.9934 0.0692 -0.0914
vn -0.9983 0.0576 -0.0115
vn -0.9925 0.0713 -0.0993
vn -0.9976 0.0628 -0.0305
vn 0.0633 0.2693 -0.9610
vn 0.0839 0.2693 -0.9594
vn 0.1070 0.2675 -0.9576
vn 0.4530 0.2546 -0.8544
vn 0.4588 0.2678 -0.8472
vn 0.4479 0.2773 -0.8500
vn 0.4308 0.2644 -0.8628
vn 0.4873 0.2706 -0.8303
vn 0.4652 0.2786 -0.8402
vn 0.4452 0.2856 -0.8486
vn 0.4186 0.2849 -0.8623
vn 0.4091 0.2725 -0.8708
vn -0.6725 0.2663 -0.6905
vn -0.9507 0.1456 -0.2738
vn -0.9462 0.1491 -0.2873
vn -0.6669 0.2675 -0.6955
vn -0.9437 0.1507 -0.2944
vn -0.6682 0.2670 -0.6944
vn -0.2482 0.3273 -0.9117
vn -0.3664 0.3148 -0.8756
vn -0.3704 0.3143 -0.8741
vn -0.2498 0.3270 -0.9114
vn -0.3752 0.3137 -0.8723
vn -0.2568 0.3261 -0.9098
vn -0.0988 0.3475 -0.9325
vn -0.1981 0.3338 -0.9216
vn -0.1551 0.3396 -0.9277
vn -0.0967 0.3469 -0.9329
vn -0.2015 0.3328 -0.9212
vn -0.0942 0.3463 -0.9334
vn 0.5526 0.2019 -0.8086
vn 0.5364 0.2093 -0.8176
vn 0.5119 0.2199 -0.8304
vn 0.6313 0.3484 -0.6929
vn 0.6329 0.3475 -0.6918
vn 0.9349 0.1202 -0.3339
vn 0.6296 0.3490 -0.6941
vn 0.9329 0.1229 -0.3384
vn 0.9927 -0.0064 -0.1207
vn 0.9929 -0.0077 -0.1184
vn 0.6109 -0.4311 0.6640
vn 0.1336 -0.4998 0.8558
vn 0.1271 -0.4864 0.8645
vn 0.6140 -0.3989 0.6810
vn 0.1107 -0.5001 0.8588
vn 0.1050 -0.4951 0.8625
vn 0.0970 -0.4931 0.8645
vn 0.1079 -0.4822 0.8694
vn 0.6014 -0.3904 0.6971
vn 0.9745 -0.1628 0.1547
vn 0.9744 -0.1627 0.1551
vn 0.6490 -0.4130 0.6390
vn 0.6504 -0.4144 0.6366
vn 0.9735 -0.1645 0.1586
vn 0.6075 -0.4263 0.6702
vn -0.0064 0.4905 -0.8714
vn 0.1854 0.4757 -0.8598
vn 0.1806 0.4780 -0.8596
vn -0.0160 0.4978 -0.8671
vn 0.6302 0.3491 -0.6936
vn 0.6360 0.3464 -0.6895
vn 0.1846 0.4779 -0.8588
vn -0.0158 0.5002 -0.8658
vn 0.9978 -0.0595 -0.0287
vn 0.9744 -0.1632 0.1549
vn 0.9752 -0.1615 0.1515
vn 0.9978 -0.0605 -0.0270
vn 0.9932 -0.0091 -0.1161
vn 0.9890 -0.1069 0.1023
vn 0.9915 -0.0902 0.0942
vn 0.9929 -0.0951 0.0710
vn 0.9915 -0.1111 0.0676
vn 0.9929 -0.0821 0.0859
vn 0.9934 -0.0894 0.0719
vn 0.9938 -0.0911 0.0631
vn 0.9939 -0.0954 0.0555
vn 0.9928 -0.1103 0.0476
vn 0.6962 0.2299 -0.6800
vn 0.1812 0.4463 -0.8763
vn 0.1546 0.4668 -0.8708
vn 0.6970 0.2502 -0.6720
vn 0.1577 0.4718 -0.8675
vn 0.7272 0.2375 -0.6440
vn 0.9857 -0.1030 -0.1336
vn 0.9550 -0.0285 -0.2953
vn 0.9691 -0.0281 -0.2449
vn 0.9931 -0.0894 -0.0760
vn 0.9772 -0.0383 -0.2087
vn 0.9949 -0.0904 -0.0454
vn 0.9838 -0.1436 0.1076
vn 0.9875 -0.1234 0.0982
vn 0.9886 -0.1376 0.0616
vn 0.9816 -0.1733 0.0799
vn 0.9890 -0.1415 0.0422
vn 0.9803 -0.1847 0.0695
vn 0.9840 -0.0644 -0.1661
vn 0.9876 -0.0824 -0.1340
vn 0.9941 -0.0354 -0.1029
vn 0.9899 -0.0217 -0.1399
vn 0.9902 -0.1089 -0.0879
vn 0.9965 -0.0643 -0.0529
vn 0.9980 -0.0507 -0.0366
vn 0.9972 -0.0319 -0.0678
vn 0.9919 -0.0018 -0.1271
vn 0.9344 -0.2347 0.2680
vn 0.9283 -0.2738 0.2515
vn 0.6035 -0.4612 0.6505
vn 0.9225 -0.2911 0.2536
vn 0.6250 -0.4642 0.6276
vn 0.9445 -0.1688 0.2818
vn 0.9397 -0.1908 0.2837
vn 0.9865 -0.0930 0.1347
vn 0.9858 -0.1077 0.1286
vn 0.9698 -0.1312 -0.2055
vn 0.9742 -0.1634 -0.1559
vn 0.9775 -0.1329 -0.1640
vn 0.9752 -0.1090 -0.1925
vn 0.9753 -0.1781 -0.1306
vn 0.9801 -0.1584 -0.1197
vn 0.9867 -0.0928 0.1334
vn 0.9870 -0.1017 0.1243
vn 0.9867 -0.0899 0.1356
vn 0.9874 -0.0950 0.1268
vn 0.9726 -0.1446 -0.1820
vn 0.9459 -0.0616 -0.3185
vn 0.9468 -0.0481 -0.3183
vn 0.9763 -0.1303 -0.1727
vn 0.7158 0.1892 -0.6722
vn 0.7227 0.1912 -0.6642
vn 0.2080 0.4260 -0.8805
vn 0.2445 0.4173 -0.8753
vn 0.0425 0.4792 -0.8767
vn 0.0242 0.4813 -0.8762
vn 0.9886 -0.0816 0.1262
vn 0.9905 -0.0804 0.1120
vn 0.9922 -0.0677 0.1044
vn 0.9925 -0.0725 0.0982
vn 0.9978 -0.0585 -0.0304
vn 0.2064 0.4704 -0.8580
vn 0.1958 0.4726 -0.8593
vn 0.6476 -0.4173 0.6376
vn 0.6845 -0.4033 0.6073
vn 0.1053 -0.5052 0.8566
vn 0.1001 -0.5070 0.8561
vn 0.1431 -0.5183 0.8431
vn 0.1293 -0.5127 0.8487
vn 0.9368 0.1175 -0.3296
vn 0.9757 -0.1755 -0.1313
vn 0.9802 -0.1576 -0.1201
vn 0.9897 -0.1153 -0.0850
vn 0.9959 -0.0808 -0.0416
vn 0.9972 -0.0716 -0.0212
vn 0.9547 0.2160 -0.2045
vn 0.9259 0.2735 -0.2605
vn 0.9612 0.2641 0.0803
vn 0.9698 0.2257 0.0926
vn 0.9094 0.2914 -0.2966
vn 0.9583 0.2776 0.0681
vn 0.9395 0.2448 0.2395
vn 0.9393 0.2400 0.2451
vn 0.9407 0.2250 0.2537
vn 0.9535 0.2472 -0.1724
vn 0.9363 0.2495 0.2472
vn 0.9306 0.2488 0.2686
vn 0.9548 0.2479 -0.1638
vn 0.5909 0.1748 0.7876
vn 0.5770 0.1717 0.7985
vn 0.5049 0.1551 0.8491
vn 0.8938 0.2419 0.3776
vn 0.9562 0.2483 -0.1548
vn 0.8269 0.1996 0.5258
vn 0.8263 0.1999 0.5266
vn 0.5656 0.1588 0.8093
vn 0.5692 0.1594 0.8066
vn 0.8286 0.2003 0.5228
vn 0.5965 0.1641 0.7857
vn 0.9777 0.2069 0.0358
vn 0.9173 0.2108 -0.3377
vn 0.9429 0.1112 -0.3139
vn 0.9981 0.0611 -0.0072
vn 0.9643 0.1461 -0.2209
vn 0.9572 0.1135 -0.2661
vn 0.9435 0.0621 -0.3254
vn 1.0000 -0.0051 0.0006
vn 0.9127 0.2147 0.3476
vn 0.9116 0.2113 0.3525
vn 0.9458 0.2105 0.2474
vn 0.8277 0.1994 0.5245
vn 0.8286 0.1994 0.5231
vn 0.9101 0.2098 0.3574
vn 0.9469 0.2061 0.2469
vn 0.9507 0.2633 -0.1639
vn 0.9580 0.2868 -0.0039
vn 0.9578 0.2852 -0.0358
vn 0.9487 0.2620 -0.1767
vn 0.9484 0.2978 0.1090
vn 0.9524 0.2970 0.0691
vn 0.9540 0.2965 0.0448
vn 0.9556 0.2776 -0.0986
vn 0.9477 0.2614 -0.1833
vn 0.9541 0.1236 0.2728
vn 0.9264 0.1531 0.3441
vn 0.9676 -0.0197 0.2516
vn 0.9727 -0.0797 0.2181
vn 0.9766 -0.0927 0.1943
vn 0.9731 -0.1566 0.1692
vn 0.9927 0.1207 0.0068
vn 0.9852 0.1215 0.1211
vn 0.9895 -0.1002 0.1045
vn 0.9950 -0.1001 0.0060
vn 0.9797 -0.1815 0.0849
vn 0.9832 -0.1822 0.0093
vn 0.9802 0.0837 -0.1793
vn 0.9884 0.1042 -0.1106
vn 0.9908 -0.0958 -0.0951
vn 0.9843 -0.0854 -0.1544
vn 0.9836 -0.1743 -0.0470
vn 0.9806 -0.1585 -0.1156
vn 0.9454 0.2506 -0.2085
vn 0.9439 0.2497 -0.2160
vn 0.9521 0.2465 -0.1807
vn 0.9432 0.2494 -0.2196
vn 0.9509 0.2462 -0.1876
vn 0.9476 0.2516 -0.1969
vn 0.9469 0.2514 -0.2007
vn 0.9527 0.2635 -0.1517
vn 0.9525 0.2642 -0.1518
vn 0.9353 0.3532 -0.0215
vn 0.9225 0.3858 0.0115
vn 0.9513 0.3043 -0.0484
vn 0.9581 0.2677 -0.1014
vn 0.9153 0.4014 0.0322
vn 0.9440 0.3295 0.0193
vn 0.9089 0.4077 0.0873
vn 0.9367 0.3338 0.1055
vn 0.8845 0.3987 0.2424
vn 0.9095 0.3256 0.2584
vn 0.8681 0.3870 0.3108
vn 0.8831 0.3254 0.3381
vn 0.9039 0.3704 -0.2140
vn 0.9386 0.3429 -0.0373
vn 0.9591 0.2774 -0.0568
vn 0.9582 0.2857 0.0157
vn 0.9453 0.2928 0.1438
vn 0.9453 0.2965 0.1357
vn 0.9158 0.2192 0.3364
vn 0.9150 0.2183 0.3393
vn 0.8152 0.2956 -0.4981
vn 0.8520 0.2819 -0.4411
vn 0.5730 0.1601 0.8037
vn 0.6076 0.1660 0.7767
vn 0.6063 0.1782 0.7750
vn 0.5963 0.1759 0.7832
vn 0.9507 0.2513 0.1818
vn 0.9419 0.2501 0.2244
vn 0.9805 0.1867 0.0609
vn 0.9838 0.1737 0.0437
vn -0.7021 0.4197 0.5753
vn -0.6912 0.4571 0.5597
vn -0.8668 0.3946 0.3049
vn -0.8681 0.3693 0.3315
vn -0.7222 0.4663 0.5109
vn -0.8697 0.4061 0.2805
vn -0.8925 0.3955 0.2168
vn -0.8946 0.3842 0.2280
vn -0.8964 0.3660 0.2500
vn -0.9288 0.3696 -0.0281
vn -0.9010 0.0001 -0.4339
vn -0.9210 -0.1191 -0.3710
vn -0.9641 0.2650 -0.0155
vn -0.7837 -0.1991 -0.5884
vn -0.7986 -0.3028 -0.5201
vn -0.7935 -0.3663 -0.4860
vn -0.9004 -0.2196 -0.3756
vn -0.9766 0.2148 -0.0091
vn -0.9516 0.3059 0.0303
vn -0.9727 0.2183 0.0781
vn -0.9476 -0.1428 -0.2858
vn -0.9327 0.0154 -0.3604
vn -0.9916 0.0935 0.0894
vn -0.9321 -0.2420 -0.2694
vn -0.0834 0.4310 0.8985
vn -0.3204 0.4454 0.8360
vn -0.4124 0.4306 0.8028
vn -0.1272 0.4305 0.8936
vn -0.7398 0.3902 0.5481
vn -0.7744 0.3776 0.5077
vn -0.4976 0.4233 0.7571
vn -0.1445 0.4314 0.8905
vn -0.9075 0.3717 0.1958
vn -0.8958 0.3856 0.2211
vn -0.8909 0.3600 0.2768
vn -0.9275 0.3708 0.0475
vn -0.9115 0.3989 0.1007
vn -0.8875 0.3924 0.2417
vn -0.8859 0.3610 0.2914
vn -0.8326 0.5395 0.1250
vn -0.8370 0.5333 0.1228
vn -0.8422 0.5238 0.1281
vn -0.8427 0.5223 0.1308
vn -0.8371 0.5319 0.1277
vn -0.8402 0.5257 0.1329
vn -0.8411 0.5236 0.1354
vn -0.8442 0.5201 0.1298
vn -0.8446 0.5178 0.1362
vn -0.8545 0.3169 0.4115
vn -0.4116 0.4468 0.7943
vn -0.3912 0.4096 0.8241
vn -0.8381 0.2336 0.4930
vn -0.4119 0.3905 0.8233
vn -0.8281 0.2062 0.5213
vn -0.9718 0.1805 0.1518
vn -0.9611 0.2059 0.1840
vn -0.9588 0.0768 0.2736
vn -0.9688 0.0253 0.2464
vn -0.9489 0.0398 0.3131
vn -0.9578 -0.0239 0.2864
vn -0.7789 0.5822 0.2331
vn -0.8118 0.5603 0.1645
vn -0.8278 0.5330 0.1754
vn -0.7939 0.5551 0.2481
vn -0.8319 0.5246 0.1811
vn -0.7984 0.5464 0.2530
vn -0.9553 0.1995 0.2180
vn -0.9610 0.2059 0.1846
vn -0.9651 0.0189 0.2611
vn -0.9623 0.0176 0.2715
vn -0.9558 -0.0413 0.2911
vn -0.9549 -0.0463 0.2934
vn -0.8525 0.5004 0.1513
vn -0.8902 0.4491 0.0768
vn -0.9086 0.3996 0.1216
vn -0.8980 0.4071 0.1670
vn -0.9068 0.4191 0.0452
vn -0.9325 0.3539 0.0718
vn -0.7541 0.6261 0.1983
vn -0.7733 0.6104 0.1714
vn -0.7861 0.5954 0.1659
vn -0.7622 0.6122 0.2103
vn -0.8026 0.5774 0.1498
vn -0.8144 0.5638 0.1372
vn -0.9012 0.4229 0.0949
vn -0.9265 0.3594 0.1118
vn -0.7825 0.4897 0.3846
vn -0.8189 0.4355 0.3738
vn -0.3541 0.4995 0.7906
vn -0.3884 0.4868 0.7824
vn -0.0669 0.4474 0.8918
vn -0.0602 0.4390 0.8965
vn -0.8197 0.5561 0.1372
vn -0.8280 0.5463 0.1264
vn -0.8288 0.5458 0.1237
vn -0.8322 0.5404 0.1239
vn -0.9180 0.3428 0.1994
vn -0.9116 0.3620 0.1946
vn -0.3274 0.4946 0.8051
vn -0.2914 0.4734 0.8313
vn -0.9163 0.1086 -0.3855
vn -0.9390 0.2499 -0.2361
vn -0.7706 -0.1268 -0.6246
vn -0.7671 -0.1066 -0.6326
vn -0.9028 0.4175 -0.1032
vn -0.8482 0.0458 -0.5277
vn -0.8753 0.0742 -0.4778
vn -0.9039 0.4242 -0.0556
vn -0.8678 0.3547 0.3481
vn -0.8683 0.3513 0.3502
vn -0.8169 0.5471 0.1829
vn -0.8233 0.5328 0.1959
vn -0.8002 0.5540 0.2298
vn -0.7975 0.5565 0.2332
vn -0.8025 0.5536 0.2226
vt 0.642782 0.309583
vt 0.642958 0.362307
vt 0.624349 0.362307
vt 0.623664 0.309583
vt 0.644891 0.422746
vt 0.627774 0.422747
vt 0.610658 0.422746
vt 0.582451 0.362307
vt 0.579887 0.309583
vt 0.351733 0.309583
vt 0.361791 0.309583
vt 0.361764 0.362307
vt 0.351532 0.362307
vt 0.372816 0.309583
vt 0.372910 0.362307
vt 0.373946 0.422746
vt 0.361629 0.422746
vt 0.349312 0.422746
vt 0.425299 0.309583
vt 0.422507 0.362307
vt 0.386244 0.362307
vt 0.386918 0.309583
vt 0.391797 0.422746
vt 0.382872 0.422747
vt 0.372816 0.309583
vt 0.666463 0.237571
vt 0.655417 0.237571
vt 0.655461 0.206708
vt 0.666463 0.206708
vt 0.642782 0.237571
vt 0.642958 0.206708
vt 0.644891 0.175845
vt 0.655681 0.175845
vt 0.666472 0.175845
vt 0.579887 0.237571
vt 0.501569 0.237571
vt 0.501512 0.206708
vt 0.582451 0.206708
vt 0.425299 0.237571
vt 0.422507 0.206708
vt 0.391797 0.175845
vt 0.501228 0.175845
vt 0.610658 0.175845
vt 0.220359 0.237571
vt 0.211812 0.237571
vt 0.211748 0.206708
vt 0.220104 0.206708
vt 0.205559 0.237571
vt 0.205559 0.206708
vt 0.205559 0.175845
vt 0.211429 0.175845
vt 0.217299 0.175845
vt 0.686134 0.237571
vt 0.677000 0.237571
vt 0.677040 0.206708
vt 0.686289 0.206708
vt 0.677235 0.175845
vt 0.687997 0.175845
vt 0.703571 0.237571
vt 0.693590 0.237571
vt 0.693520 0.206708
vt 0.703135 0.206708
vt 0.693169 0.175845
vt 0.698342 0.175845
vt 0.256142 0.237571
vt 0.233823 0.237571
vt 0.233578 0.206708
vt 0.255413 0.206708
vt 0.232348 0.175845
vt 0.247397 0.175845
vt 0.803710 0.237571
vt 0.797075 0.237571
vt 0.797215 0.206708
vt 0.803710 0.206708
vt 0.785380 0.237571
vt 0.785942 0.206708
vt 0.792127 0.175845
vt 0.797918 0.175845
vt 0.803710 0.175845
vt 0.765467 0.237571
vt 0.765571 0.206708
vt 0.741786 0.237571
vt 0.741643 0.206708
vt 0.740062 0.175845
vt 0.766095 0.175845
vt 0.792127 0.422746
vt 0.766095 0.422747
vt 0.765571 0.362307
vt 0.785942 0.362307
vt 0.740062 0.422746
vt 0.741642 0.362307
vt 0.741786 0.309583
vt 0.765467 0.309583
vt 0.785380 0.309583
vt 0.803710 0.422747
vt 0.797918 0.422747
vt 0.797215 0.362093
vt 0.803710 0.361021
vt 0.797075 0.308726
vt 0.803710 0.299296
vt 0.247397 0.422746
vt 0.232348 0.422747
vt 0.233578 0.362307
vt 0.255413 0.362307
vt 0.217299 0.422746
vt 0.220104 0.362307
vt 0.220359 0.309583
vt 0.233823 0.309583
vt 0.256142 0.309583
vt 0.698342 0.422746
vt 0.693169 0.422746
vt 0.693520 0.362307
vt 0.703135 0.362307
vt 0.687997 0.422746
vt 0.686289 0.362307
vt 0.686134 0.309583
vt 0.693590 0.309583
vt 0.703571 0.309583
vt 0.677235 0.422747
vt 0.677040 0.362307
vt 0.666472 0.422746
vt 0.666463 0.362307
vt 0.666463 0.309583
vt 0.677000 0.309583
vt 0.211429 0.422747
vt 0.211748 0.362093
vt 0.205559 0.422747
vt 0.205559 0.361021
vt 0.205559 0.299296
vt 0.211812 0.308726
vt 0.501228 0.422747
vt 0.501512 0.362307
vt 0.582451 0.362307
vt 0.422507 0.362307
vt 0.501569 0.309583
vt 0.579887 0.309583
vt 0.655681 0.422747
vt 0.655461 0.362307
vt 0.642958 0.362307
vt 0.642782 0.309583
vt 0.655417 0.309583
vt 0.425299 0.237571
vt 0.425299 0.269719
vt 0.386918 0.269719
vt 0.386918 0.237571
vt 0.425299 0.309583
vt 0.386918 0.309583
vt 0.372816 0.269719
vt 0.372816 0.237571
vt 0.351733 0.237571
vt 0.361791 0.237571
vt 0.361791 0.269719
vt 0.351733 0.269719
vt 0.372816 0.237571
vt 0.372816 0.269719
vt 0.372816 0.309583
vt 0.361791 0.309583
vt 0.642782 0.237571
vt 0.642782 0.269719
vt 0.623665 0.269719
vt 0.623664 0.237571
vt 0.579887 0.269719
vt 0.579887 0.237571
vt 0.719202 0.422746
vt 0.719926 0.362307
vt 0.720071 0.309583
vt 0.720071 0.237571
vt 0.719926 0.206708
vt 0.719202 0.175845
vt 0.329967 0.422746
vt 0.288682 0.422747
vt 0.288320 0.362307
vt 0.318764 0.362307
vt 0.288248 0.309583
vt 0.317745 0.309583
vt 0.317745 0.237571
vt 0.288247 0.237571
vt 0.288320 0.206708
vt 0.318764 0.206708
vt 0.288682 0.175845
vt 0.329967 0.175845
vt 0.317745 0.309583
vt 0.288247 0.269719
vt 0.317745 0.269719
vt 0.256142 0.309583
vt 0.256142 0.269719
vt 0.256142 0.237571
vt 0.288248 0.237571
vt 0.317745 0.237571
vt 0.741786 0.309583
vt 0.720071 0.309583
vt 0.720071 0.269719
vt 0.741786 0.269719
vt 0.703571 0.309583
vt 0.703571 0.269719
vt 0.703571 0.237571
vt 0.720071 0.237571
vt 0.741786 0.237571
vt 0.642958 0.206708
vt 0.624349 0.206708
vt 0.627774 0.175845
vt 0.642782 0.237571
vt 0.623664 0.237571
vt 0.579887 0.237571
vt 0.582451 0.206708
vt 0.349312 0.175845
vt 0.361629 0.175845
vt 0.361764 0.206708
vt 0.351532 0.206708
vt 0.373946 0.175845
vt 0.372910 0.206708
vt 0.372816 0.237571
vt 0.361791 0.237571
vt 0.351733 0.237571
vt 0.422507 0.206708
vt 0.386244 0.206708
vt 0.382872 0.175845
vt 0.425299 0.237571
vt 0.386918 0.237571
vt 0.372816 0.237571
vt 0.372910 0.206708
vt 0.785380 0.309583
vt 0.765467 0.309583
vt 0.765467 0.269719
vt 0.785380 0.269719
vt 0.765467 0.237571
vt 0.785380 0.237571
vt 0.797075 0.269505
vt 0.803710 0.268433
vt 0.785380 0.269719
vt 0.233823 0.309583
vt 0.233824 0.269719
vt 0.220359 0.309583
vt 0.220359 0.269719
vt 0.220359 0.237571
vt 0.233824 0.237571
vt 0.693590 0.309583
vt 0.693590 0.269719
vt 0.686134 0.309583
vt 0.686134 0.269719
vt 0.686134 0.237571
vt 0.693590 0.237571
vt 0.677000 0.269719
vt 0.666463 0.269719
vt 0.211812 0.269505
vt 0.220359 0.269719
vt 0.205559 0.268433
vt 0.501569 0.269719
vt 0.425299 0.309583
vt 0.425299 0.237571
vt 0.501569 0.237571
vt 0.655417 0.309583
vt 0.655417 0.269719
vt 0.642782 0.269719
vt 0.642782 0.237571
vt 0.655417 0.237571
vt 0.339350 0.309583
vt 0.333077 0.309583
vt 0.333077 0.269719
vt 0.339350 0.269719
vt 0.333077 0.237571
vt 0.339350 0.237571
vt 0.339350 0.237571
vt 0.333077 0.237571
vt 0.333328 0.206708
vt 0.339338 0.206708
vt 0.334586 0.175845
vt 0.339205 0.175845
vt 0.339205 0.422746
vt 0.334586 0.422747
vt 0.333328 0.362307
vt 0.339338 0.362307
vt 0.333077 0.309583
vt 0.339350 0.309583
vt 0.344259 0.175845
vt 0.344526 0.206708
vt 0.339338 0.206708
vt 0.344580 0.237571
vt 0.339350 0.237571
vt 0.339350 0.237571
vt 0.344580 0.237571
vt 0.344580 0.269719
vt 0.339350 0.269719
vt 0.344580 0.309583
vt 0.339350 0.309583
vt 0.344580 0.309583
vt 0.344526 0.362307
vt 0.339338 0.362307
vt 0.344259 0.422746
vt 0.642782 0.299296
vt 0.642958 0.361021
vt 0.624349 0.361021
vt 0.623664 0.299296
vt 0.582451 0.361021
vt 0.579887 0.299296
vt 0.334837 0.299296
vt 0.355678 0.299296
vt 0.355827 0.361021
vt 0.335201 0.361021
vt 0.371131 0.299296
vt 0.371366 0.361021
vt 0.356576 0.422747
vt 0.425299 0.299296
vt 0.422507 0.361021
vt 0.386068 0.361021
vt 0.386708 0.299296
vt 0.371366 0.361021
vt 0.666463 0.299296
vt 0.655417 0.299296
vt 0.655461 0.237571
vt 0.666463 0.237571
vt 0.642782 0.299296
vt 0.642958 0.237571
vt 0.579887 0.299296
vt 0.501569 0.299296
vt 0.501512 0.237571
vt 0.582451 0.237571
vt 0.425299 0.299296
vt 0.422507 0.237571
vt 0.225501 0.299296
vt 0.212454 0.299296
vt 0.212284 0.237571
vt 0.224818 0.237571
vt 0.205559 0.237571
vt 0.701764 0.299296
vt 0.678954 0.299296
vt 0.678668 0.237571
vt 0.700617 0.237571
vt 0.776702 0.299296
vt 0.739855 0.299296
vt 0.739889 0.237571
vt 0.777988 0.237571
vt 0.740062 0.175845
vt 0.278252 0.299296
vt 0.248801 0.299296
vt 0.248630 0.237571
vt 0.278252 0.237571
vt 0.247776 0.175845
vt 0.278252 0.175845
vt 0.795990 0.299296
vt 0.796312 0.237571
vt 0.803710 0.237571
vt 0.334837 0.299296
vt 0.308183 0.299296
vt 0.308274 0.237571
vt 0.335201 0.237571
vt 0.308729 0.175845
vt 0.308729 0.422747
vt 0.308274 0.361021
vt 0.335201 0.361021
vt 0.278252 0.422746
vt 0.278252 0.361021
vt 0.796312 0.361021
vt 0.777988 0.361021
vt 0.247776 0.422747
vt 0.248630 0.361021
vt 0.224818 0.361021
vt 0.740062 0.422747
vt 0.739889 0.361021
vt 0.700617 0.361021
vt 0.678668 0.361021
vt 0.666463 0.361021
vt 0.212284 0.361021
vt 0.501512 0.361021
vt 0.582451 0.361021
vt 0.422507 0.361021
vt 0.655461 0.361021
vt 0.642958 0.361021
vt 0.422507 0.237571
vt 0.386068 0.237571
vt 0.371366 0.237571
vt 0.356576 0.175845
vt 0.355827 0.237571
vt 0.335201 0.237571
vt 0.371366 0.237571
vt 0.642958 0.237571
vt 0.624349 0.237571
vt 0.582451 0.237571
vt 0.642287 0.601260
vt 0.640529 0.724710
vt 0.623950 0.724710
vt 0.625170 0.601260
vt 0.642287 0.848161
vt 0.625170 0.848161
vt 0.608054 0.848161
vt 0.597610 0.724710
vt 0.608054 0.601260
vt 0.336601 0.601260
vt 0.353972 0.601260
vt 0.353409 0.724781
vt 0.333322 0.725414
vt 0.371342 0.601260
vt 0.368996 0.724710
vt 0.371342 0.848161
vt 0.353972 0.848161
vt 0.336601 0.848161
vt 0.389193 0.601260
vt 0.401913 0.724710
vt 0.381305 0.724710
vt 0.380268 0.601260
vt 0.389193 0.848161
vt 0.380268 0.848161
vt 0.368996 0.724710
vt 0.663868 0.848161
vt 0.653077 0.848161
vt 0.652751 0.724710
vt 0.662365 0.724710
vt 0.640529 0.724710
vt 0.653077 0.601260
vt 0.663868 0.601260
vt 0.498624 0.848161
vt 0.443908 0.848161
vt 0.445180 0.724710
vt 0.498624 0.724710
vt 0.443908 0.601260
vt 0.498624 0.601260
vt 0.214695 0.848161
vt 0.208825 0.848161
vt 0.214681 0.734769
vt 0.226377 0.734136
vt 0.202955 0.848161
vt 0.208164 0.734839
vt 0.213372 0.621518
vt 0.219242 0.621517
vt 0.225111 0.621517
vt 0.674630 0.848161
vt 0.669249 0.848161
vt 0.669099 0.724710
vt 0.674630 0.724710
vt 0.669249 0.601260
vt 0.674630 0.601260
vt 0.696769 0.848161
vt 0.691081 0.848161
vt 0.692472 0.724710
vt 0.707792 0.724710
vt 0.685393 0.848161
vt 0.685572 0.724710
vt 0.685393 0.601260
vt 0.691758 0.601260
vt 0.698123 0.601260
vt 0.275648 0.848161
vt 0.245171 0.848161
vt 0.249725 0.732237
vt 0.278252 0.729775
vt 0.252984 0.616453
vt 0.280856 0.611389
vt 0.790038 0.848161
vt 0.784246 0.848161
vt 0.788739 0.724710
vt 0.795572 0.724710
vt 0.778455 0.848161
vt 0.773578 0.724710
vt 0.789523 0.601260
vt 0.795314 0.601260
vt 0.801106 0.601260
vt 0.306125 0.848161
vt 0.307099 0.727313
vt 0.333322 0.725414
vt 0.308729 0.606324
vt 0.737612 0.848161
vt 0.740711 0.724710
vt 0.743823 0.601260
vt 0.680012 0.848161
vt 0.680030 0.724710
vt 0.680012 0.601260
vt 0.553339 0.848161
vt 0.552294 0.724710
vt 0.597610 0.724710
vt 0.553339 0.601260
vt 0.643134 0.299296
vt 0.625035 0.299296
vt 0.585015 0.299296
vt 0.355131 0.299296
vt 0.327099 0.299296
vt 0.371600 0.299296
vt 0.419715 0.299296
vt 0.385429 0.299296
vt 0.371600 0.299296
vt 0.655505 0.299296
vt 0.666464 0.299296
vt 0.643134 0.299296
vt 0.501455 0.299296
vt 0.585015 0.299296
vt 0.419715 0.299296
vt 0.212959 0.299296
vt 0.232600 0.299296
vt 0.205559 0.299296
vt 0.678381 0.299296
vt 0.699470 0.299296
vt 0.739924 0.299296
vt 0.779273 0.299296
vt 0.278252 0.422747
vt 0.278572 0.299296
vt 0.327099 0.299296
vt 0.278252 0.175845
vt 0.796633 0.299296
vt 0.803710 0.299296
vt 0.622430 0.724710
vt 0.582411 0.724710
vt 0.352599 0.724851
vt 0.325218 0.726117
vt 0.417111 0.724710
vt 0.382825 0.724710
vt 0.652901 0.724710
vt 0.663860 0.724710
vt 0.498624 0.848161
vt 0.498851 0.724710
vt 0.582411 0.724710
vt 0.417111 0.724710
vt 0.498624 0.601260
vt 0.215491 0.734699
vt 0.234481 0.733432
vt 0.674630 0.848161
vt 0.675700 0.724710
vt 0.696097 0.724710
vt 0.674630 0.601260
vt 0.731924 0.848161
vt 0.734553 0.724710
vt 0.771904 0.724710
vt 0.737458 0.601260
vt 0.788572 0.724710
vt 0.275648 0.848161
vt 0.278572 0.729775
vt 0.325218 0.726117
vt 0.280856 0.611389
vt 0.693087 0.299296
vt 0.677870 0.299296
vt 0.677764 0.237571
vt 0.692663 0.237571
vt 0.740062 0.299296
vt 0.714666 0.299296
vt 0.714560 0.237571
vt 0.740062 0.237571
vt 0.714030 0.175845
vt 0.797075 0.299296
vt 0.797215 0.237571
vt 0.785380 0.299296
vt 0.785942 0.237571
vt 0.797215 0.361021
vt 0.785942 0.361021
vt 0.714030 0.422747
vt 0.714560 0.361021
vt 0.740062 0.361021
vt 0.692663 0.361021
vt 0.677764 0.361021
vt 0.765392 0.361021
vt 0.765251 0.299296
vt 0.765392 0.237571
vt 0.640178 0.724710
vt 0.640354 0.786436
vt 0.621745 0.786436
vt 0.621060 0.724710
vt 0.579847 0.786436
vt 0.577283 0.724710
vt 0.322195 0.726398
vt 0.351819 0.724921
vt 0.352173 0.786541
vt 0.323345 0.787280
vt 0.368527 0.724710
vt 0.368762 0.786436
vt 0.422695 0.724710
vt 0.419903 0.786436
vt 0.383464 0.786436
vt 0.384103 0.724710
vt 0.368762 0.786436
vt 0.368527 0.724710
vt 0.663859 0.724710
vt 0.652813 0.724710
vt 0.652857 0.662985
vt 0.663859 0.662985
vt 0.640178 0.724710
vt 0.640354 0.662985
vt 0.498965 0.724710
vt 0.498908 0.662985
vt 0.579847 0.662985
vt 0.422695 0.724710
vt 0.419903 0.662985
vt 0.234410 0.733151
vt 0.214167 0.734628
vt 0.215282 0.677932
vt 0.233453 0.675928
vt 0.208164 0.734839
vt 0.210768 0.678178
vt 0.214762 0.621518
vt 0.216153 0.621517
vt 0.698238 0.724710
vt 0.676235 0.724710
vt 0.676006 0.662985
vt 0.697552 0.662985
vt 0.769487 0.724710
vt 0.734484 0.724710
vt 0.735902 0.662985
vt 0.773078 0.662985
vt 0.795572 0.724710
vt 0.787968 0.724710
vt 0.790998 0.662985
vt 0.798339 0.662985
vt 0.276585 0.729775
vt 0.276703 0.670582
vt 0.323446 0.665236
vt 0.276377 0.611389
vt 0.276276 0.788968
vt 0.323345 0.787280
vt 0.232203 0.790656
vt 0.785541 0.786436
vt 0.792805 0.786436
vt 0.768313 0.786436
vt 0.733135 0.786436
vt 0.696783 0.786436
vt 0.675929 0.786436
vt 0.663859 0.786436
vt 0.212261 0.791395
vt 0.205559 0.791500
vt 0.498908 0.786436
vt 0.579847 0.786436
vt 0.419903 0.786436
vt 0.652857 0.786436
vt 0.640354 0.786436
vt 0.383464 0.662985
vt 0.368762 0.662985
vt 0.352183 0.663231
vt 0.323446 0.665236
vt 0.368762 0.662985
vt 0.640354 0.662985
vt 0.621745 0.662985
vt 0.579847 0.662985
vt 0.642782 0.325623
vt 0.642958 0.379121
vt 0.624349 0.379121
vt 0.623664 0.325623
vt 0.582451 0.379121
vt 0.579887 0.325623
vt 0.334837 0.325623
vt 0.355678 0.325623
vt 0.355827 0.379121
vt 0.335201 0.379121
vt 0.371131 0.325623
vt 0.371366 0.379121
vt 0.425299 0.325623
vt 0.422507 0.379121
vt 0.386068 0.379121
vt 0.386708 0.325623
vt 0.666463 0.325623
vt 0.655417 0.325623
vt 0.655461 0.255670
vt 0.666463 0.255670
vt 0.642782 0.325623
vt 0.642958 0.255670
vt 0.579887 0.325623
vt 0.501569 0.325623
vt 0.501512 0.255670
vt 0.582451 0.255670
vt 0.425299 0.325623
vt 0.422507 0.255670
vt 0.225501 0.325623
vt 0.212454 0.326720
vt 0.212284 0.255945
vt 0.224818 0.255670
vt 0.205559 0.338786
vt 0.205559 0.257316
vt 0.701764 0.325623
vt 0.678954 0.325623
vt 0.678668 0.255670
vt 0.700617 0.255670
vt 0.776702 0.325623
vt 0.739855 0.325623
vt 0.739889 0.255670
vt 0.777988 0.255670
vt 0.278252 0.325623
vt 0.248801 0.325623
vt 0.248630 0.255670
vt 0.278252 0.255670
vt 0.803710 0.338786
vt 0.795990 0.326720
vt 0.796312 0.255945
vt 0.803710 0.257316
vt 0.796312 0.379395
vt 0.803710 0.380766
vt 0.777988 0.379121
vt 0.248630 0.379121
vt 0.278252 0.379121
vt 0.224818 0.379121
vt 0.739889 0.379121
vt 0.700617 0.379121
vt 0.678668 0.379121
vt 0.666463 0.379121
vt 0.212284 0.379395
vt 0.205559 0.380766
vt 0.501512 0.379121
vt 0.582451 0.379121
vt 0.422507 0.379121
vt 0.655461 0.379121
vt 0.642958 0.379121
vt 0.422507 0.255670
vt 0.386068 0.255670
vt 0.371366 0.255670
vt 0.355827 0.255670
vt 0.335201 0.255670
vt 0.371366 0.255670
vt 0.642958 0.255670
vt 0.624349 0.255670
vt 0.582451 0.255670
vt 0.308274 0.379121
vt 0.335201 0.379121
vt 0.308183 0.325623
vt 0.334837 0.325623
vt 0.308274 0.255670
vt 0.335201 0.255670
s 1
usemtl Material.004
f 25/1/1 67/2/2 173/3/3 121/4/4
f 67/2/2 2/5/5 76/6/6 173/3/3
f 173/3/3 76/6/6 17/7/7 106/8/8
f 121/4/4 173/3/3 106/8/8 32/9/9
f 63/10/10 168/11/11 174/12/12 172/13/13
f 168/11/11 33/14/14 107/15/15 174/12/12
f 174/12/12 107/15/15 18/16/16 167/17/17
f 172/13/13 174/12/12 167/17/17 62/18/18
f 26/19/19 69/20/20 175/21/21 119/22/22
f 69/20/20 3/23/23 82/24/24 175/21/21
f 175/21/21 82/24/24 18/16/16 107/15/15
f 119/22/22 175/21/21 107/15/15 33/25/14
f 54/26/25 158/27/26 176/28/27 143/29/28
f 158/27/26 49/30/29 138/31/30 176/28/27
f 176/28/27 138/31/30 1/32/31 85/33/32
f 143/29/28 176/28/27 85/33/32 14/34/33
f 44/35/34 157/36/35 177/37/36 88/38/37
f 157/36/35 50/39/38 139/40/39 177/37/36
f 177/37/36 139/40/39 4/41/40 75/42/41
f 88/38/37 177/37/36 75/42/41 15/43/42
f 46/44/43 156/45/44 178/46/45 92/47/46
f 156/45/44 53/48/47 142/49/48 178/46/45
f 178/46/45 142/49/48 12/50/49 90/51/50
f 92/47/46 178/46/45 90/51/50 19/52/51
f 51/53/52 155/54/53 179/55/54 140/56/55
f 155/54/53 54/26/25 143/29/28 179/55/54
f 179/55/54 143/29/28 14/34/33 70/57/56
f 140/56/55 179/55/54 70/57/56 5/58/57
f 55/59/58 154/60/59 180/61/60 126/62/61
f 154/60/59 51/53/52 140/56/55 180/61/60
f 180/61/60 140/56/55 5/58/57 123/63/62
f 126/62/61 180/61/60 123/63/62 38/64/63
f 56/65/64 153/66/65 181/67/66 131/68/67
f 153/66/65 46/44/43 92/47/46 181/67/66
f 181/67/66 92/47/46 19/52/51 127/69/68
f 131/68/67 181/67/66 127/69/68 40/70/69
f 43/71/70 152/72/71 182/73/72 87/74/73
f 152/72/71 47/75/74 95/76/75 182/73/72
f 182/73/72 95/76/75 22/77/76 78/78/77
f 87/74/73 182/73/72 78/78/77 9/79/78
f 47/75/74 151/80/79 183/81/80 95/76/75
f 151/80/79 48/82/81 98/83/82 183/81/80
f 183/81/80 98/83/82 24/84/83 94/85/84
f 95/76/75 183/81/80 94/85/84 22/77/76
f 21/86/85 96/87/86 184/88/87 109/89/88
f 96/87/86 23/90/89 110/91/90 184/88/87
f 184/88/87 110/91/90 36/92/91 111/93/92
f 109/89/88 184/88/87 111/93/92 35/94/93
f 10/95/94 93/96/95 185/97/96 105/98/97
f 93/96/95 21/86/85 109/89/88 185/97/96
f 185/97/96 109/89/88 35/94/93 112/99/98
f 105/98/97 185/97/96 112/99/98 31/100/99
f 41/101/100 91/102/101 186/103/102 130/104/103
f 91/102/101 20/105/104 108/106/105 186/103/102
f 186/103/102 108/106/105 34/107/106 129/108/107
f 130/104/103 186/103/102 129/108/107 42/109/108
f 37/110/109 71/111/110 187/112/111 125/113/112
f 71/111/110 6/114/113 72/115/114 187/112/111
f 187/112/111 72/115/114 27/116/115 124/117/116
f 125/113/112 187/112/111 124/117/116 39/118/117
f 6/114/113 84/119/118 188/120/119 72/115/114
f 84/119/118 13/121/120 86/122/121 188/120/119
f 188/120/119 86/122/121 30/123/122 115/124/123
f 72/115/114 188/120/119 115/124/123 27/116/115
f 20/105/104 79/125/124 189/126/125 108/106/105
f 79/125/124 11/127/126 80/128/127 189/126/125
f 189/126/125 80/128/127 29/129/128 116/130/129
f 108/106/105 189/126/125 116/130/129 34/107/106
f 17/7/7 77/131/130 190/132/131 106/133/8
f 77/131/130 3/23/23 69/134/20 190/132/131
f 190/132/131 69/134/20 26/19/19 117/135/132
f 106/133/8 190/132/131 117/135/132 32/136/9
f 13/121/120 66/137/133 191/138/134 86/122/121
f 66/137/133 2/5/5 67/139/2 191/138/134
f 191/138/134 67/139/2 25/140/1 118/141/135
f 86/122/121 191/138/134 118/141/135 30/123/122
f 50/142/38 100/143/136 192/144/137 150/145/138
f 100/143/136 26/146/19 119/147/22 192/144/137
f 192/144/137 119/147/22 33/25/14 134/148/139
f 150/145/138 192/144/137 134/148/139 45/149/140
f 64/150/141 169/151/142 193/152/143 171/153/144
f 169/151/142 45/154/140 134/155/139 193/152/143
f 193/152/143 134/155/139 33/156/14 168/157/11
f 171/153/144 193/152/143 168/157/11 63/10/10
f 49/158/29 99/159/145 194/160/146 148/161/147
f 99/159/145 25/140/1 121/4/4 194/160/146
f 194/160/146 121/4/4 32/136/9 133/162/148
f 148/161/147 194/160/146 133/162/148 44/163/34
f 23/90/89 122/164/149 195/165/150 110/91/90
f 122/164/149 37/110/109 125/113/112 195/165/150
f 195/165/150 125/113/112 39/118/117 114/166/151
f 110/91/90 195/165/150 114/166/151 36/92/91
f 48/82/81 147/167/152 196/168/153 98/83/82
f 147/167/152 55/59/58 126/62/61 196/168/153
f 196/168/153 126/62/61 38/64/63 97/169/154
f 98/83/82 196/168/153 97/169/154 24/84/83
f 59/170/155 128/171/156 197/172/157 165/173/158
f 128/171/156 41/101/100 130/104/103 197/172/157
f 197/172/157 130/104/103 42/109/108 160/174/159
f 165/173/158 197/172/157 160/174/159 58/175/160
f 60/176/161 162/177/162 198/178/163 164/179/164
f 162/177/162 56/65/64 131/68/67 198/178/163
f 198/178/163 131/68/67 40/70/69 159/180/165
f 164/179/164 198/178/163 159/180/165 57/181/166
f 58/182/160 160/174/159 199/183/167 163/184/168
f 160/174/159 42/185/108 145/186/169 199/183/167
f 199/183/167 145/186/169 56/187/64 162/188/162
f 163/184/168 199/183/167 162/188/162 60/189/161
f 36/190/91 114/191/151 200/192/170 137/193/171
f 114/191/151 39/194/117 144/195/172 200/192/170
f 200/192/170 144/195/172 55/196/58 147/197/152
f 137/193/171 200/192/170 147/197/152 48/198/81
f 1/32/31 138/199/30 201/200/173 65/201/174
f 138/199/30 49/202/29 148/203/147 201/200/173
f 201/200/173 148/203/147 44/204/34 88/205/37
f 65/201/174 201/200/173 88/205/37 15/43/42
f 61/206/175 81/207/176 202/208/177 170/209/178
f 81/207/176 16/210/179 89/211/180 202/208/177
f 202/208/177 89/211/180 45/212/140 169/213/142
f 170/209/178 202/208/177 169/213/142 64/214/141
f 4/41/40 139/215/39 203/216/181 68/217/182
f 139/215/39 50/218/38 150/219/138 203/216/181
f 203/216/181 150/219/138 45/220/140 89/221/180
f 68/217/182 203/216/181 89/221/180 16/210/179
f 35/222/93 111/223/92 204/224/183 136/225/184
f 111/223/92 36/190/91 137/193/171 204/224/183
f 204/224/183 137/193/171 48/198/81 151/226/79
f 136/225/184 204/224/183 151/226/79 47/227/74
f 31/100/99 112/99/98 205/228/185 132/229/186
f 112/99/98 35/94/93 136/230/184 205/228/185
f 205/228/185 136/230/184 47/75/74 152/72/71
f 132/229/186 205/228/185 152/72/71 43/71/70
f 42/185/108 129/231/107 206/232/187 145/186/169
f 129/231/107 34/233/106 135/234/188 206/232/187
f 206/232/187 135/234/188 46/235/43 153/236/65
f 145/186/169 206/232/187 153/236/65 56/187/64
f 39/194/117 124/237/116 207/238/189 144/195/172
f 124/237/116 27/239/115 101/240/190 207/238/189
f 207/238/189 101/240/190 51/241/52 154/242/59
f 144/195/172 207/238/189 154/242/59 55/196/58
f 27/239/115 115/124/123 208/243/191 101/240/190
f 115/124/123 30/123/122 104/244/192 208/243/191
f 208/243/191 104/244/192 54/26/25 155/54/53
f 101/240/190 208/243/191 155/54/53 51/241/52
f 34/107/106 116/130/129 209/245/193 135/246/188
f 116/130/129 29/129/128 103/247/194 209/245/193
f 209/245/193 103/247/194 53/48/47 156/45/44
f 135/246/188 209/245/193 156/45/44 46/44/43
f 32/136/9 117/135/132 210/248/195 133/162/148
f 117/135/132 26/249/19 100/143/136 210/248/195
f 210/248/195 100/143/136 50/250/38 157/251/35
f 133/162/148 210/248/195 157/251/35 44/35/34
f 30/123/122 118/252/135 211/253/196 104/244/192
f 118/252/135 25/140/1 99/254/145 211/253/196
f 211/253/196 99/254/145 49/255/29 158/256/26
f 104/244/192 211/253/196 158/256/26 54/26/25
f 28/257/197 113/258/198 212/259/199 102/260/200
f 113/258/198 58/182/160 163/184/168 212/259/199
f 212/259/199 163/184/168 60/189/161 146/261/201
f 102/260/200 212/259/199 146/261/201 52/262/202
f 52/263/202 146/264/201 213/265/203 141/266/204
f 146/264/201 60/176/161 164/179/164 213/265/203
f 213/265/203 164/179/164 57/181/166 73/267/205
f 141/266/204 213/265/203 73/267/205 8/268/206
f 7/269/207 161/270/208 214/271/209 74/272/210
f 161/270/208 59/170/155 165/173/158 214/271/209
f 214/271/209 165/173/158 58/175/160 113/273/198
f 74/272/210 214/271/209 113/273/198 28/274/197
f 8/268/206 166/275/211 215/276/212 141/277/204
f 166/275/211 61/206/175 170/209/178 215/276/212
f 215/276/212 170/209/178 64/214/141 149/278/213
f 141/277/204 215/276/212 149/278/213 52/279/202
f 52/280/202 149/281/213 216/282/214 102/283/200
f 149/281/213 64/150/141 171/153/144 216/282/214
f 216/282/214 171/153/144 63/10/10 120/284/215
f 102/283/200 216/282/214 120/284/215 28/285/197
f 28/257/197 120/286/215 217/287/216 74/288/210
f 120/286/215 63/10/10 172/13/13 217/287/216
f 217/287/216 172/13/13 62/18/18 83/289/217
f 74/288/210 217/287/216 83/289/217 7/269/207
f 242/290/218 256/291/219 311/292/220 310/293/220
f 256/291/219 219/5/221 265/6/222 311/292/220
f 311/292/220 265/6/222 234/7/223 295/294/224
f 310/293/220 311/292/220 295/294/224 249/295/224
f 245/296/225 309/297/226 312/298/227 263/299/228
f 309/297/226 250/300/229 296/301/230 312/298/227
f 312/298/227 296/301/230 235/16/231 272/302/232
f 263/299/228 312/298/227 272/302/232 224/269/233
f 243/303/234 258/304/235 313/305/236 308/306/237
f 258/304/235 220/23/238 271/24/239 313/305/236
f 313/305/236 271/24/239 235/16/231 296/307/230
f 308/306/237 313/305/236 296/307/230 250/300/229
f 247/308/240 307/309/241 314/310/242 293/311/243
f 307/309/241 242/312/218 288/313/244 314/310/242
f 314/310/242 288/313/244 218/32/245 274/33/246
f 293/311/243 314/310/242 274/33/246 231/34/247
f 249/314/224 306/315/248 315/316/248 277/317/224
f 306/315/248 243/318/234 289/319/249 315/316/248
f 315/316/248 289/319/249 221/41/250 264/42/251
f 277/317/224 315/316/248 264/42/251 232/43/252
f 251/320/253 305/321/254 316/322/255 281/323/256
f 305/321/254 246/129/257 292/324/258 316/322/255
f 316/322/255 292/324/258 229/50/259 279/51/260
f 281/323/256 316/322/255 279/51/260 236/52/261
f 244/325/262 304/326/263 317/327/264 290/328/265
f 304/326/263 247/308/240 293/311/243 317/327/264
f 317/327/264 293/311/243 231/34/247 259/57/266
f 290/328/265 317/327/264 259/57/266 222/58/267
f 252/329/268 303/330/269 318/331/270 284/332/271
f 303/330/269 244/325/262 290/328/265 318/331/270
f 318/331/270 290/328/265 222/58/267 283/333/272
f 284/332/271 318/331/270 283/333/272 239/77/273
f 253/334/274 302/335/275 319/336/276 287/337/277
f 302/335/275 251/320/253 281/323/256 319/336/276
f 319/336/276 281/323/256 236/52/261 285/338/278
f 287/337/277 319/336/276 285/338/278 240/339/279
f 248/100/280 301/340/281 320/341/282 276/342/283
f 301/340/281 252/329/268 284/332/271 320/341/282
f 320/341/282 284/332/271 239/77/273 267/78/284
f 276/342/283 320/341/282 267/78/284 226/79/285
f 245/343/225 300/344/286 321/345/287 291/346/288
f 300/344/286 253/334/274 287/337/277 321/345/287
f 321/345/287 287/337/277 240/339/279 262/347/289
f 291/346/288 321/345/287 262/347/289 225/268/290
f 224/269/233 286/348/291 322/349/292 263/350/228
f 286/348/291 241/351/293 299/352/294 322/349/292
f 322/349/292 299/352/294 253/334/274 300/344/286
f 263/350/228 322/349/292 300/344/286 245/343/225
f 227/95/295 282/96/296 323/353/297 294/98/298
f 282/96/296 238/86/299 298/354/300 323/353/297
f 323/353/297 298/354/300 252/329/268 301/340/281
f 294/98/298 323/353/297 301/340/281 248/100/280
f 241/351/293 280/355/301 324/356/302 299/352/294
f 280/355/301 237/105/303 297/357/304 324/356/302
f 324/356/302 297/357/304 251/320/253 302/335/275
f 299/352/294 324/356/302 302/335/275 253/334/274
f 238/86/299 260/358/305 325/359/306 298/354/300
f 260/358/305 223/114/307 261/360/308 325/359/306
f 325/359/306 261/360/308 244/325/262 303/330/269
f 298/354/300 325/359/306 303/330/269 252/329/268
f 223/114/307 273/119/309 326/361/310 261/360/308
f 273/119/309 230/121/311 275/362/312 326/361/310
f 326/361/310 275/362/312 247/308/240 304/326/263
f 261/360/308 326/361/310 304/326/263 244/325/262
f 237/105/303 268/125/313 327/363/314 297/357/304
f 268/125/313 228/127/315 269/128/316 327/363/314
f 327/363/314 269/128/316 246/129/257 305/321/254
f 297/357/304 327/363/314 305/321/254 251/320/253
f 234/7/223 266/131/317 328/364/248 295/365/224
f 266/131/317 220/23/238 258/366/235 328/364/248
f 328/364/248 258/366/235 243/318/234 306/315/248
f 295/365/224 328/364/248 306/315/248 249/314/224
f 230/121/311 255/137/318 329/367/319 275/362/312
f 255/137/318 219/5/221 256/368/219 329/367/319
f 329/367/319 256/368/219 242/312/218 307/309/241
f 275/362/312 329/367/319 307/309/241 247/308/240
f 221/41/250 289/369/249 330/370/320 257/217/321
f 289/369/249 243/303/234 308/306/237 330/370/320
f 330/370/320 308/306/237 250/300/229 278/371/322
f 257/217/321 330/370/320 278/371/322 233/210/323
f 225/268/290 270/372/324 331/373/325 291/374/288
f 270/372/324 233/210/323 278/375/322 331/373/325
f 331/373/325 278/375/322 250/300/229 309/297/226
f 291/374/288 331/373/325 309/297/226 245/296/225
f 218/32/245 288/376/244 332/377/220 254/201/326
f 288/376/244 242/290/218 310/293/220 332/377/220
f 332/377/220 310/293/220 249/295/224 277/378/224
f 254/201/326 332/377/220 277/378/224 232/43/252
f 333/379/327 365/380/328 406/381/329 363/382/330
f 365/380/328 334/383/331 374/384/332 406/381/329
f 406/381/329 374/384/332 349/385/333 386/386/334
f 363/382/330 406/381/329 386/386/334 347/387/335
f 340/388/336 379/389/337 407/390/338 372/391/339
f 379/389/337 348/392/340 387/393/341 407/390/338
f 407/390/338 387/393/341 350/394/342 381/395/343
f 372/391/339 407/390/338 381/395/343 339/396/344
f 336/397/345 367/398/346 408/399/347 366/400/348
f 367/398/346 335/401/349 380/402/350 408/399/347
f 408/399/347 380/402/350 350/394/342 387/403/341
f 366/400/348 408/399/347 387/403/341 348/392/340
f 345/404/351 364/405/352 409/406/353 384/407/354
f 364/405/352 334/383/331 365/408/328 409/406/353
f 409/406/353 365/408/328 333/379/327 383/409/355
f 384/407/354 409/406/353 383/409/355 346/410/356
f 362/411/357 375/412/358 410/413/359 405/414/360
f 375/412/358 335/401/349 367/398/346 410/413/359
f 410/413/359 367/398/346 336/397/345 403/415/361
f 405/414/360 410/413/359 403/415/361 361/416/362
f 352/417/363 377/418/364 411/419/365 390/420/366
f 377/418/364 343/421/367 378/422/368 411/419/365
f 411/419/365 378/422/368 344/423/369 388/424/370
f 390/420/366 411/419/365 388/424/370 351/425/371
f 360/426/372 382/427/373 412/428/374 402/429/375
f 382/427/373 345/404/351 384/407/354 412/428/374
f 412/428/374 384/407/354 346/410/356 400/430/376
f 402/429/375 412/428/374 400/430/376 359/431/377
f 357/432/378 369/433/379 413/434/380 399/435/381
f 369/433/379 338/436/382 370/437/383 413/434/380
f 413/434/380 370/437/383 337/438/384 398/439/385
f 399/435/381 413/434/380 398/439/385 358/440/386
f 356/441/387 389/442/388 414/443/389 396/444/390
f 389/442/388 352/417/363 390/420/366 414/443/389
f 414/443/389 390/420/366 351/425/371 394/445/391
f 396/444/390 414/443/389 394/445/391 355/446/392
f 342/447/393 391/448/394 415/449/395 385/450/396
f 391/448/394 353/451/397 393/452/398 415/449/395
f 415/449/395 393/452/398 354/453/399 376/454/400
f 385/450/396 415/449/395 376/454/400 341/455/401
f 339/396/344 395/456/402 416/457/403 372/458/339
f 395/456/402 356/441/387 396/444/390 416/457/403
f 416/457/403 396/444/390 355/446/392 371/459/404
f 372/458/339 416/457/403 371/459/404 340/388/336
f 353/451/397 397/460/405 417/461/406 393/452/398
f 397/460/405 357/432/378 399/435/381 417/461/406
f 417/461/406 399/435/381 358/440/386 392/462/407
f 393/452/398 417/461/406 392/462/407 354/453/399
f 338/436/382 401/463/408 418/464/409 370/437/383
f 401/463/408 360/426/372 402/429/375 418/464/409
f 418/464/409 402/429/375 359/431/377 368/465/410
f 370/437/383 418/464/409 368/465/410 337/438/384
f 349/385/333 404/466/411 419/467/412 386/468/334
f 404/466/411 362/411/357 405/414/360 419/467/412
f 419/467/412 405/414/360 361/416/362 373/469/413
f 386/468/334 419/467/412 373/469/413 347/387/335
f 420/32/414 444/470/415 473/471/416 442/201/417
f 444/470/415 421/5/418 453/6/419 473/471/416
f 473/471/416 453/6/419 436/7/420 465/472/421
f 442/201/417 473/471/416 465/472/421 434/43/422
f 427/268/423 458/372/424 474/473/425 451/474/426
f 458/372/424 435/210/427 466/475/428 474/473/425
f 474/473/425 466/475/428 437/16/429 460/302/430
f 451/474/426 474/473/425 460/302/430 426/269/431
f 423/41/432 446/476/433 475/477/434 445/217/435
f 446/476/433 422/23/436 459/24/437 475/477/434
f 475/477/434 459/24/437 437/16/429 466/478/428
f 445/217/435 475/477/434 466/478/428 435/210/427
f 432/121/438 443/137/439 476/479/440 463/480/441
f 443/137/439 421/5/418 444/481/415 476/479/440
f 476/479/440 444/481/415 420/32/414 462/33/442
f 463/480/441 476/479/440 462/33/442 433/34/443
f 436/7/420 454/131/444 477/482/445 465/483/421
f 454/131/444 422/23/436 446/484/433 477/482/445
f 477/482/445 446/484/433 423/41/432 452/42/446
f 465/483/421 477/482/445 452/42/446 434/43/422
f 439/105/447 456/125/448 478/485/449 469/486/450
f 456/125/448 430/127/451 457/487/452 478/485/449
f 478/485/449 457/487/452 431/50/453 467/51/454
f 469/486/450 478/485/449 467/51/454 438/52/455
f 425/114/456 461/119/457 479/488/458 449/489/459
f 461/119/457 432/121/438 463/480/441 479/488/458
f 479/488/458 463/480/441 433/34/443 447/57/460
f 449/489/459 479/488/458 447/57/460 424/58/461
f 440/86/462 448/358/463 480/490/464 472/491/465
f 448/358/463 425/114/456 449/489/459 480/490/464
f 480/490/464 449/489/459 424/58/461 471/333/466
f 472/491/465 480/490/464 471/333/466 441/77/467
f 426/269/431 468/492/468 481/493/469 451/494/426
f 468/492/468 439/105/447 469/486/450 481/493/469
f 481/493/469 469/486/450 438/52/455 450/495/470
f 451/494/426 481/493/469 450/495/470 427/268/423
f 429/95/471 470/96/472 482/496/473 464/497/474
f 470/96/472 440/86/462 472/491/465 482/496/473
f 482/496/473 472/491/465 441/77/467 455/78/475
f 464/497/474 482/496/473 455/78/475 428/79/476
f 483/379/477 507/380/478 536/498/479 505/382/480
f 507/380/478 484/383/481 515/384/482 536/498/479
f 536/498/479 515/384/482 499/385/483 527/499/484
f 505/382/480 536/498/479 527/499/484 497/387/485
f 490/388/486 520/389/487 537/500/488 513/501/489
f 520/389/487 498/392/490 528/393/491 537/500/488
f 537/500/488 528/393/491 500/394/492 522/395/493
f 513/501/489 537/500/488 522/395/493 489/396/494
f 486/397/495 509/502/496 538/503/497 508/400/498
f 509/502/496 485/401/499 521/402/500 538/503/497
f 538/503/497 521/402/500 500/394/492 528/403/491
f 508/400/498 538/503/497 528/403/491 498/392/490
f 495/404/501 506/405/502 539/504/503 525/505/504
f 506/405/502 484/383/481 507/408/478 539/504/503
f 539/504/503 507/408/478 483/379/477 524/409/505
f 525/505/504 539/504/503 524/409/505 496/410/506
f 499/385/483 516/506/507 540/507/508 527/508/484
f 516/506/507 485/401/499 509/509/496 540/507/508
f 540/507/508 509/509/496 486/397/495 514/510/509
f 527/508/484 540/507/508 514/510/509 497/387/485
f 502/417/510 518/418/511 541/511/512 530/512/513
f 518/418/511 493/421/514 519/422/515 541/511/512
f 541/511/512 519/422/515 494/423/516 529/424/517
f 530/512/513 541/511/512 529/424/517 501/425/518
f 488/436/519 523/513/520 542/514/521 512/515/522
f 523/513/520 495/404/501 525/505/504 542/514/521
f 542/514/521 525/505/504 496/410/506 510/516/523
f 512/515/522 542/514/521 510/516/523 487/438/524
f 503/451/525 511/517/526 543/518/527 533/519/528
f 511/517/526 488/436/519 512/515/522 543/518/527
f 543/518/527 512/515/522 487/438/524 532/520/529
f 533/519/528 543/518/527 532/520/529 504/453/530
f 492/447/531 531/448/532 544/521/533 526/450/534
f 531/448/532 503/451/525 533/519/528 544/521/533
f 544/521/533 533/519/528 504/453/530 517/454/535
f 526/450/534 544/521/533 517/454/535 491/455/536
f 489/396/494 535/522/537 545/523/538 513/524/489
f 535/522/537 502/417/510 530/512/513 545/523/538
f 545/523/538 530/512/513 501/425/518 534/525/539
f 513/524/489 545/523/538 534/525/539 490/388/486
f 570/290/540 587/291/541 647/292/542 641/293/542
f 587/291/541 547/5/543 596/6/544 647/292/542
f 647/292/542 596/6/544 562/7/545 626/294/546
f 641/293/542 647/292/542 626/294/546 577/295/546
f 573/296/547 640/297/548 648/298/549 594/299/550
f 640/297/548 578/300/551 627/301/552 648/298/549
f 648/298/549 627/301/552 563/16/553 603/302/554
f 594/299/550 648/298/549 603/302/554 552/269/555
f 571/303/556 589/304/557 649/305/558 639/306/559
f 589/304/557 548/23/560 602/24/561 649/305/558
f 649/305/558 602/24/561 563/16/553 627/307/552
f 639/306/559 649/305/558 627/307/552 578/300/551
f 575/308/562 638/309/563 650/310/564 624/311/565
f 638/309/563 570/312/540 619/313/566 650/310/564
f 650/310/564 619/313/566 546/32/567 605/33/568
f 624/311/565 650/310/564 605/33/568 559/34/569
f 577/314/546 637/315/570 651/316/570 608/317/546
f 637/315/570 571/318/556 620/319/571 651/316/570
f 651/316/570 620/319/571 549/41/572 595/42/573
f 608/317/546 651/316/570 595/42/573 560/43/574
f 579/320/575 636/321/576 652/322/577 612/323/578
f 636/321/576 574/129/579 623/324/580 652/322/577
f 652/322/577 623/324/580 557/50/581 610/51/582
f 612/323/578 652/322/577 610/51/582 564/52/583
f 572/526/584 635/527/585 653/528/586 621/529/587
f 635/527/585 575/308/562 624/311/565 653/528/586
f 653/528/586 624/311/565 559/34/569 590/57/588
f 621/529/587 653/528/586 590/57/588 550/58/589
f 584/530/590 644/531/591 654/532/592 646/533/593
f 644/531/591 572/526/584 621/529/587 654/532/592
f 654/532/592 621/529/587 550/58/589 643/534/594
f 646/533/593 654/532/592 643/534/594 583/84/595
f 581/334/596 633/335/597 655/336/598 618/337/599
f 633/335/597 579/320/575 612/323/578 655/336/598
f 655/336/598 612/323/578 564/52/583 616/338/600
f 618/337/599 655/336/598 616/338/600 568/339/601
f 576/100/602 632/535/603 656/536/604 607/342/605
f 632/535/603 580/537/606 615/538/607 656/536/604
f 656/536/604 615/538/607 567/77/608 598/78/609
f 607/342/605 656/536/604 598/78/609 554/79/610
f 573/343/547 631/344/611 657/345/612 622/346/613
f 631/344/611 581/334/596 618/337/599 657/345/612
f 657/345/612 618/337/599 568/339/601 593/347/614
f 622/346/613 657/345/612 593/347/614 553/268/615
f 552/269/555 617/348/616 658/349/617 594/350/550
f 617/348/616 569/351/618 630/352/619 658/349/617
f 658/349/617 630/352/619 581/334/596 631/344/611
f 594/350/550 658/349/617 631/344/611 573/343/547
f 555/95/620 613/96/621 659/539/622 625/98/623
f 613/96/621 566/86/624 629/540/625 659/539/622
f 659/539/622 629/540/625 580/537/606 632/535/603
f 625/98/623 659/539/622 632/535/603 576/100/602
f 569/351/618 611/355/626 660/356/627 630/352/619
f 611/355/626 565/105/628 628/357/629 660/356/627
f 660/356/627 628/357/629 579/320/575 633/335/597
f 630/352/619 660/356/627 633/335/597 581/334/596
f 582/90/630 591/541/631 661/542/632 645/543/633
f 591/541/631 551/114/634 592/544/635 661/542/632
f 661/542/632 592/544/635 572/526/584 644/531/591
f 645/543/633 661/542/632 644/531/591 584/530/590
f 551/114/634 604/119/636 662/545/637 592/544/635
f 604/119/636 558/121/638 606/362/639 662/545/637
f 662/545/637 606/362/639 575/308/562 635/527/585
f 592/544/635 662/545/637 635/527/585 572/526/584
f 565/105/628 599/125/640 663/363/641 628/357/629
f 599/125/640 556/127/642 600/128/643 663/363/641
f 663/363/641 600/128/643 574/129/579 636/321/576
f 628/357/629 663/363/641 636/321/576 579/320/575
f 562/7/545 597/131/644 664/364/570 626/365/546
f 597/131/644 548/23/560 589/366/557 664/364/570
f 664/364/570 589/366/557 571/318/556 637/315/570
f 626/365/546 664/364/570 637/315/570 577/314/546
f 558/121/638 586/137/645 665/367/646 606/362/639
f 586/137/645 547/5/543 587/368/541 665/367/646
f 665/367/646 587/368/541 570/312/540 638/309/563
f 606/362/639 665/367/646 638/309/563 575/308/562
f 549/41/572 620/369/571 666/370/647 588/217/648
f 620/369/571 571/303/556 639/306/559 666/370/647
f 666/370/647 639/306/559 578/300/551 609/371/649
f 588/217/648 666/370/647 609/371/649 561/210/650
f 553/268/615 601/372/651 667/373/652 622/374/613
f 601/372/651 561/210/650 609/375/649 667/373/652
f 667/373/652 609/375/649 578/300/551 640/297/548
f 622/374/613 667/373/652 640/297/548 573/296/547
f 546/32/567 619/376/566 668/377/542 585/201/653
f 619/376/566 570/290/540 641/293/542 668/377/542
f 668/377/542 641/293/542 577/295/546 608/378/546
f 585/201/653 668/377/542 608/378/546 560/43/574
f 566/86/624 642/87/654 669/546/655 629/540/625
f 642/87/654 582/90/630 645/543/633 669/546/655
f 669/546/655 645/543/633 584/530/590 634/547/656
f 629/540/625 669/546/655 634/547/656 580/537/606
f 580/537/606 634/547/656 670/548/657 615/538/607
f 634/547/656 584/530/590 646/533/593 670/548/657
f 670/548/657 646/533/593 583/84/595 614/85/658
f 615/538/607 670/548/657 614/85/658 567/77/608
f 693/549/659 706/550/660 756/551/661 755/552/662
f 706/550/660 672/383/663 714/384/664 756/551/661
f 756/551/661 714/384/664 687/385/665 742/553/666
f 755/552/662 756/551/661 742/553/666 700/554/667
f 696/555/668 754/556/669 757/557/670 712/558/671
f 754/556/669 701/559/672 743/560/673 757/557/670
f 757/557/670 743/560/673 688/394/674 721/395/675
f 712/558/671 757/557/670 721/395/675 677/396/676
f 694/561/677 708/562/678 758/563/679 753/564/680
f 708/562/678 673/401/681 720/402/682 758/563/679
f 758/563/679 720/402/682 688/394/674 743/565/673
f 753/564/680 758/563/679 743/565/673 701/566/672
f 698/567/683 752/568/684 759/569/685 740/570/686
f 752/568/684 693/571/659 735/572/687 759/569/685
f 759/569/685 735/572/687 671/379/688 723/409/689
f 740/570/686 759/569/685 723/409/689 684/410/690
f 700/554/667 751/573/691 760/574/692 726/575/693
f 751/573/691 694/576/677 736/577/694 760/574/692
f 760/574/692 736/577/694 674/397/695 713/510/696
f 726/575/693 760/574/692 713/510/696 685/387/697
f 702/578/698 750/579/699 761/580/700 729/581/701
f 750/579/699 697/582/702 739/583/703 761/580/700
f 761/580/700 739/583/703 682/423/704 728/584/705
f 729/581/701 761/580/700 728/584/705 689/585/706
f 695/586/707 749/587/708 762/588/709 737/589/710
f 749/587/708 698/567/683 740/570/686 762/588/709
f 762/588/709 740/570/686 684/410/690 709/516/711
f 737/589/710 762/588/709 709/516/711 675/438/712
f 703/590/713 748/591/714 763/592/715 732/593/716
f 748/591/714 695/586/707 737/589/710 763/592/715
f 763/592/715 737/589/710 675/438/712 731/520/717
f 732/593/716 763/592/715 731/520/717 692/453/718
f 699/594/719 747/595/720 764/596/721 725/597/722
f 747/595/720 703/590/713 732/593/716 764/596/721
f 764/596/721 732/593/716 692/453/718 716/454/723
f 725/597/722 764/596/721 716/454/723 679/455/724
f 696/555/668 746/598/725 765/599/726 738/600/727
f 746/598/725 702/578/698 729/581/701 765/599/726
f 765/599/726 729/581/701 689/585/706 733/601/728
f 738/600/727 765/599/726 733/601/728 678/388/729
f 677/396/676 734/522/730 766/602/731 712/603/671
f 734/522/730 690/417/732 744/604/733 766/602/731
f 766/602/731 744/604/733 702/578/698 746/598/725
f 712/603/671 766/602/731 746/598/725 696/555/668
f 680/447/734 730/448/735 767/605/736 741/606/737
f 730/448/735 691/451/738 745/607/739 767/605/736
f 767/605/736 745/607/739 703/590/713 747/595/720
f 741/606/737 767/605/736 747/595/720 699/594/719
f 691/451/738 710/517/740 768/608/741 745/607/739
f 710/517/740 676/436/742 711/609/743 768/608/741
f 768/608/741 711/609/743 695/586/707 748/591/714
f 745/607/739 768/608/741 748/591/714 703/590/713
f 676/436/742 722/513/744 769/610/745 711/609/743
f 722/513/744 683/404/746 724/611/747 769/610/745
f 769/610/745 724/611/747 698/567/683 749/587/708
f 711/609/743 769/610/745 749/587/708 695/586/707
f 690/417/732 717/418/748 770/612/749 744/604/733
f 717/418/748 681/421/750 718/613/751 770/612/749
f 770/612/749 718/613/751 697/582/702 750/579/699
f 744/604/733 770/612/749 750/579/699 702/578/698
f 687/385/665 715/506/752 771/614/753 742/615/666
f 715/506/752 673/401/681 708/616/678 771/614/753
f 771/614/753 708/616/678 694/576/677 751/573/691
f 742/615/666 771/614/753 751/573/691 700/554/667
f 683/404/746 705/405/754 772/617/755 724/611/747
f 705/405/754 672/383/663 706/618/660 772/617/755
f 772/617/755 706/618/660 693/571/659 752/568/684
f 724/611/747 772/617/755 752/568/684 698/567/683
f 674/397/695 736/577/694 773/619/756 707/400/757
f 736/577/694 694/561/677 753/564/680 773/619/756
f 773/619/756 753/564/680 701/566/672 727/620/758
f 707/400/757 773/619/756 727/620/758 686/392/759
f 678/388/729 719/389/760 774/621/761 738/622/727
f 719/389/760 686/392/759 727/623/758 774/621/761
f 774/621/761 727/623/758 701/559/672 754/556/669
f 738/622/727 774/621/761 754/556/669 696/555/668
f 671/379/688 735/624/687 775/625/762 704/382/763
f 735/624/687 693/549/659 755/552/662 775/625/762
f 775/625/762 755/552/662 700/554/667 726/626/693
f 704/382/763 775/625/762 726/626/693 685/387/697
f 798/627/764 814/628/765 869/629/766 863/630/767
f 814/628/765 777/5/768 823/6/769 869/629/766
f 869/629/766 823/6/769 792/7/770 850/631/771
f 863/630/767 869/629/766 850/631/771 805/632/772
f 801/633/773 862/634/774 870/635/775 821/636/776
f 862/634/774 806/637/777 851/638/778 870/635/775
f 870/635/775 851/638/778 793/16/779 830/302/780
f 821/636/776 870/635/775 830/302/780 782/269/781
f 799/639/782 816/640/783 871/641/784 861/642/785
f 816/640/783 778/23/786 829/24/787 871/641/784
f 871/641/784 829/24/787 793/16/779 851/638/778
f 861/642/785 871/641/784 851/638/778 806/637/777
f 803/643/788 860/644/789 872/645/790 848/646/791
f 860/644/789 798/647/764 843/648/792 872/645/790
f 872/645/790 843/648/792 776/32/793 832/33/794
f 848/646/791 872/645/790 832/33/794 789/34/795
f 805/649/772 859/650/796 873/651/797 835/652/798
f 859/650/796 799/653/782 844/654/799 873/651/797
f 873/651/797 844/654/799 779/41/800 822/42/801
f 835/652/798 873/651/797 822/42/801 790/43/802
f 807/655/803 858/656/804 874/657/805 839/658/806
f 858/656/804 802/659/807 847/660/808 874/657/805
f 874/657/805 847/660/808 787/50/809 837/51/810
f 839/658/806 874/657/805 837/51/810 794/52/811
f 800/661/812 857/662/813 875/663/814 845/664/815
f 857/662/813 803/643/788 848/646/791 875/663/814
f 875/663/814 848/646/791 789/34/795 817/57/816
f 845/664/815 875/663/814 817/57/816 780/58/817
f 808/665/818 856/666/819 876/667/820 842/668/821
f 856/666/819 800/661/812 845/664/815 876/667/820
f 876/667/820 845/664/815 780/58/817 841/333/822
f 842/668/821 876/667/820 841/333/822 797/77/823
f 811/669/824 866/670/825 877/671/826 868/672/827
f 866/670/825 807/655/803 839/658/806 877/671/826
f 877/671/826 839/658/806 794/52/811 864/338/828
f 868/672/827 877/671/826 864/338/828 809/339/829
f 804/673/830 854/674/831 878/675/832 834/676/833
f 854/674/831 808/665/818 842/668/821 878/675/832
f 878/675/832 842/668/821 797/77/823 825/78/834
f 834/676/833 878/675/832 825/78/834 784/79/835
f 785/95/836 840/96/837 879/677/838 849/678/839
f 840/96/837 796/86/840 853/679/841 879/677/838
f 879/677/838 853/679/841 808/665/818 854/674/831
f 849/678/839 879/677/838 854/674/831 804/673/830
f 810/351/842 838/355/843 880/680/844 867/681/845
f 838/355/843 795/105/846 852/682/847 880/680/844
f 880/680/844 852/682/847 807/655/803 866/670/825
f 867/681/845 880/680/844 866/670/825 811/669/824
f 796/86/840 818/358/848 881/683/849 853/679/841
f 818/358/848 781/114/850 819/684/851 881/683/849
f 881/683/849 819/684/851 800/661/812 856/666/819
f 853/679/841 881/683/849 856/666/819 808/665/818
f 781/114/850 831/119/852 882/685/853 819/684/851
f 831/119/852 788/121/854 833/686/855 882/685/853
f 882/685/853 833/686/855 803/643/788 857/662/813
f 819/684/851 882/685/853 857/662/813 800/661/812
f 795/105/846 826/125/856 883/687/857 852/682/847
f 826/125/856 786/127/858 827/688/859 883/687/857
f 883/687/857 827/688/859 802/659/807 858/656/804
f 852/682/847 883/687/857 858/656/804 807/655/803
f 792/7/770 824/131/860 884/689/861 850/690/771
f 824/131/860 778/23/786 816/691/783 884/689/861
f 884/689/861 816/691/783 799/653/782 859/650/796
f 850/690/771 884/689/861 859/650/796 805/649/772
f 788/121/854 813/137/862 885/692/863 833/686/855
f 813/137/862 777/5/768 814/693/765 885/692/863
f 885/692/863 814/693/765 798/647/764 860/644/789
f 833/686/855 885/692/863 860/644/789 803/643/788
f 779/41/800 844/694/799 886/695/864 815/217/865
f 844/694/799 799/639/782 861/642/785 886/695/864
f 886/695/864 861/642/785 806/637/777 836/696/866
f 815/217/865 886/695/864 836/696/866 791/210/867
f 783/268/868 828/372/869 887/697/870 846/698/871
f 828/372/869 791/210/867 836/699/866 887/697/870
f 887/697/870 836/699/866 806/637/777 862/634/774
f 846/698/871 887/697/870 862/634/774 801/633/773
f 776/32/793 843/700/792 888/701/872 812/201/873
f 843/700/792 798/627/764 863/630/767 888/701/872
f 888/701/872 863/630/767 805/632/772 835/702/798
f 812/201/873 888/701/872 835/702/798 790/43/802
f 782/269/781 865/348/874 889/703/875 821/704/776
f 865/348/874 810/351/842 867/681/845 889/703/875
f 889/703/875 867/681/845 811/669/824 855/705/876
f 821/704/776 889/703/875 855/705/876 801/706/773
f 801/706/773 855/705/876 890/707/877 846/708/871
f 855/705/876 811/669/824 868/672/827 890/707/877
f 890/707/877 868/672/827 809/339/829 820/347/878
f 846/708/871 890/707/877 820/347/878 783/268/868
